<svg viewBox="0 0 177 52" fill="none" xmlns="http://www.w3.org/2000/svg">
<path d="M134.874 31.3299C133.378 31.0645 132.935 31.0996 132.131 31.0645C131.325 31.0293 130.306 31.08 129.513 31.0645C128.95 31.0535 128.266 31.0645 127.019 31.0645M123.154 30.7043C119.912 29.2685 109.361 29.5131 108.035 29.496C106.705 29.479 105.018 29.6184 103.708 29.634C102.78 29.645 101.648 29.6996 99.5878 29.7653M16.6675 17.307C16.4368 17.5816 16.5614 18.2039 16.5614 18.542C16.5614 19.488 16.5968 20.4424 16.5378 21.3864C16.4517 22.7646 16.1971 24.0958 16.0308 25.4595C15.9513 26.1117 15.7125 26.8228 15.7125 27.4742C15.7125 28.3874 15.4833 29.3011 15.3883 30.2063C15.3044 31.0054 15.0463 32.0667 14.734 32.8011C14.1716 34.1233 13.7716 35.6446 13.1128 36.8992C12.8781 37.3462 12.9758 38.3064 12.5823 38.6395C12.3917 38.8009 12.2212 39.5161 12.1048 39.7623M13.4836 40.9971C13.5789 40.5937 17.4113 40.8849 17.9402 40.8849C19.0149 40.8849 20.058 40.7677 21.0999 40.4857C23.3467 39.8775 25.5819 39.1474 27.7848 38.3898C29.6354 37.7534 31.515 36.9211 33.4321 36.531C34.3723 36.3397 35.3304 36.1766 36.244 35.8823C37.7945 35.383 39.2909 34.5597 40.8185 33.9861C43.5864 32.9469 46.4956 32.5519 49.3602 31.9589C50.9076 31.6385 52.6962 31.1766 54.1233 30.4432C54.6217 30.187 55.0285 29.8042 55.5617 29.6011C56.2089 29.3545 56.8215 29.1307 57.4835 28.9337C59.0411 28.4701 60.576 27.9617 62.1876 27.7485C64.0997 27.4956 66.0225 27.4633 67.9352 27.2433C69.6271 27.0487 71.4386 26.8503 73.1404 26.8503C74.3724 26.8503 75.5351 26.9832 76.7481 27.0749C77.5548 27.1358 78.333 27.6164 79.1415 27.6362C80.0469 27.6585 80.915 27.8608 81.8178 27.8608M82.9855 28.1977C84.5281 28.1977 86.2099 28.9959 87.3891 29.9941C87.6016 30.174 88.469 31.4899 88.6093 31.3414M91.857 33.2111C93.3268 36.3861 94.0732 40.2912 94.1264 43.273C94.136 43.8105 93.5514 46.3271 93.8444 46.5334M97.4806 29.7808C95.938 29.7808 94.2562 30.579 93.0771 31.5772C92.8645 31.7572 91.9971 33.073 91.8568 32.9245M83.3638 3.56323C82.045 3.56323 80.9473 3.41158 79.6944 2.89284C78.4258 2.36757 76.9722 2.12686 75.6378 1.85C74.7497 1.66574 73.8332 1.30524 72.9363 1.22615C70.9754 1.05324 69.0237 1.04924 67.0494 1.04924C65.805 1.04924 64.4707 0.890789 63.248 1.14235C62.0887 1.38087 60.9285 1.64103 59.7633 1.85C56.1465 2.49866 52.0547 3.49463 48.7726 5.31371C45.5779 7.08439 41.7283 7.80946 38.3803 9.18712C37.3307 9.61904 36.0457 10.1703 35.0893 10.77C34.8589 10.9144 34.4185 11.1896 34.1741 11.2635C33.8331 11.3666 33.9551 11.5447 33.7517 11.7384C33.5843 11.8977 33.0353 11.9006 32.8014 11.9804C31.7 12.3564 30.5989 12.7685 29.4487 12.9488C28.211 13.1428 26.8561 13.4516 25.6297 13.4516C24.024 13.4516 22.4524 13.8002 20.8691 14.0847C20.1981 14.2053 17.3141 14.4435 17.3141 15.4628M16.0469 16.8037C15.0327 16.8037 14.4649 17.966 13.7502 18.5542C12.919 19.2382 12.5622 19.3994 12.5622 20.5747C12.5622 22.1893 11.9474 24.1361 11.2951 25.5933C10.5598 27.2358 10.0262 28.9861 9.39439 30.6772C8.13026 34.0605 6.97789 37.6537 6.23534 41.1894C5.98543 42.3793 5.55999 43.5048 5.39938 44.7369C5.30618 45.4519 4.8712 46.1726 4.801 46.8039C4.76648 47.1145 4.28858 47.3856 4.16743 47.6419M4.48418 48.3123C5.95133 48.3123 7.49094 48.463 8.91917 48.1074C11.1137 47.5611 13.5475 47.4039 15.6949 46.6735C16.71 46.3283 17.7829 46.3002 18.8099 45.9659C19.8464 45.6284 20.9929 45.4252 22.0658 45.2582C23.3054 45.0654 24.4831 44.5051 25.744 44.4575C27.0828 44.4069 28.3927 44.1223 29.739 44.1223C31.6161 44.1223 33.555 43.9547 35.3884 43.9547C37.5899 43.9547 39.689 43.5308 41.8649 43.275C44.3886 42.9783 46.8778 42.2325 49.3885 41.9528C50.7925 41.7964 52.1733 41.2731 53.5859 41.2731C54.9125 41.2731 55.0997 40.7703 56.5954 40.7703C58.3283 40.7703 60.2886 40.4172 61.9807 39.9696C64.5207 39.2977 67.2906 38.7591 69.9004 38.7591C73.1225 38.7591 76.2242 37.8169 79.4039 37.5766C81.0256 37.4541 82.5885 37.2507 84.2349 37.2507C85.3771 37.2507 86.7361 37.3229 87.7284 36.6548C88.3445 36.24 89.0105 36.1846 89.6203 35.8261C90.107 35.54 90.9146 35.9464 91.3538 35.4816C91.8331 34.9744 90.9672 34.3611 90.8082 33.9825C90.6501 33.606 90.333 32.3948 90.333 32.7256M91.1255 33.2283C91.1255 28.9672 91.1885 24.6306 90.2104 20.4907C89.9605 19.4331 89.6017 18.2204 89.5416 17.1388C89.5148 16.6564 89.2215 15.6577 88.9872 15.2114C88.5296 14.3397 88.1161 12.7609 88.1161 11.7756M13.1962 19.15H11.7707C11.2008 19.15 11.5346 19.9809 11.4451 20.407C11.212 21.5171 10.6835 22.7961 10.0988 23.7683C9.29077 25.1119 8.70625 26.6219 8.00448 28.0328C7.42053 29.2068 6.48472 30.8186 6.38535 32.1855C6.33382 32.8944 5.9139 33.7602 5.71658 34.4388C5.52034 35.1137 5.35325 36.0657 5.03902 36.6641C4.1753 38.3092 3.97668 40.2698 3.37589 42.018C3.05944 42.9388 2.80759 43.8367 2.58393 44.7834C2.35816 45.7389 1.82766 46.7903 1.79196 47.7723C1.76332 48.5601 1.32373 49.9736 1 50.6587M1 50.491C2.21868 50.491 3.33612 50.9938 4.56384 50.9938C5.99751 50.9938 7.7306 51.084 9.07803 50.5748C9.55277 50.3954 10.1723 50.421 10.6796 50.3234C11.3734 50.19 12.0361 50 12.7211 49.8579C13.8708 49.6193 15.1187 49.2669 16.2849 49.1595C18.679 48.9393 21.1124 48.3022 23.5006 47.9864C25.6057 47.7079 27.7089 47.563 29.8099 47.316C31.5779 47.1081 32.1382 46.8038 33.0745 46.8038C34.4924 46.8038 36.0909 46.7234 37.4303 46.2173C39.4951 45.437 41.927 45.4935 44.0828 45.2861C46.5384 45.0499 49.0647 44.7927 51.5273 44.7927C54.1204 44.7927 56.8629 44.1216 59.4117 43.5822C62.2069 42.9907 65.1188 42.7562 67.9297 42.2414C70.5782 41.7564 73.4023 40.8512 76.0782 40.7703C77.7245 40.7205 79.3719 39.8597 80.9883 39.7647C81.7229 39.7215 81.9387 39.3817 81.9387 40.342C81.9387 40.8823 81.7498 41.6387 82.2555 41.9062C83.9017 42.7772 85.0208 44.4493 86.6905 45.3327C88.2229 46.1435 89.8087 47.0657 91.4423 47.6418M85.8984 38.2565C85.7999 38.2695 85.0005 40.5625 84.9392 40.8542C84.8234 41.4058 84.987 41.4068 85.5112 41.6084C86.028 41.8073 86.4407 42.2173 86.9279 42.4464C87.9008 42.904 88.5977 43.828 89.5414 44.3273C90.3712 44.7663 91.1456 45.4217 91.9173 45.966M93.9767 46.5365C94.0757 46.1175 107.422 47.0642 107.942 47.0642M107.818 48.7793C107.719 49.1983 94.3721 48.2517 93.8527 48.2517M109.023 46.9714C123.57 46.9714 138.115 46.8038 152.651 46.8038C159.107 46.8038 165.316 45.7982 171.746 45.7982M172.697 45.4631C172.432 45.4279 171.757 44.0249 171.589 43.7126C171.11 42.8262 170.301 42.0798 169.837 41.18C169.389 40.3105 168.524 39.7944 168.069 38.9267C167.831 38.4749 167.32 38.1372 166.995 37.7535C166.645 37.3389 166.435 36.826 166.045 36.4127M163.986 35.7423C163.314 35.1102 160.886 35.5747 160.026 35.5747C157.915 35.5747 155.801 35.607 153.69 35.5747C151.249 35.5372 148.031 35.3366 145.788 34.1501C144.543 33.4912 142.938 32.8315 141.564 32.5672C140.917 32.4426 140.246 32.3865 139.629 32.1854C139.274 32.0699 138.158 32.0344 138.009 31.7199M111.403 2.86606C109.052 2.86606 106.692 3.03366 104.355 3.03366C103.965 3.03366 101.709 3.10293 101.583 3.36886M88.3657 6.95602C88.9318 6.95602 91.2331 4.61918 91.7323 4.31736C92.0896 4.10128 93.5289 3.39379 94.2928 3.26539C95.0988 3.12992 99.4629 3.12994 100.086 3.26539M112.431 2.86607C113.009 2.86607 127.916 3.97262 128.142 4.44929M129.14 4.56896C131.016 4.56896 133.066 4.51462 134.763 5.48145C135.488 5.89495 136.573 6.21377 137.375 6.44961L137.376 6.4498C138.777 6.86142 140.048 7.74226 141.336 8.42374C142.639 9.11332 143.992 9.66113 145.296 10.3511C146.616 11.0498 148.11 11.8808 149.502 12.3716C151.383 13.035 153.277 13.7869 155.275 13.7869C155.275 14.3674 155.702 15.034 156.067 15.4628C156.556 16.0383 156.78 16.8548 157.211 17.474C157.882 18.44 158.702 19.4701 159.27 20.4908C159.932 21.6826 161.038 22.6995 161.769 23.88C162.78 25.5127 163.704 27.1488 164.778 28.7404C165.809 30.2681 166.566 32.0603 167.629 33.5263C168.141 34.2323 168.446 35.083 168.967 35.7795C169.501 36.4943 170.036 37.0927 170.357 37.9583C170.951 39.5587 172.381 41.1897 172.381 42.9491M109.341 48.8151H128.664C131.624 48.8151 134.563 49.1503 137.534 49.1503C139.78 49.1503 142.305 49.3694 144.504 48.8523C146.319 48.4255 148.403 49.0883 150.188 48.5637C150.904 48.3532 152.612 48.3098 153.42 48.3054M153.42 48.3054C153.863 48.303 154.036 48.3123 153.629 48.3123C153.501 48.3123 153.435 48.3098 153.42 48.3054ZM153.42 48.3054C153.315 48.2739 155.856 48.1447 156.779 48.1447C160.017 48.1447 163.19 47.8095 166.45 47.8095C168.52 47.8095 170.559 47.9771 172.618 47.9771C173.71 47.9771 174.474 47.7177 175.47 47.4836C176.937 47.1385 174.93 45.6673 174.598 45.0534L174.589 45.036C174.249 44.4057 173.462 42.9491 172.698 42.9491" stroke="black" stroke-linecap="round"/>
</svg>