<svg viewBox="0 0 77 122" fill="none" xmlns="http://www.w3.org/2000/svg">
<path d="M37.992 1C48.4287 14.1335 57.0658 31.414 53.2694 48.3766C52.3078 52.673 50.0849 56.7727 47.0367 60.2269M47.0367 60.2269C42.394 65.4879 35.8367 69.2514 28.9055 69.9318C18.0615 70.9962 6.62018 67.6794 2.27822 57.3579C0.0150479 51.978 0.49084 46.3247 5.8729 42.9236C14.0954 37.7274 27.1401 42.4283 34.0645 47.6067C38.8521 51.187 43.2086 55.4602 47.0367 60.2269ZM47.0367 60.2269C60.4877 76.9757 67.414 99.817 63.5875 120.099M76 104.332C73.5294 108.3 67.5999 117.189 63.6469 120.999M63.647 121C61.1764 117.032 55.2469 108.143 51.294 104.333" stroke="#030500" stroke-width="2" stroke-linecap="round"/>
</svg>