<svg viewBox="0 0 146 123" fill="none" xmlns="http://www.w3.org/2000/svg">
<path d="M90.894 97.7404L95.2407 99.1995M90.1431 94.4988C90.6678 92.3411 90.4527 89.9053 90.5572 87.7056C90.7322 84.0227 90.2798 80.4523 89.9903 76.7916C89.3063 68.1393 89.5216 59.4922 89.0992 50.8195C88.762 43.8958 89.0454 36.846 89.0736 29.9833M87.905 27.9816C87.9756 27.2896 86.5442 26.318 86.0659 25.9967C85.2536 25.4512 84.5565 25.0477 83.6327 24.7376C81.5717 24.0458 79.5428 23.1811 77.3731 22.9984M1.27052 8.30664L1.52946 7.53821C1.81255 6.69814 1.56373 5.67777 1.69955 4.78935C1.89316 3.52294 1.84321 1.5057 3.20514 0.882392C5.20578 -0.033226 7.07745 0.867887 9.03793 1.52596M12.867 2.46949L26.2967 6.9774C29.8582 8.17289 33.6615 9.89171 37.4719 10.1322M40.3696 11.1052C51.3452 14.7893 62.3773 18.2625 73.3501 21.9457M1.14068 12.6544C1.23069 12.6976 1.10312 14.9017 1.13954 15.1428C1.32792 16.3901 1.5567 17.6603 1.63666 18.9139C1.70308 19.955 1.99819 21.0233 2.25037 22.0322C2.59902 23.4269 2.56857 24.9225 2.85749 26.3358C3.60102 29.9732 3.69473 33.7997 4.2099 37.4784C4.54773 39.8908 4.79013 42.4951 4.78298 44.9205M5.25364 49.6773C4.84833 50.8801 4.85605 51.9446 5.03385 53.2104C5.24736 54.7304 5.2289 56.2023 5.3315 57.7209C5.58843 61.5237 6.14459 65.3017 6.42203 69.1033C6.61407 71.7347 6.40474 73.808 8.08455 76.03C8.9666 77.1967 10.0803 79.1216 11.5264 79.6071M16.9759 81.8957L35.6046 88.1488M43.884 90.9286L70.3782 99.8219M76.7949 101.975L120.883 116.774M124.407 117.94C128.09 119.176 131.766 120.511 135.506 121.483C136.549 121.754 139.925 121.8 140.373 120.473C140.587 119.836 140.82 117.298 140.177 116.862C139.598 116.469 138.788 116.273 138.159 115.951C136.885 115.3 135.643 114.601 134.283 114.144M120.764 109.606L130.285 112.802M97.446 100.859L103.656 102.944M109.451 104.89L114.419 106.557M41.5875 44.7667C41.2882 45.5138 40.5835 46.1381 40.2002 46.8623C39.8201 47.5804 39.7633 48.4937 39.5505 49.2557C39.4024 49.7859 39.2341 50.3115 39.0761 50.8389C38.8937 51.4479 38.4913 51.9697 38.2352 52.555C37.8971 53.3275 37.5296 54.3295 37.7811 55.1618C38.0457 56.0374 38.4372 56.5396 39.0552 57.1989C40.0288 58.2377 41.0936 57.963 42.4257 58.0788C43.628 58.1833 44.9179 59.5497 45.9593 58.1255C46.1704 57.8369 46.3407 57.458 46.4529 57.1197C46.582 56.7304 46.6529 56.9178 46.2689 56.8032C45.6554 56.6201 45.313 56.3273 45.1027 55.6897C44.8316 54.868 44.805 53.6885 45.4324 53.0168C45.6668 52.7657 45.9871 52.3955 46.3369 52.308C46.5349 52.2585 46.6593 52.0218 46.5655 51.8336C46.2098 51.1196 45.4459 50.8173 45.1171 50.0254C44.8836 49.4629 44.726 48.8458 44.632 48.243C44.5509 47.7228 44.6308 47.14 44.3973 46.6517C44.1309 46.0944 44.0769 45.5764 43.554 45.1985C43.3758 45.0697 42.3047 44.7056 42.1675 44.8525M43.4551 43.6969C44.6601 43.6532 45.7506 42.5578 46.2532 41.5955C46.8011 40.5466 45.8384 41.0793 45.2407 41.3379C43.9335 41.9035 42.807 41.8902 42.6113 43.4733M94.6234 58.243C95.9422 56.9267 97.968 56.0323 99.0645 54.5348C99.8314 53.4873 100.739 52.6089 101.677 51.7247C102.711 50.7499 104.479 50.0504 105.276 48.8567C105.737 48.1666 106.693 46.875 107.424 46.5101M110.298 42.0772C111.298 41.9663 112.8 40.0627 113.302 39.3395C114.202 38.0426 115.286 37.0289 116.248 35.8196C117.29 34.5102 118.514 33.3444 119.572 32.0535C120.028 31.4971 120.677 30.3795 121.27 30.0836M99.8485 71.5404C101.834 71.5404 103.789 70.7182 105.567 69.8312C107.264 68.9841 109 68.124 110.617 67.108C111.303 66.6771 112.505 66.2095 113.288 65.9492C114.246 65.6304 115.054 65.005 116.031 64.7614C116.928 64.5376 117.837 63.4578 118.658 63.4578M121.531 60.8505C123.193 60.6847 125.347 59.12 126.625 58.1273C128.067 57.0084 129.832 56.2448 131.458 55.4331L131.548 55.3882C134.557 53.8869 137.698 52.3192 140.573 50.5661C142.216 49.564 143.62 48.133 145.304 47.2925M103.244 80.6647C100.881 80.6647 108.119 80.4735 110.298 81.3889C112.864 82.4674 116.01 82.4586 118.657 83.4023C119.63 83.7492 120.763 83.7632 121.792 83.7934C123.163 83.8337 124.557 84.3149 125.957 84.3149C128.135 84.3149 130.284 84.8363 132.503 84.8363M127.338 36.106C127.338 36.9705 127.206 37.9601 127.394 38.8018C127.452 39.0654 127.125 39.2068 126.981 39.3779C126.443 40.02 125.9 41.0004 125.141 41.3791C125.989 41.3791 126.866 41.2986 127.681 41.5696C127.815 41.6145 128.05 41.5768 128.05 41.7638C128.05 41.9825 128.103 42.2114 128.195 42.4123C128.502 43.0789 128.9 43.695 129.224 44.3411C129.322 44.5367 129.534 44.7788 129.534 44.9929C129.534 44.1284 129.869 43.4372 130.213 42.6563C130.392 42.2517 130.781 41.8413 130.781 41.3791M130.781 41.3781C131.667 41.3781 132.495 41.5704 133.337 41.8225C133.693 41.9289 134.044 42.048 134.389 42.1812C134.482 42.2172 134.802 42.3517 134.904 42.3228C135.053 42.2803 134.724 41.9959 134.696 41.9673C134.432 41.7043 134.241 41.4218 134.02 41.1279C133.773 40.7999 133.602 40.4395 133.419 40.0746C133.364 39.9639 133.262 39.8316 133.156 39.7784C133.176 39.599 133.511 39.2188 133.66 39.1275C133.83 39.023 133.877 38.8261 134.033 38.7128C134.158 38.6214 134.263 38.4964 134.372 38.3869C134.406 38.3533 134.866 37.8375 134.841 37.8274C134.708 37.7745 134.456 37.8241 134.313 37.8241H132.951C132.761 37.8241 131.686 37.7941 131.612 37.9426C130.878 37.876 130.327 37.2748 129.712 36.9677C129.423 36.8235 129.126 36.7255 128.855 36.5529C128.727 36.4722 128.368 36.2238 128.228 36.2238M123.888 94.1933C123.888 94.5559 124.051 94.856 124.212 95.1763C124.272 95.2962 124.359 95.4605 124.445 95.561C124.492 95.6163 124.504 95.7363 124.552 95.7747C124.602 95.8145 124.56 95.9034 124.607 95.9551C124.665 96.0199 124.667 96.1109 124.721 96.1807C124.848 96.3443 124.743 96.3935 124.657 96.5226C124.404 96.9011 124.074 97.2172 123.888 97.6339C123.838 97.747 123.751 97.8675 123.719 97.9782C123.695 98.0622 123.495 98.1756 123.55 98.2726C123.581 98.3267 123.775 98.2963 123.831 98.2963C124.084 98.2963 124.302 98.4051 124.545 98.4578C124.729 98.4976 124.951 98.5564 125.13 98.4768C125.663 98.2405 126.076 98.7586 126.382 99.1511C126.603 99.4354 126.837 99.7328 127.133 99.9442C127.156 99.9606 127.334 100.139 127.355 100.068C127.386 99.9571 127.375 99.8267 127.409 99.7163C127.519 99.3643 127.703 99.0852 127.776 98.7142C127.809 98.5424 127.848 97.8589 127.999 97.7835C128.63 97.7835 129.437 97.6633 130.052 97.8475C130.115 97.8662 130.821 98.0733 130.821 98.0161C130.821 97.9009 130.575 97.7739 130.516 97.6979C130.31 97.4308 130.134 97.1412 129.926 96.8763C129.735 96.633 129.538 96.4841 129.286 96.3112C129.119 96.1961 128.817 96.0395 128.727 95.86C128.748 95.6713 128.973 95.4232 129.089 95.2751C129.24 95.0824 129.416 94.8808 129.531 94.6625C129.57 94.5892 129.658 94.4488 129.541 94.4488H129.013C128.677 94.4488 128.299 94.6422 127.978 94.7266C127.797 94.7741 127.639 94.8652 127.464 94.919C127.4 94.9386 127.164 95.0045 127.143 95.0472M127.186 95.0473C126.807 95.0473 126.464 95.0325 126.124 94.8431C125.927 94.7332 125.718 94.6999 125.506 94.6294C125.193 94.5252 124.767 94.278 124.445 94.278M99.0103 34.1502C98.9185 34.9747 98.0539 35.7965 97.5327 36.3745C96.7688 37.2216 96.3572 36.7613 95.3041 36.7613C94.9235 36.7613 92.9299 36.572 92.9059 36.9789C92.8641 37.6883 94.141 38.2973 94.4804 38.9373C94.8996 39.7275 94.9174 40.3952 94.868 41.3308C94.8581 41.5188 94.2443 44.0628 94.4804 44.0628C94.9557 44.0628 95.3864 42.7077 95.9581 42.6363C96.6011 42.5561 97.2131 41.9836 97.9203 41.9836C98.5737 42.6357 99.2891 43.2533 99.9305 43.8935C100.308 44.2704 100.972 44.9928 100.972 44.0507V40.0252C102.017 40.0252 102.529 39.5769 103.479 39.1554C104.874 38.537 102.446 38.2205 102.062 37.7411C101.946 37.5967 101.296 37.4605 101.093 37.4026C100.679 37.2844 100.748 36.6355 100.585 36.3267C100.224 35.6467 99.6328 33.8088 99.0099 33.498" stroke="#030500" stroke-linecap="round"/>
</svg>