<svg viewBox="0 0 152 180" fill="none" xmlns="http://www.w3.org/2000/svg">
<path d="M1 17.5635C1 24.9333 2.07805 31.7333 5.04414 38.5862C9.56703 49.0361 16.8379 53.006 26.6537 57.8811C32.8416 60.9543 39.3088 61.4123 45.4855 63.8464C50.7945 65.9386 54.9272 69.6526 58.9251 73.679C64.0686 78.859 67.668 82.6346 69.7504 89.7649C71.0724 94.2919 70.8841 99.0836 73.0592 103.465C76.4468 110.288 84.559 112.558 87.7652 119.016M149.529 179C149.529 166.225 151 153.653 151 140.904C151 134.308 148.475 129.613 145.526 123.872C142.278 117.548 136.088 113.263 133.353 106.593C130.453 99.5217 129.676 92.1872 129.676 84.5417C129.676 75.5603 131.826 67.517 132.944 58.6643C135.06 41.9213 134.263 20.076 120.117 8.67871M72.2887 4.71257C73.0369 4.71257 74.2856 5.65125 74.5681 6.3626C74.6946 6.68097 75.3313 7.58087 75.6545 7.74361C75.8894 7.86193 79.0049 6.91307 79.0203 6.64956C79.104 5.21496 79.3307 3.70301 79.786 2.3272C79.9741 1.75884 80.3493 1.51845 80.9436 1.48425C81.6158 1.44556 82.176 1 82.8669 1M86.2341 1.96729C86.2341 2.75625 86.253 3.35142 86.519 4.10157C86.762 4.78676 86.9185 6.02841 87.445 6.55868C87.6188 6.73366 88.0503 6.67638 88.282 6.80977C88.5948 6.98976 89.2057 7.26727 89.5643 7.29402C90.1461 7.33743 90.6808 7.45543 91.2828 7.45543C92.0405 7.45543 92.1471 6.71385 92.7164 6.24481C93.3023 5.76196 93.7341 5.10662 94.4082 4.74723C94.9272 4.47047 95.4737 4.54994 96.0911 4.54994C96.8229 4.54994 97.4393 5.03419 98.0945 5.03419M98.7344 6.97266C98.7344 8.42769 97.0014 10.8768 98.3337 12.2187C98.8874 12.7763 99.751 13.9135 100.578 13.9135C102.098 13.9135 103.614 13.7521 105.145 13.7521C106.281 13.7521 106.927 16.8696 107.309 17.7158C107.809 18.8223 106.626 18.5676 106.018 18.9174C105.292 19.3352 104.596 19.8397 103.863 20.2088M103.383 22.3057C103.383 23.041 103.053 25.0682 103.864 25.4981C105.079 26.1423 106.393 26.6052 107.586 27.3096C108.061 27.5901 109.058 27.6085 109.438 27.9911C109.68 28.2354 109.473 29.707 109.473 30.0178V31.8292C109.473 32.5517 108.94 32.2806 108.352 32.3135C107.812 32.3437 107.193 32.7357 106.749 32.9591M104.988 33.603C103.757 33.603 102.76 33.7677 102.041 34.8944C101.789 35.2881 101.431 36.1167 101.64 36.5892C101.835 37.0322 102.677 37.2831 103.065 37.5129C103.525 37.7857 104.376 39.1029 104.498 39.6561C104.689 40.5225 104.748 40.845 103.866 41.3151C103.141 41.7019 102.781 42.7871 102.023 43.1266C101.088 43.5452 100.752 43.9424 99.6098 43.6467C98.0046 43.231 96.0142 41.8302 95.2111 44.2565M95.2137 46.1934C95.2137 46.905 95.3739 47.6232 95.3739 48.2918C95.3739 49.4438 93.5917 49.2444 92.8184 49.6728C92.3369 49.9395 91.7033 50.5516 91.1266 50.5516C90.7038 50.5516 90.3688 49.7076 90.0848 49.4217C89.344 48.6756 89.1521 47.6544 88.0012 47.3233C86.7774 46.9711 86.8257 47.2803 86.7101 48.4442C86.6329 49.222 86.269 50.549 85.7218 51.1614C85.0947 51.8631 84.9982 51.8429 83.9854 51.8429C82.7717 51.8429 81.7479 51.79 80.6285 52.1658M80.4648 49.5849C80.4648 48.8891 80.5054 48.1811 80.4648 47.4865C80.4467 47.1773 79.4317 47.3465 79.1826 47.2892C77.6376 46.9335 76.1919 46.3492 75.0154 45.2266C74.79 45.0116 74.2594 44.2712 73.8935 44.4554C73.3945 44.7067 73 45.4559 72.4866 45.8006C71.9534 46.1586 71.5101 46.6416 70.9729 47.0022C70.6063 47.2484 69.9217 47.2543 69.7263 47.6479M67.161 45.3875C66.6118 45.3184 66.3596 44.0525 66.3596 43.612C66.3596 42.5539 66.9621 42.1981 67.6419 41.5135C67.9315 41.2218 68.5035 40.7156 68.5946 40.3029C68.6999 39.8257 68.2159 39.295 68.1138 38.8322C67.7914 37.3713 67.0046 35.8993 66.8405 34.4112C66.8396 34.4033 65.1496 33.8895 64.9172 33.7656C63.6669 33.0989 62.5489 32.4742 61.0794 32.4742C60.661 32.4742 59.1408 31.9272 58.9958 31.4161C58.7115 30.4138 58.9869 28.9946 58.9869 27.9546M61.0736 26.9873H63.2373C63.8708 26.9873 63.5983 26.2927 63.7181 25.7857C63.9762 24.694 64.3718 23.6212 64.6086 22.5484C64.6621 22.3055 64.7599 22.1674 64.7599 21.9027C64.7599 21.5258 64.2721 21.7247 64.0387 21.5619C62.944 20.7987 61.9387 19.8979 60.8243 19.1497C60.2404 18.7577 59.7826 18.4615 59.3461 17.9121C59.0009 17.4776 59.7927 16.5471 59.916 16.2083C60.0377 15.8741 60.1641 14.6934 60.4325 14.5583M62.6744 14.559C63.761 14.559 64.8611 14.4882 65.9334 14.6846C66.5446 14.7965 66.5194 14.5944 66.7615 14.1555C67.0783 13.5811 67.711 12.9446 68.2841 12.622C68.6146 12.4361 69.406 12.0096 69.406 11.5728C69.406 10.9244 68.775 10.5383 68.5245 9.94971C68.1366 9.03806 67.7523 8.09689 67.3224 7.20564C66.9469 6.42687 67.9634 6.00408 68.6047 5.68115M72.4534 24.7297C72.4534 23.8343 72.3395 22.8525 72.5425 21.9766C72.8251 20.7568 73.4531 19.6086 74.0562 18.5241C75.045 16.7458 76.8235 15.8705 78.259 14.5246C80.5204 12.4042 84.3738 12.7849 87.1721 12.7849C89.3712 12.7849 91.1238 13.8323 92.6482 15.3675M73.2542 28.4381C73.2542 30.2232 74.6342 32.4176 76.1035 33.442C76.7617 33.9009 77.3079 34.5546 77.9378 35.0562C78.8926 35.8165 80.247 36.1361 81.3392 36.6704C84.1799 38.0599 89.1214 37.0864 91.214 34.7154C91.6794 34.1882 92.5662 33.3759 92.8079 32.7067C93.0527 32.0286 93.7435 31.5162 93.9298 30.8594C94.079 30.3336 94.5538 29.7928 94.8113 29.3259C95.0342 28.9219 95.1466 28.2385 95.2031 27.7835C95.3872 26.3001 95.212 24.6847 95.212 23.1921C95.212 21.1699 94.5179 19.3995 93.449 17.7847M25.2974 26.3462C25.2974 27.0136 24.824 27.575 24.7391 28.2161C24.6646 28.7789 24.6183 29.6907 24.8457 30.2124C26.1098 33.1121 26.8201 36.2244 28.2079 39.0818C28.8921 40.4907 29.6076 41.8893 30.2089 43.3334C30.5005 44.0337 30.7263 44.5707 31.1937 45.1591C31.8639 46.0028 33.4531 46.8142 34.5558 46.8142M36.5849 46.8142C37.8787 46.8142 39.1266 46.747 40.3736 46.353C41.9325 45.8604 43.6804 45.2759 45.0718 44.4136C46.7266 43.388 48.443 42.5671 50.1276 41.634C51.1192 41.0847 52.2323 40.1819 52.6178 39.0818C52.816 38.5164 53.2793 37.939 53.2953 37.3256C53.3087 36.8126 53.2953 36.2974 53.2953 35.7842M52.6178 32.9428C52.6178 32.4738 52.6648 31.9732 52.6053 31.5088C52.4478 30.2797 51.5394 28.9499 51.0371 27.8258C50.4433 26.4968 49.8506 25.2095 49.055 23.9849C48.4882 23.1125 47.823 22.1695 47.4241 21.2053C46.9178 19.9816 46.5349 19.4688 45.3917 18.8931C44.6977 18.5437 43.6833 18.5015 42.9077 18.5015M40.3176 18.5015C40.3027 18.6213 39.1732 18.8299 38.9878 18.931C38.3039 19.3041 37.5971 19.5481 36.9304 19.9797C35.5075 20.9009 33.8573 21.6951 32.2509 22.2539C31.1569 22.6346 30.0516 23.0393 29.0268 23.5553C28.5784 23.7811 28.0253 24.1833 27.559 24.3007M33.5369 32.8293C33.4418 32.9387 34.7604 32.9906 35.0047 33.082C35.906 33.4192 36.7408 34.051 37.6015 34.4845C37.7407 34.5545 38.8369 35.2243 38.9314 35.053C39.0545 34.8297 39.0552 34.5008 39.0944 34.257C39.2262 33.4387 39.586 32.6505 39.935 31.907C40.699 30.2793 41.5448 28.7082 42.143 27.0048C42.2092 26.8161 42.5107 25.6655 42.7953 25.6655C42.9982 25.6655 43.5921 26.1839 43.8366 26.2846C44.1488 26.4132 44.5565 26.5068 44.8277 26.6889M32.5293 36.1255C34.1059 36.1255 35.523 36.6096 36.9327 37.3194C37.4362 37.5729 37.9355 37.8536 38.4883 37.9701C38.8815 38.053 39.3439 38.1441 39.699 38.3428C39.9859 38.5033 40.207 38.3603 40.207 38.0459C40.207 36.7498 41.04 35.3947 41.6999 34.3313C42.4298 33.1553 43.1941 32.0223 43.7072 30.7305C43.87 30.3206 44.2717 29.8703 44.2717 29.4165M43.5801 17.8198C44.4897 17.8198 45.4987 17.696 46.4028 17.8261C47.3489 17.9622 47.9973 18.6559 48.7739 19.1338C49.2677 19.4377 49.617 20.0994 49.9657 20.5488C50.345 21.0379 50.752 21.512 51.0885 22.0334C51.8771 23.2554 52.2742 24.6744 52.8385 26.0007C53.4882 27.5273 53.7284 29.218 54.4193 30.7323C54.8155 31.601 55.0719 32.6747 55.0967 33.6256C55.1336 35.0393 55.5505 36.5033 54.6451 37.7192M87.951 63.5898C86.1957 63.5898 83.9689 65.0611 82.5767 66.0893C81.4804 66.899 80.7334 67.8957 80.3985 69.2451C80.0757 70.5453 79.9164 71.8024 79.9164 73.1472C79.9164 74.7436 80.6044 75.9626 81.2912 77.346C81.7892 78.3491 82.8445 79.1137 83.7373 79.7016C85.1379 80.6238 86.3596 80.9286 88.0403 81.1941C88.9889 81.3439 89.9374 81.1643 90.8435 81.0682C91.9016 80.956 92.8214 79.9353 93.8967 79.9353M95.6638 78.6407C96.2935 78.6407 97.1496 78.2444 97.6814 77.9035C98.4463 77.4133 99.3534 77.1999 100.128 76.6987C101.511 75.803 103.203 75.3657 104.663 74.6308C106.238 73.8375 108.023 73.5696 109.323 72.3291C110.539 71.1691 112.537 70.2646 112.537 68.2832M112.699 65.2115C112.699 61.8268 111.164 58.6486 108.039 57.1197C107.181 56.6999 106.137 56.3388 105.146 56.4814C104.521 56.5713 103.924 56.852 103.298 56.9489C102.704 57.0409 101.843 57.1226 101.325 57.4434C100.312 58.0714 99.0455 58.0697 97.9955 58.6572C96.8767 59.2832 95.8149 59.964 94.5406 60.3205C93.0402 60.7402 91.411 62.2985 89.8804 62.2985M98.8794 61.1652C98.8651 61.0641 97.9901 62.315 97.8349 62.5408C97.2934 63.3285 97.2725 64.3739 97.2725 65.292C97.2725 66.1666 97.023 67.5217 97.5046 68.286C98.0294 69.1188 98.9022 69.7757 99.6829 70.3539C100.797 71.1787 102.569 71.6845 103.941 71.6845C105.789 71.6845 107.711 70.5439 108.762 69.0142C109.483 67.9659 110.407 65.494 109.646 64.276C109.159 63.4974 109.007 62.7065 108.36 61.9833C107.82 61.3784 107.105 60.5314 106.352 60.1941C105.478 59.8032 104.872 59.2231 103.861 59.2231C102.875 59.2231 101.489 58.9817 100.647 59.5468M98.3286 99.9438C98.3286 100.213 98.3362 100.483 98.3253 100.752C98.3005 101.366 98.0815 101.943 97.9747 102.544C97.8913 103.013 97.8813 103.497 97.8535 103.972C97.8347 104.293 97.7388 104.592 97.7388 104.919C97.7388 105.725 97.7085 106.351 98.1386 107.057C98.3931 107.474 98.7648 107.904 99.1543 108.198M100.158 108.258C101.1 108.258 101.946 108.506 102.87 108.647C103.501 108.744 104.129 108.851 104.76 108.944C105.397 109.038 106.036 109.037 106.67 109.119C107.614 109.241 108.641 109.167 109.592 109.149C110.243 109.136 111.101 108.45 111.302 107.842M98.6256 98.4013C98.6256 98.1077 98.6015 97.8019 98.6387 97.5105C98.6914 97.0979 98.8858 96.7746 99.0252 96.3954C99.1908 95.9451 100.026 95.6304 100.453 95.5641C100.824 95.5067 101.227 95.5509 101.6 95.5509C101.986 95.5509 102.39 95.5098 102.766 95.6103C103.264 95.7436 103.778 95.7704 104.273 95.9072C104.393 95.9403 104.767 95.9252 104.817 96.026M106.115 96.0221C106.766 96.0221 107.366 96.0113 107.999 96.1706C108.562 96.3124 109.107 96.5633 109.663 96.6753C110.675 96.8792 111.933 97.1423 112.293 98.2325C112.766 99.6601 112.692 101.085 112.546 102.558C112.477 103.249 112.441 103.956 112.352 104.646C112.298 105.072 112.317 105.68 112.13 106.058M99.6303 105.883C99.743 105.467 100.144 105.007 100.394 104.662C100.847 104.034 101.245 103.361 101.665 102.709C101.998 102.192 102.403 101.725 102.723 101.198C102.87 100.956 103.047 100.934 103.316 100.957C103.85 101.004 104.049 102.012 104.403 102.346C104.709 102.635 105.02 102.978 105.258 103.326C105.315 103.41 105.5 103.798 105.615 103.798C105.689 103.798 105.841 103.341 105.88 103.283C106.034 103.055 106.346 102.772 106.588 102.643C107.17 102.333 107.523 103.098 107.78 103.521C108.257 104.304 108.791 105.133 108.992 106.048C109.107 106.568 109.359 107.06 109.359 107.605M100.393 106.711C101.441 106.711 102.438 106.683 103.459 106.889M104.822 107.128C105.684 107.128 106.568 107.188 107.416 107.188M108.709 99.1089C108.192 99.1089 107.782 99.2729 107.661 99.8215C107.519 100.466 108.192 100.738 108.709 100.818C109.373 100.921 109.83 100.684 109.83 99.9996C109.83 99.5389 109.243 99.2277 108.827 99.2277M120.17 105.47C119.901 105.47 119.627 105.453 119.359 105.472C119.012 105.497 118.738 105.766 118.489 105.982C118.179 106.25 117.988 106.548 117.798 106.906C117.685 107.119 117.561 107.335 117.493 107.568C117.462 107.673 117.406 107.867 117.446 107.98C117.463 108.025 117.567 108.047 117.604 108.061C117.807 108.142 117.985 108.276 118.176 108.381C118.605 108.616 119.036 108.843 119.497 109.006C119.917 109.154 120.345 109.218 120.773 109.331C121.374 109.489 122.009 109.465 122.619 109.588C122.774 109.619 122.922 109.638 123.073 109.688C123.177 109.723 123.27 109.775 123.383 109.778C123.427 109.778 123.557 109.801 123.593 109.765C123.627 109.731 123.645 109.657 123.676 109.615C123.783 109.474 123.866 109.322 123.947 109.165C124.231 108.618 124.312 107.779 123.999 107.233C123.841 106.958 123.637 106.697 123.431 106.457C123.253 106.249 123.06 106.011 122.834 105.854C122.814 105.84 122.637 105.747 122.64 105.72C122.64 105.718 122.824 105.691 122.834 105.688C122.99 105.645 123.141 105.578 123.287 105.509C123.389 105.462 123.469 105.403 123.556 105.332C123.695 105.218 123.861 105.126 123.978 104.986C124.278 104.627 124.339 103.997 124.333 103.55C124.325 103.029 124.266 102.307 123.888 101.903C123.634 101.632 123.341 101.378 123.024 101.184C122.825 101.062 122.581 101.018 122.35 101.007C121.971 100.989 121.675 101.128 121.336 101.282C120.983 101.442 120.69 101.595 120.428 101.889C120.207 102.137 120.181 102.397 120.115 102.712C120.001 103.256 119.961 103.81 120.191 104.331C120.285 104.546 120.376 104.77 120.48 104.979M21.3701 7.83105C21.3701 10.4093 21.0938 12.9311 21.0938 15.5021C21.0938 16.4118 20.5765 21.072 21.3701 21.4718M36.0228 49.311C36.3943 49.3578 36.4339 49.8734 36.6371 50.1462C37.2988 51.0347 38.2249 51.8729 39.1095 52.5279C42.0267 54.6882 45.3109 56.5792 48.6612 57.9564C52.0433 59.3466 55.433 60.7765 58.5662 62.6889C61.5181 64.4907 63.6673 66.6745 65.9987 69.1845C67.954 71.2895 69.8156 73.2224 71.1893 75.7884C73.2782 79.6907 74.324 83.7643 74.9977 88.0991C75.5948 91.9415 76.5374 94.8061 78.8675 97.9663C80.766 100.541 83.272 102.464 85.5015 104.709M112.036 16.1831C114.553 16.8169 116.32 20.0649 118.117 21.7353C120.546 23.9936 122.945 26.2785 124.689 29.1434C128.12 34.7768 128.689 42.1961 128.621 48.6302C128.556 54.774 126.743 61.0079 125.58 67.0035C124.527 72.43 124.198 77.7457 124.198 83.2735M127.793 102.76C127.793 104.511 127.678 105.835 128.623 107.369C129.283 108.44 130.262 111.102 131.387 111.668M135.257 121.691C137.281 123.955 138.953 126.558 140.97 128.836C143.48 131.67 145.767 134.893 146.575 138.688C148.773 149.02 147.696 160.165 147.696 170.686M114.803 77.3892C114.803 79.562 114.851 81.9924 113.016 83.4703C112.471 83.9094 111.753 84.2475 111.172 84.6241C110.588 85.002 111.182 84.8446 111.662 84.8346C112.527 84.8164 113.135 84.4319 113.975 84.7765C114.984 85.1907 116.024 85.621 116.821 86.402C117.4 86.9696 117.6 87.6722 117.981 88.3541C118.522 89.3233 118.305 87.7599 118.305 87.3236C118.305 86.5537 118.454 85.8767 118.824 85.1974C119.039 84.8026 119.16 84.3103 119.472 83.9783C119.751 83.6824 120.07 83.4609 120.323 83.1365C120.528 82.8731 120.913 82.7446 120.87 82.7446H119.285C118 82.7446 117.273 81.6121 116.374 80.8579C115.545 80.1617 115.192 79.3565 115.192 78.3035M117.792 71.1172C117.792 71.5747 117.816 72.0425 117.798 72.5042M117.798 72.5042C117.788 72.7384 117.767 72.971 117.727 73.1999C117.643 73.6732 117.61 74.1443 117.403 74.5859C117.352 74.6947 117.112 74.9426 117.222 74.8979C117.692 74.7088 118.022 74.4004 118.57 74.5424C119.141 74.6904 119.244 75.3245 119.737 75.5293C119.903 75.5979 119.842 73.8664 119.874 73.6062C119.907 73.3398 120.506 72.7575 119.989 72.8225C119.132 72.9305 118.151 73.2272 117.798 72.5042ZM117.798 72.5042C117.711 72.3269 117.662 72.0882 117.662 71.7703" stroke="#030500" stroke-linecap="round"/>
</svg>