<svg viewBox="0 0 272 182" fill="none" xmlns="http://www.w3.org/2000/svg">
<path d="M115.81 45.482C115.81 47.2295 116.917 48.5084 117.184 50.212C117.346 51.2422 117.597 52.4078 117.961 53.3809C118.165 53.9255 118.374 54.4747 118.529 55.0356C118.665 55.5265 119.042 55.8565 119.231 56.3079C119.866 57.8237 120.382 59.8062 118.977 61.0066C118.059 61.7915 116.689 61.9848 115.81 62.9033M116.077 60.9369C115.771 60.8971 115.503 60.5357 115.136 60.5155C114.755 60.4945 114.433 60.4228 114.06 60.3672C113.535 60.2888 112.324 60.2088 112.043 60.7964M110.432 61.2162C109.769 61.1393 108.92 60.2876 108.684 59.6707M102.013 34.374C103.452 34.374 104.744 33.8141 106.166 33.8141C107.103 33.8141 108.113 33.8719 108.979 34.234M110.319 34.7932C110.869 34.8506 111.402 35.4375 111.859 35.703C112.491 36.0694 113.072 36.4774 113.668 36.8926M102.923 40.4517H105.069C105.819 40.4517 106.525 40.6256 107.247 40.6535C107.78 40.6741 108.276 40.6788 108.792 40.8329C109.125 40.9323 109.91 41.1294 110.069 41.4606M109.878 42.4688C109.878 42.8996 110.012 43.6212 109.782 43.982M109.202 41.6628C109.202 42.7942 108.974 43.7813 107.705 43.7813C106.752 43.7813 106.788 42.3727 106.788 41.6628M104.083 39.0393C104.109 39.2541 106.146 39.0393 106.347 39.0393C107.285 39.0393 108.293 38.878 109.104 39.4428M109.278 15.6791C109.354 16.3108 110.243 16.5505 110.243 17.292M114.552 22.8355C114.552 23.876 114.93 24.7271 115.292 25.6831C115.707 26.7793 116.103 27.8197 116.455 28.9482C117.088 30.9796 117.405 33.1938 117.512 35.3186C117.599 37.0408 117.819 38.6676 117.612 40.3941C117.448 41.7676 116.444 42.6575 116.138 43.9353M114.93 63.3964C114.595 63.4664 114.433 64.4092 114.527 64.6856C114.721 65.2507 115.091 65.8043 115.091 66.4108C115.091 67.7283 114.273 68.8223 113.32 69.6183M112.945 69.8982C112.945 70.3862 112.998 70.8697 112.998 71.3555C112.998 72.1227 112.644 72.8494 112.17 73.442C111.812 73.8897 111.304 74.2861 110.84 74.6066C110.472 74.8612 109.904 74.9917 109.642 75.3914C109.143 76.1523 109.243 77.2043 109.243 78.0819M109.242 79.1475C109.242 80.785 108.947 82.6494 107.418 83.4636C106.64 83.8776 105.738 84.7003 104.839 84.7497C104.428 84.7723 103.987 84.6689 103.584 84.5847C103.207 84.5058 102.853 84.3131 102.482 84.2484M101.303 83.6873C99.298 83.6873 97.352 83.103 95.4846 82.3731C94.1897 81.867 92.8554 81.3475 91.4845 81.1088M112.135 68.8199C111.996 68.791 111.858 68.5873 111.727 68.5107C111.571 68.4189 111.397 68.3818 111.247 68.2728C110.943 68.0529 110.551 67.9926 110.222 67.8208C109.654 67.5239 108.925 67.52 108.4 67.1547M106.713 66.5835C106.249 66.5835 105.916 66.3883 105.504 66.1764C105.297 66.0697 105.065 65.8792 104.846 65.8222M113.901 65.7459C113.862 65.5637 113.454 65.4071 113.307 65.3323C113.034 65.1935 112.768 65.0671 112.466 65.0107C111.562 64.8421 110.558 64.9705 109.646 64.9705M110.537 72.7748C109.79 72.7748 109.052 71.8495 108.55 71.3963C108.067 70.9615 107.525 70.6105 107.073 70.1384M97.5167 18.5812C97.5595 18.9841 98.0273 19.4322 98.2206 19.7704C98.5714 20.3841 98.6861 21.2083 98.5501 21.9345C98.4088 22.6887 98.0384 23.135 97.6515 23.7606C96.9205 24.942 96.944 25.9591 97.6814 27.1248C98.2281 27.9891 98.7317 28.8014 99.0188 29.8119C99.3047 30.818 99.0337 31.385 98.5501 32.2102C97.9833 33.1774 97.6588 34.5402 97.8462 35.6683C97.9553 36.3255 98.4195 36.8848 98.7298 37.4521M103.602 14.6193C104.974 14.6193 106.483 14.2952 107.393 15.5622M35.3762 33.8074C32.7294 33.8074 30.1638 37.5305 29.5977 39.5979C29.2121 41.0058 28.4246 43.0329 26.8511 43.6912C23.2901 45.1809 20.62 47.7864 19.4378 51.7093C18.7316 54.0525 20.4846 55.8468 20.8824 58.0744M49.7817 78.3873C49.6404 77.5236 50.2736 76.6056 50.7241 75.9342C51.8008 74.3295 52.1851 72.882 51.739 70.9202C51.2548 68.7909 53.9298 67.5954 53.8747 65.1928M23.422 64.9432C23.422 65.0934 23.7087 64.0993 23.9628 63.7503C24.9621 62.3782 25.6424 61.1621 25.8559 59.4338C26.4559 54.5755 31.9506 56.2481 34.1942 52.8884C34.8087 51.968 36.5453 50.0683 36.5453 50.0683C36.5453 50.0683 38.2128 48.3422 39.107 46.7354C40.1224 44.9106 39.7681 44.1257 41.6761 43.3135C42.7232 42.8678 43.5538 42.3098 43.9748 41.2102M72.4388 5.93662C76.2127 2.00659 80.0567 -0.275965 86.4296 1.50025C89.1899 2.26956 92.1421 4.23608 94.8982 4.54586C97.2768 4.81321 98.9356 3.80661 101.371 5.13776M82.4507 63.2512C82.4507 66.1903 81.2908 67.133 80.386 68.8804C79.4394 70.7087 78.5309 75.1054 79.3646 77.7263C79.9259 79.4911 80.9543 80.7497 80.6685 83.2372C80.5272 84.4673 79.1567 86.3689 78.7343 87.5182M94.7763 48.4921C94.7763 50.7078 94.0557 52.8911 93.4775 55.0053M77.0481 19.6024C76.0713 22.122 73.5911 24.0419 72.2151 26.3523C70.4195 29.3671 69.8467 33.1145 66.8056 35.2195C65.046 36.4375 62.5138 36.1751 61.012 37.7149C59.2776 39.4932 58.9226 42.7884 58.25 45.1403M123.906 65.4117C123.528 63.9953 123.951 62.3335 123.801 60.8735C123.606 58.9684 122.682 57.1571 123.278 55.2271C123.623 54.1104 124.742 53.374 124.882 52.2047C125.043 50.8544 124.17 49.3115 123.719 48.0697M59.8432 81.109C60.0723 79.6581 61.1272 78.3381 61.5809 76.9483C62.1729 75.1348 62.0674 73.0857 63.3872 71.5986C64.1508 70.7382 65.4625 70.5638 66.0614 69.5653C66.753 68.4122 66.5849 66.6287 66.6775 65.3039M102.569 93.8142C102.569 95.2176 102.371 96.4564 103.752 97.2065C106.072 98.4668 104.127 99.3348 104.127 101.142M112.18 81.873C112.18 83.8032 111.807 85.7052 111.978 87.6323C112.084 88.8344 112.258 89.3742 113.161 90.0145C113.629 90.3464 113.923 90.8009 114.056 91.3714C114.464 93.122 112.747 95.1784 112.7 97.0704C112.667 98.3518 113.506 98.7554 113.998 99.7843M31.0011 114.178C31.0011 117.289 30.6179 120.721 31.4741 123.732C33.2624 130.021 36.9851 135.664 39.2672 141.757C40.2545 144.393 40.8201 147.235 41.497 149.97C42.0881 152.358 42.6131 154.693 42.5106 157.17C42.3632 160.735 42.1877 164.258 42.9611 167.76M1.20271 171.571C1.20271 174.568 1.69649 177.978 1 180.889M50.8678 174.747C51.0381 176.171 63.3211 170.233 64.7422 169.664C66.1834 169.088 67.2762 168.817 68.8077 168.817C70.2095 168.817 71.2983 168.869 72.5692 168.17C74.7561 166.967 77.0643 166.157 79.3149 165.099C80.5171 164.534 81.7346 163.727 83.0088 163.358C84.1635 163.023 85.1629 162.311 86.3423 162.04C87.5023 161.774 88.645 161.491 89.7884 161.193M92.0175 159.5C93.9248 159.272 95.815 158.274 97.5808 157.547C99.9813 156.558 102.425 155.578 104.766 154.441C107.757 152.988 110.599 151.062 113.46 149.334C115.181 148.295 116.905 147.255 118.618 146.205C119.443 145.699 120.454 145.31 121.411 145.31M123.438 145.733C125.011 145.733 126.523 145.719 128.055 146.156C130.391 146.822 132.998 146.536 135.252 147.321C136.556 147.775 137.976 149.175 139.002 150.039C140.521 151.318 141.234 152.972 142.29 154.628M124.249 150.182C125.649 150.315 126.983 151.449 128.202 152.076C129.6 152.796 130.979 153.523 132.312 154.37C134.042 155.47 135.665 156.755 137.425 157.806M117.964 154.628C121.113 154.628 124.24 154.629 127.379 154.828C129.994 154.994 132.257 156.071 134.541 157.334C136.115 158.205 137.929 158.637 139.542 159.499C141.007 160.283 142.488 161.063 143.945 161.864C145.395 162.661 146.822 163.493 148.281 164.276C148.768 164.538 149.081 165.041 149.587 165.217M105.194 171.783C111.476 171.783 116.91 168.331 121.569 164.159C124.574 161.468 128.358 159.539 132.2 161.1C133.867 161.777 135.942 162.721 137.741 162.9C139.075 163.033 140.012 164.527 141.175 165.112C144.581 166.825 147.759 168.183 151.615 168.183M143.303 157.806C143.376 158.147 144.052 158.469 144.317 158.653M101.951 171.359H95.9599C95.5494 171.359 94.6519 171.151 94.4509 171.571M140.061 149.757C142.003 149.757 143.811 149.214 145.568 150.192C146.847 150.905 148.139 151.634 149.385 152.404C150.752 153.248 152.348 153.402 153.642 154.416M153.844 156.111C152.806 156.328 152.308 157.594 151.119 157.594C150.174 157.594 149.5 157.409 148.585 157.17C147.18 156.803 145.98 155.9 144.519 155.9M149.791 151.875C152.415 151.875 155.151 151.057 157.596 150.075C159.005 149.509 161.751 149.092 161.751 151.24C161.751 153.063 160.914 153.913 159.274 154.464C158.015 154.886 156.89 155.474 155.67 155.899M154.656 157.17C155.796 157.17 156.974 157.529 158.057 157.852C158.99 158.131 159.982 158.121 160.895 158.488C161.621 158.779 161.787 159.854 161.751 160.559C161.695 161.671 159.951 161.905 159.116 162.029C157.343 162.294 156.439 162.6 154.656 161.935C153.975 161.681 153.337 161.842 152.64 161.523C151.758 161.12 150.749 160.882 149.791 160.77M124.857 164.583C126.636 164.583 127.855 165.032 129.294 166.159C130.901 167.418 130.939 168.986 130.939 170.936M124.452 171.571C122.712 171.406 121.278 169.683 119.587 169.241M34.4471 79.6559C36.0922 79.7464 37.6076 82.0303 38.4 83.3622C39.8762 85.8432 41.857 87.5305 44.2561 88.9627C46.0571 90.0379 48.1209 90.1946 50.0559 90.8805C51.558 91.413 52.8454 93.0663 54.1101 94.0573M58.7737 95.328C58.7737 97.8427 60.4582 101.596 63.1208 101.846C65.9675 102.114 68.1221 101.739 70.7337 103.376M73.1663 104.858C73.5844 105.247 74.2266 105.374 74.6979 105.706C76.2058 106.765 77.7702 107.762 79.2702 108.835C81.8611 110.689 83.3682 113.242 83.4933 116.577C83.6113 119.719 83.7801 122.11 85.0137 125.049C86.0535 127.525 87.5588 130.053 87.5588 132.814M87.9642 134.932C87.9642 137.934 90.7284 140.249 90.8022 143.332C90.8909 147.039 91.9342 150.587 92.6266 154.204M80.8689 106.553C81.2148 106.473 81.468 105.957 81.691 105.706C82.2853 105.038 82.9939 104.545 83.6618 103.965C84.8078 102.969 85.8807 101.427 87.2543 100.741C88.2452 100.246 89.3541 99.9924 90.2725 99.3528C90.5504 99.1592 91.3247 98.2049 91.4099 98.2938M78.4356 105.917C78.4356 103.033 80.1815 99.7515 81.3861 97.2107C82.3315 95.2166 83.722 93.5065 84.6746 91.516C85.8637 89.0312 87.8256 87.0961 89.1793 84.7389M89.074 71.3624C88.8961 72.2657 89.0616 73.1978 88.9113 74.1143C88.7427 75.1428 88.2722 75.9303 87.8344 76.8377C86.9448 78.6812 88.1966 79.4261 89.0314 80.9752C90.0207 82.8112 88.8922 84.6379 89.2705 86.6484C89.54 88.0811 90.3002 89.7433 91.9597 89.2808M98.6804 53.556C99.8897 53.3981 97.79 43.6853 98.8831 42.5432M87.7609 88.9761C88.5085 90.4601 89.674 91.6086 90.3511 93.1647C90.9213 94.4753 91.1367 95.876 91.8151 97.1416C93.1878 99.7026 91.2064 101.897 90.5988 104.436M93.6388 105.706C95.9492 107.918 98.4982 109.811 100.835 111.965C102.016 113.054 103.107 114.078 103.662 115.66C104.421 117.824 104.82 120.195 105.081 122.472C105.571 126.753 105.73 131.037 106.86 135.191C107.202 136.447 107.79 137.71 107.986 139.003C108.243 140.692 108.445 142.378 108.842 144.039M115.26 175.068C120.318 175.068 124.865 173.773 129.633 172.154C133.344 170.893 137.26 170.401 141.005 169.423M153.083 165.771C168.358 165.771 183.585 167.431 198.852 167.431M240.488 83.7505C240.313 85.7596 238.959 87.5267 238.104 89.2665C237.303 90.8959 236.79 92.6778 236.215 94.395C235.096 97.7327 234.134 101.677 232.224 104.671M230 110.317C230 111.876 228.857 113.577 228.251 114.984C227.543 116.628 226.948 118.314 226.327 119.983C224.513 124.857 221.773 129.38 220.782 134.557M218.876 138.21C218.76 139.543 217.811 140.767 217.251 141.936C215.903 144.753 214.762 147.651 213.79 150.625C212.094 155.815 210.055 160.69 207.892 165.661C206.393 169.107 204.838 172.745 203.866 176.397C203.517 177.713 202.629 179.757 201.712 180.714M202.984 180.714C204.837 180.714 206.862 180.226 208.529 179.386C211.372 177.951 214.423 177.148 217.446 176.231C221.013 175.149 224.715 174.324 228.341 173.482C231.107 172.84 233.914 172.292 236.516 171.084C239.018 169.922 238.452 167.723 239.854 165.771M270.683 91.0557C270.683 93.9574 269.041 96.6649 267.682 99.099C266.075 101.976 264.484 104.859 263.055 107.843C262.075 109.891 261.414 112.045 260.442 114.116C259.576 115.959 258.29 118.273 257.97 120.277M256.699 123.931C256.699 127.565 254.353 130.554 253.044 133.746C252.008 136.271 250.792 138.988 250.024 141.604C248.324 147.4 244.868 152.379 243.032 158.134M271 89.0639C265.724 89.0639 260.268 86.8178 255.126 85.7433C251.757 85.0395 248.258 84.4568 244.92 83.5849C244.181 83.3919 240.959 82.4328 240.488 83.4189M245.888 120.07C245.888 120.384 245.9 119.441 245.872 119.129C245.826 118.624 245.731 118.039 245.132 118.028C244.16 118.01 243.33 118.887 242.703 119.591C241.314 121.148 240.322 123.052 239.486 124.981C238.439 127.394 237.17 129.779 236.807 132.435C236.673 133.419 236.554 134.578 236.839 135.536C236.974 135.989 237.071 136.628 237.346 137.01M238.143 137.162C239.084 137.162 239.792 136.604 240.387 135.893C240.908 135.268 241.469 134.684 241.947 134.019C242.422 133.357 242.728 132.569 243.129 131.859C243.716 130.822 244.294 129.867 244.714 128.742C245.086 127.744 245.535 126.79 245.872 125.776C246.117 125.037 246.342 124.32 246.451 123.549C246.488 123.286 246.426 123.03 246.539 122.793M187.874 168.187C184.122 168.187 180.11 169.688 176.681 171.2C173.189 172.739 169.469 172.921 165.895 174.029C164.13 174.577 162.284 175.074 160.634 175.936C160.337 176.091 159.458 176.252 159.294 176.524C159.01 176.996 159.814 177.464 160.09 177.68M118.152 178.045C122.454 178.045 126.613 179.289 130.908 179.323C134.027 179.348 137.147 179.323 140.266 179.323C142.442 179.323 144.652 179.184 146.809 179.506M156.072 180.601C168.827 180.601 181.58 180.784 194.339 180.784M88.7314 7.98334C88.4835 7.79175 87.9545 7.88763 87.6688 7.93939L87.6656 7.93997C87.2848 8.00898 86.9173 8.16295 86.5405 8.2538C85.9486 8.39654 85.346 8.4732 84.7618 8.65286C83.9092 8.91509 83.1241 9.38736 82.3019 9.73394C81.8406 9.9284 81.316 10.1267 80.9018 10.416M34.2788 69.0756C33.9824 69.1644 33.7331 69.6613 33.5985 69.9296L33.597 69.9326C33.4175 70.2902 33.3107 70.6886 33.1503 71.0561C32.8983 71.6336 32.5896 72.1797 32.3704 72.7732C32.0504 73.6395 31.931 74.5778 31.6936 75.4702C31.5603 75.971 31.3915 76.5265 31.359 77.0459M68.4132 16.0113C68.1064 16.0434 67.7762 16.4857 67.5978 16.7246L67.5958 16.7272C67.3581 17.0457 67.1849 17.4177 66.9642 17.7494C66.6176 18.2705 66.2205 18.7503 65.9033 19.2934C65.4404 20.086 65.1625 20.9869 64.7764 21.8207C64.5597 22.2885 64.2986 22.8036 64.1778 23.3086M85.3695 46.247C84.3906 48.5658 83.4081 50.6626 83.3494 53.2529C83.2886 55.9321 82.8313 58.1173 81.8001 60.5601M96.7635 58.399C95.7846 60.7178 94.8021 62.8146 94.7434 65.4049C94.6826 68.0842 94.2254 70.2693 93.1941 72.7121M86.9662 19.945C85.4619 21.9331 84.0074 23.7054 83.3286 26.1975C82.6265 28.7751 81.6592 30.7706 80.0745 32.865M38.4872 29.242C42.2474 24.6573 45.5762 20.1258 50.6199 16.8988C53.2093 15.2421 55.891 13.6371 58.4085 11.8893C59.841 10.8948 61.6817 10.3758 62.8031 9.00841M120.792 25.7209C121.727 28.8905 122.732 31.8458 122.892 35.1738C122.974 36.8823 123.018 38.6168 123.149 40.3212C123.224 41.2911 123.036 42.2974 123.315 43.2428M41.5785 70.8995C42.3247 67.6758 42.9063 64.599 44.396 61.6526C45.1609 60.14 45.9715 58.6257 46.6921 57.0904C47.1022 56.2168 47.756 55.4521 47.9786 54.4906M118.959 84.1283C119.84 82.2108 119.017 79.4452 119.001 77.3621C118.988 75.7354 118.708 74.1824 118.188 72.635M117.309 18.6282C116.99 18.1414 116.664 17.7055 116.253 17.2928C114.934 15.9668 113.784 14.6252 112.749 13.0468C112.225 12.2483 111.63 11.6283 110.898 11.0411C110.418 10.6562 109.865 10.3633 109.393 9.99032" stroke-linecap="round"/>
</svg>
