<svg viewBox="0 0 242 137" fill="none" xmlns="http://www.w3.org/2000/svg">
<path d="M159.7 35.8957C159.574 35.8815 159.421 35.5892 159.339 35.4949C159.239 35.3819 159.162 35.2732 159.03 35.1964C158.901 35.1218 158.729 34.9756 158.573 34.9756M157.14 34.4982C156.499 34.4982 155.862 34.5494 155.286 34.8581C155.106 34.9547 154.898 35.0288 154.725 35.1402C154.566 35.2429 154.375 35.2116 154.232 35.3079M156.521 35.8219C156.521 36.331 157.366 36.6504 157.611 36.1531M168.297 36.5959C168.714 36.3725 169.181 36.0958 169.646 35.989C170.201 35.8613 170.761 35.7867 171.33 35.7867C171.93 35.7867 172.378 35.8329 172.913 36.1177C173.179 36.2591 173.47 36.3664 173.727 36.5203C173.857 36.598 174.172 36.6648 174.222 36.8166M170.714 36.4486C170.714 36.5889 170.832 36.9271 170.987 36.9271C171.187 36.9271 171.478 37.0858 171.659 36.9639M161.895 39.3527C161.895 39.9588 161.909 40.4643 161.641 41.0077M159.9 43.1785C159.899 43.1885 159.714 43.312 159.682 43.346C159.548 43.4899 159.444 43.6729 159.337 43.8405C159.132 44.1631 159.064 44.5278 159.064 44.9071M160.083 46.1203C160.328 46.1203 160.548 46.1201 160.782 46.2102C160.945 46.2726 161.062 46.4267 161.202 46.5251C161.567 46.7809 161.95 46.8941 162.376 47.0199C162.71 47.1186 163.154 47.0404 163.5 47.0404C163.692 47.0404 163.981 47.0977 164.157 47.0199C164.37 46.9254 164.566 46.8 164.781 46.7091C164.888 46.6638 165.319 46.6334 165.354 46.5619M166.367 46.5621C166.704 46.5621 167.145 46.6208 167.403 46.3598C167.59 46.1702 167.784 45.835 167.784 45.5691M155.496 46.3776C155.301 46.6 154.97 46.7897 154.733 46.9742C154.504 47.1526 154.368 47.431 154.143 47.6076C153.752 47.9153 153.57 48.3556 153.57 48.8418M153.57 50.755C153.57 51.2711 153.556 51.7644 153.679 52.263M171.203 46.4886C171.203 46.6212 171.317 46.6815 171.401 46.7665C171.589 46.9567 171.768 47.1821 171.912 47.4081C172.089 47.6871 172.24 47.9861 172.437 48.252C172.601 48.4732 172.775 48.7567 172.867 49.0182C172.99 49.3669 172.984 49.687 172.984 50.0562M172.775 52.1898C172.775 52.5147 172.685 52.7695 172.593 53.0807C172.533 53.2828 172.422 53.4406 172.31 53.616C172.208 53.7771 172.041 53.8735 171.939 54.0288M156.136 50.1295C156.332 50.1295 156.517 50.1128 156.703 50.1888L156.718 50.1949C157.03 50.3226 157.33 50.4449 157.648 50.5525C158.27 50.7622 158.914 50.7172 159.553 50.7834C159.9 50.8193 160.244 50.8877 160.587 50.957C160.808 51.0018 161.043 50.9991 161.259 51.0674C161.471 51.1343 161.753 51.0858 161.972 51.0858H162.642M164.16 51.0869C165.279 51.0869 166.385 51.099 167.496 50.9479C167.87 50.897 168.27 50.8661 168.647 50.8661C168.832 50.8661 169.128 50.8983 169.285 50.7925M169.133 51.7478C168.909 51.7684 168.675 51.9932 168.487 52.1074C168.194 52.2855 167.928 52.4744 167.675 52.702C167.502 52.8577 167.27 52.9646 167.075 53.0923C166.812 53.2645 166.538 53.4601 166.261 53.6072C166.033 53.7286 165.741 53.9108 165.478 53.9178C165.267 53.9234 165.056 53.9178 164.846 53.9178C164.606 53.9178 164.365 53.9913 164.117 53.9913M162.656 53.9542H162.636C162.217 53.9543 161.769 53.9543 161.384 53.7703C160.891 53.5346 160.391 53.3025 159.898 53.0531C159.657 52.9312 159.403 52.7476 159.181 52.5913C158.961 52.4367 158.734 52.3033 158.545 52.1112C158.189 51.7517 157.78 51.4477 157.422 51.0854M170.441 50.5679H170.762M147.18 41.5701V44.3537C147.18 44.8286 147.11 45.3629 147.21 45.8273C147.314 46.3133 147.422 46.7705 147.422 47.2667M147.798 48.8593C147.798 50.8969 149.144 52.8614 150.22 54.4947M151.118 56.0255C151.025 56.0389 151.253 56.2152 151.279 56.2365C151.552 56.4611 151.783 56.701 151.999 56.9818C152.493 57.6241 153.09 58.2263 153.694 58.7684C153.903 58.9557 154.051 59.198 154.219 59.4218C154.367 59.6195 154.549 59.7427 154.72 59.9152C155.094 60.2942 155.532 60.5787 155.914 60.9395C156.557 61.5468 157.298 61.9795 158.033 62.4573C158.382 62.6846 158.781 62.8586 159.166 63.0085C159.482 63.1314 159.838 63.3192 160.165 63.3795C161.494 63.624 162.728 64.0499 164.104 64.0499C164.641 64.0499 165.158 64.0202 165.681 63.924C166.316 63.8072 166.868 63.5684 167.524 63.4986M168.935 62.7039C169.131 62.7039 169.5 62.4269 169.648 62.2887C170.022 61.9379 170.394 61.5948 170.754 61.2303C171.354 60.6239 172.059 60.1548 172.658 59.5492C173.307 58.8926 173.733 58.0636 174.37 57.3883C174.707 57.0308 174.937 56.5698 175.291 56.2109C175.583 55.9156 175.751 55.3904 176.078 55.1695M177.095 53.3306C177.095 52.9551 177.222 52.6497 177.411 52.3301C177.814 51.6504 178.274 50.923 178.575 50.193C178.812 49.6168 179.061 49.0983 179.187 48.4813C179.238 48.2291 179.288 46.9534 179.517 46.8376M145.539 37.038C145.23 36.6569 145.214 36.0862 144.842 35.7517C144.549 35.4875 144.295 35.1508 143.938 34.9554C143.573 34.7558 143.326 34.4672 142.898 34.4007C142.6 34.3541 142.161 34.2392 141.903 34.4347C141.381 34.8308 141.301 35.6238 141.301 36.2383C141.301 36.6637 141.304 37.0284 141.408 37.4396C141.513 37.8526 141.714 38.2312 141.846 38.6306M143.017 36.1183C143.612 36.6533 143.927 37.2246 144.288 37.9559M144.205 39.2416C144.205 39.8878 144.267 40.3463 144.629 40.8955M142.465 40.5299C142.465 41.0422 142.694 41.4293 142.915 41.8775C143.099 42.2495 143.316 42.7553 143.601 43.0549C143.768 43.2298 143.839 43.4517 144.008 43.6233C144.162 43.7788 144.323 43.8674 144.499 43.9908C144.912 44.2796 145.472 44.4365 145.942 44.5931C146.187 44.6747 146.503 44.8177 146.763 44.8177M180.054 40.7115C180.054 40.3191 180.462 39.8273 180.707 39.5612C181.097 39.137 181.302 38.5919 181.716 38.1728C182.083 37.801 182.544 37.5369 182.957 37.2234C183.28 36.9784 183.656 36.4849 184.097 36.4849C184.36 36.4849 184.622 36.4789 184.823 36.6823C184.937 36.7973 185.06 37.0087 185.17 37.0975C185.26 37.1704 185.261 37.5586 185.261 37.6794C185.261 37.8339 185.321 38.2933 185.321 38.1388M185.026 39.6101C185.026 40.0989 184.842 40.7032 184.65 41.1415C184.331 41.8664 184.004 42.5826 183.604 43.2582C183.415 43.5767 183.266 43.9639 182.998 44.2348C182.803 44.4319 182.74 44.7498 182.571 44.9699C182.333 45.2797 181.883 45.8581 181.454 45.8581M179.873 45.1227C179.873 44.6144 180.02 44.0643 180.176 43.5913M181.878 41.4463C181.878 41.0631 181.875 40.8201 182.06 40.4934C182.264 40.1328 182.539 40.0002 182.847 39.7924M182.488 41.6315V42.1831M147.611 38.3855C147.611 37.9064 147.731 37.44 147.826 36.9732L147.827 36.9674C147.919 36.5169 148.031 35.9644 148.351 35.6154C148.622 35.3188 148.834 35.0194 149.188 34.8021C149.433 34.6514 149.742 34.3427 150.032 34.3427M151.31 33.4229C153.089 33.4229 154.651 32.2097 156.055 31.2212C156.747 30.7344 157.464 30.2979 158.198 29.8702C158.568 29.6545 158.953 29.4758 159.341 29.2961L159.365 29.2849C159.606 29.1732 159.945 28.8289 160.209 28.8289M161.585 28.1551C161.978 28.1551 162.46 28.0628 162.796 27.8489C163.557 27.3643 164.395 27.0298 165.157 26.5489C165.792 26.149 166.442 25.7791 167.068 25.3646C167.33 25.191 167.658 24.8209 167.942 24.7249M169.21 23.5613C169.21 24.6019 168.357 25.5866 167.848 26.4164C167.602 26.8159 167.442 27.2211 167.124 27.5734C166.776 27.9591 166.459 28.3674 166.122 28.7611C165.771 29.1706 165.387 29.5649 165.012 29.9522C164.668 30.3079 164.249 30.6289 163.929 31.0003C163.648 31.3273 163.324 31.5988 163.021 31.9055C162.826 32.1033 162.656 32.3518 162.429 32.5044M160.494 32.8104C160.28 32.8104 160.162 32.672 159.996 32.5652C159.801 32.4402 159.461 32.2966 159.222 32.2621C158.87 32.2111 158.565 32.0333 158.193 32.0135C157.604 31.9821 157.03 32.0135 156.437 32.0135M167.826 32.6871C168.379 32.6871 168.847 32.2779 169.373 32.1358C170.119 31.9344 170.898 31.8908 171.667 31.8908C172.686 31.8908 173.559 32.147 174.526 32.442C175.001 32.587 175.586 32.7758 175.999 33.0546M171.279 22.396C171.279 23.2693 170.688 24.0215 170.31 24.7849C170.102 25.2066 169.93 25.6443 169.705 26.0577C169.565 26.3159 169.492 26.5928 169.281 26.8063M172.5 23.2543C172.5 23.4546 172.483 23.6622 172.594 23.8396C172.805 24.1745 172.907 24.5777 173.092 24.9286C173.321 25.362 173.5 25.7871 173.65 26.2558C174.01 27.3807 174.014 28.635 174.014 29.8085M142.389 31.8922V28.3054C142.389 26.9736 142.308 25.6412 142.57 24.3307C142.825 23.0547 143.274 21.8643 143.902 20.7303C144.227 20.1428 144.637 19.6024 145.042 19.0696C145.229 18.8245 145.319 18.4345 145.597 18.2937M146.579 16.8237C146.814 16.7973 147.072 16.5635 147.279 16.4562C147.897 16.135 148.349 15.5858 148.954 15.2447C150.005 14.6521 151.054 14.0575 152.085 13.4241C152.911 12.9167 153.75 12.4292 154.662 12.1037C155.238 11.8979 155.803 11.822 156.407 11.7123C156.688 11.6613 156.95 11.5558 157.234 11.5558M158.502 11.1873H159.484C159.736 11.1873 159.993 11.202 160.244 11.1873C160.699 11.1606 161.188 10.9404 161.643 10.8502C162.25 10.7299 162.857 10.5788 163.466 10.4824C164.017 10.3952 164.605 10.4517 165.161 10.4517M149.123 26.2566C149.123 25.6161 149.943 24.8487 150.307 24.3577C150.613 23.9439 151.017 23.6842 151.38 23.3265C151.751 22.9606 152.058 22.6412 152.362 22.2138C152.911 21.4407 153.724 20.945 154.471 20.3897C155.166 19.8722 155.822 19.1869 156.69 18.9673M158.204 16.7004C158.767 16.5034 159.272 16.1654 159.778 15.8565C160.448 15.448 161.204 15.1835 161.877 14.7777C162.748 14.2524 163.66 13.3314 164.743 13.3314M165.839 12.2303C166.805 12.2303 167.845 12.0183 168.775 11.7743C170.127 11.4195 171.776 11.4731 173.158 11.5633C174.592 11.6569 175.917 12.6614 177.052 13.469C177.803 14.0031 178.48 14.6058 179.215 15.1637C179.468 15.3554 180.04 15.6692 180.187 15.9668M181.269 16.8845C182.32 17.8299 183.101 19.1343 183.842 20.3454C184.642 21.6538 184.86 23.4518 185.009 24.9565C185.126 26.1373 185.143 27.3244 185.143 28.5127V31.834C185.143 32.424 185.085 32.9818 184.965 33.5594C184.933 33.7142 184.934 34.1419 184.78 34.2195M174.662 26.3794C175.358 27.0842 175.976 27.8038 176.538 28.6186C176.962 29.2322 177.46 29.8048 177.894 30.4154C178.319 31.0137 178.53 31.7145 178.835 32.3721C179.333 33.4412 179.473 34.7173 179.569 35.8772C179.65 36.8645 180.171 37.8146 180.171 38.814M151.427 58.1082C151.427 58.5318 151.366 58.8851 151.276 59.3026C151.171 59.789 151.164 60.2781 151.121 60.7727C151.078 61.2703 151.003 61.7862 151.003 62.2871C151.003 62.5596 151.059 62.8957 150.943 63.131M150.584 60.1301C150.103 60.1301 149.84 60.8055 149.555 61.1102C149.198 61.4908 149.252 62.0586 149.252 62.5463C149.252 62.9854 149.335 63.4301 149.555 63.819C149.697 64.0708 149.734 64.7439 150.039 64.8467M151.422 66.3787C151.446 66.599 151.799 67.0905 151.946 67.2669C152.279 67.6642 152.707 67.9969 153.05 68.3933C153.637 69.0734 154.29 69.6842 154.906 70.3364C155.265 70.7165 155.599 71.113 155.982 71.4696C156.302 71.7671 156.653 72.0218 156.951 72.3442C157.536 72.977 157.6 73.8793 158.111 74.5561C158.416 74.9588 158.717 75.2945 159.097 75.6281C159.259 75.7706 159.482 76.0569 159.716 76.0569M164.735 83.5287C164.735 83.1394 164.483 82.6673 164.204 82.4126C164.113 82.3302 163.974 82.3649 163.854 82.3649C163.625 82.3649 163.426 82.3003 163.208 82.2288C162.215 81.9027 161.206 81.6972 160.195 81.4733C159.639 81.3503 159.027 81.2997 158.499 81.1092C158.226 81.0103 157.928 81.0884 157.659 80.922C157.325 80.7156 157.08 80.2552 156.804 79.976M162.195 83.5905C162.69 83.5905 163.182 84.3488 163.507 84.6726C163.855 85.0206 164.202 85.302 164.468 85.7207C164.697 86.0801 164.725 86.6343 164.785 87.0479C164.869 87.6308 165.04 88.2064 165.04 88.7971M165.161 92.8402V90.2913C165.161 89.7639 165.144 89.2346 165.191 88.7089C165.231 88.2708 165.352 87.8773 165.43 87.4498C165.553 86.7744 165.869 86.1466 166.012 85.4726C166.158 84.7855 166.494 84.3145 166.947 83.8018C167.844 82.7875 167.907 81.2532 168.962 80.3715C169.465 79.9511 169.967 79.525 170.428 79.0579C170.675 78.8082 170.936 78.4986 171.276 78.3841M172.312 77.3416C172.312 77.0753 172.456 76.9426 172.661 76.7903C172.813 76.6785 172.908 76.4655 173.038 76.3275C173.336 76.0116 173.591 75.6588 173.859 75.3168C174.248 74.8191 174.718 74.3639 175.002 73.7888C175.161 73.4678 175.399 72.924 175.399 72.5637M175.405 67.6645V71.0948M175.405 57.496C175.405 58.9422 175.527 60.353 175.527 61.7974C175.527 62.4851 175.648 63.1228 175.648 63.8086C175.648 64.3267 175.748 64.9701 175.587 65.4591M177.042 65.2749C177.241 65.3153 177.541 65.5873 177.705 65.7071C177.978 65.907 178.246 66.1699 178.475 66.4218C178.915 66.9055 179.52 67.3399 179.874 67.8953C180.118 68.279 180.361 68.6503 180.587 69.0455C180.957 69.6921 181.031 70.5052 181.223 71.2166C181.386 71.8226 181.755 72.4064 182.006 72.9794C182.351 73.7658 182.824 74.4827 183.187 75.2594C183.685 76.3259 184.113 77.423 184.367 78.5808C184.527 79.3066 184.488 80.0927 184.488 80.8336M174.984 76.4239C175.012 76.3103 175.229 76.379 175.317 76.3592C175.584 76.2991 175.834 76.0983 176.087 75.9949C176.514 75.8202 177.015 75.8723 177.466 75.8723H178.448C178.804 75.8723 179.04 76.138 179.342 76.2401M180.295 76.9137C180.491 77.1124 180.747 77.2174 180.934 77.4412C181.21 77.7715 181.508 78.0753 181.808 78.3838C181.97 78.5499 182.089 78.7724 182.279 78.9079C182.543 79.0959 182.7 79.3774 182.895 79.6361C183.031 79.8172 183.247 80.1838 183.443 80.2827M160.729 79.8548C160.641 79.8449 160.589 79.7773 160.534 79.7118C160.286 79.4158 160.069 79.1097 159.774 78.8577C159.48 78.6068 159.2 78.343 158.852 78.1669C158.464 77.9703 158.24 77.8334 157.789 77.8334C157.059 77.8334 156.247 78.1888 155.657 78.6297C155.384 78.8343 155.046 78.9511 154.766 79.1537C154.372 79.4382 154.052 79.862 153.767 80.2495C153.277 80.9151 152.869 81.6004 152.102 81.968C151.881 82.074 151.72 82.2533 151.513 82.3798C151.107 82.6287 150.711 82.9046 150.343 83.2101C149.508 83.9042 148.766 84.8016 148.11 85.6671C147.84 86.0238 147.537 86.3514 147.303 86.7357C147.177 86.9421 147.088 87.2252 146.926 87.3891M146.572 87.204C146.572 85.9696 146.512 84.7302 146.512 83.5015C146.512 82.7217 146.459 81.9366 146.451 81.1534C146.443 80.3223 146.159 79.6034 145.967 78.8121C145.729 77.8375 145.78 76.8117 145.59 75.8311C145.438 75.0469 145.422 74.1604 145.422 73.3605M149.483 61.1704C149.266 61.1949 148.915 61.6234 148.757 61.783C148.412 62.1325 148.155 62.5042 147.879 62.9128C147.641 63.2643 147.421 63.5475 147.274 63.9609C147.048 64.5965 146.801 65.2658 146.625 65.9143C146.285 67.1646 146.432 68.5305 146.06 69.7699C145.955 70.1173 145.733 70.4313 145.579 70.7602C145.424 71.0905 145.367 71.5891 145.367 71.9512M147.602 62.518C147.582 62.6843 146.398 62.5688 146.207 62.5826C145.525 62.6319 144.796 63.0748 144.185 63.3755C143.682 63.6234 143.168 63.8186 142.668 64.0834C142.284 64.2871 141.849 64.4939 141.427 64.6006M181.814 71.4005C181.437 71.4005 182.563 71.5112 182.924 71.6217C183.951 71.9364 184.954 72.4028 185.927 72.8558L185.937 72.8604C186.599 73.168 187.166 73.2888 187.673 73.8099C188.138 74.2886 188.578 74.8765 189.26 75.0145M113.535 63.3496C112.624 63.3496 112.082 63.5868 111.445 64.2688C111.01 64.7351 110.557 65.1534 109.921 65.3514C109.307 65.5425 109.153 66.1033 108.72 66.5667C108.317 66.9987 107.789 67.2332 107.357 67.6697M106.088 69.5992C106.088 70.0276 105.895 70.5667 105.77 70.9728C105.657 71.3377 105.547 71.7274 105.31 72.035C104.681 72.8533 104.271 74.0837 104.271 75.1142C104.271 75.8009 103.81 76.3009 103.544 76.9066C103.299 77.4646 103.09 78.0903 103.09 78.699M102.173 81.4556C102.173 82.4478 101.9 83.3937 101.9 84.351C101.9 84.6357 102.039 85.4819 101.718 85.5C101.321 85.5223 100.826 85.708 100.406 85.5868C100.251 85.5418 100.16 85.3235 100.038 85.2242C99.9209 85.1296 99.7168 85.0855 99.5785 85.0455C99.3745 84.9865 99.1421 85.1038 98.9476 84.9944C98.6381 84.8204 98.4353 84.7518 98.1754 84.4889C97.868 84.1778 97.5578 83.9338 97.2215 83.6616C97.0483 83.5214 97.0853 83.2613 97.0853 83.0641C97.0853 82.8607 96.7742 82.8149 96.6311 82.7424M97.3578 81.4575C97.3578 81.1156 97.427 80.756 97.1761 80.4872C97.0054 80.3044 96.7408 80.2088 96.6311 79.9868M97.4516 78.5167C97.1679 78.5167 96.978 78.3262 96.7248 78.2407M97.9093 77.1373C97.8362 76.4721 97.0917 76.3158 97.0917 75.5747M98.1692 74.6549C98.1692 74.214 98.0784 73.7757 98.0784 73.3221C98.0784 72.9384 97.8967 72.6139 97.8967 72.265M98.4531 70.7035C98.4531 70.184 98.9628 69.7063 99.0789 69.2073C99.1512 68.8963 99.1773 68.6702 99.3615 68.3851C99.7246 67.8232 100.051 67.2507 100.088 66.5672C100.105 66.2618 100.282 66.0928 100.452 65.8778C100.584 65.7101 100.881 65.628 100.977 65.4642C101.195 65.0879 101.719 63.9935 102.178 63.9935M103.273 62.7968C103.273 62.5263 103.25 62.2902 103.364 62.0609M104.278 61.6028C104.278 61.3589 104.322 61.0863 104.207 60.8674C104.072 60.6099 103.835 60.6036 103.642 60.4078M104.908 60.5002C104.99 60.4897 105.089 59.7907 105.089 59.6724M106.707 59.5807V58.8913C106.707 58.6161 106.889 58.4399 106.889 58.2019M108.254 58.477C108.647 58.4328 109.077 57.9943 109.435 57.8132C109.599 57.7304 109.744 57.7791 109.909 57.7213C110.153 57.636 110.339 57.4267 110.545 57.2821C111.331 56.7317 112.034 56.5468 112.978 56.5468M114.541 55.6282C114.288 55.5548 114.808 55.243 114.859 55.2143C114.975 55.1494 115.231 55.0763 115.359 55.0763M115.893 55.7208C116.835 55.7208 117.956 55.0599 118.87 55.6289C119.162 55.8102 120.345 55.8465 120.617 55.6749C121.045 55.4036 121.829 56.1405 122.161 56.3642M123.527 57.0063C124.003 57.0063 125.071 57.0198 125.071 56.3624M126.158 58.1113C126.172 57.8578 126.263 57.6104 126.34 57.3755M127.263 57.3755C127.515 57.4074 127.225 58.3866 127.944 58.3866C128.737 58.3866 129.045 59.1897 129.736 59.4691C130.022 59.5849 130.109 59.7856 130.311 59.99C130.596 60.2781 131.091 60.2968 131.437 60.4496C132.219 60.7961 132.28 61.6447 132.623 62.339M133.698 63.8095C133.419 63.7742 133.877 63.3811 133.971 63.3496M134.624 65.0042C134.706 64.7553 135.163 64.7401 135.26 64.5443M135.433 66.4752C135.433 66.8429 135.536 67.1337 135.658 67.4797L135.66 67.4863C135.753 67.749 135.742 67.9848 135.817 68.2421C135.999 68.8655 136.209 69.2614 136.564 69.8251C137.175 70.7975 136.978 71.7587 136.978 72.8175M136.699 74.1032C136.972 74.1032 137.357 74.045 137.517 74.328C137.642 74.551 137.951 74.2513 138.062 74.1952M136.793 75.5747C136.847 76.0151 137.435 76.14 137.61 76.4945M136.704 77.5051C136.704 77.7223 136.662 77.9838 136.709 78.1945C136.75 78.3815 136.885 78.5126 136.885 78.7M136.789 80.9979C136.789 81.6642 136.548 82.4737 136.88 83.061C137.007 83.287 137.166 83.621 137.016 83.8933C136.925 84.0584 136.746 84.4689 136.607 84.3989M115.705 63.1652C116.168 63.1652 116.487 63.6649 116.977 63.7171C117.188 63.7395 117.402 63.8892 117.613 63.901C117.995 63.9225 118.4 63.8574 118.774 63.7886C119.348 63.6828 119.982 63.4574 120.56 63.4411C121.053 63.4273 121.816 63.3152 122.246 63.5331M123.437 63.8092C124.639 63.8092 125.103 64.8235 126.072 65.2594C126.563 65.4804 127.043 65.9318 127.546 66.1276C127.913 66.2706 128.448 66.7787 128.616 67.1182M129.892 68.4968C130.205 68.8529 130.665 69.2402 130.891 69.6407C130.937 69.722 131.332 70.069 131.436 70.1309C131.705 70.2911 131.783 70.7019 131.981 70.9275C132.406 71.4106 132.569 72.3977 132.754 72.9957C132.944 73.6125 133.162 74.3833 133.162 75.0229M133.422 77.2277C133.422 78.3847 134.058 79.4315 134.058 80.5827C134.058 81.5007 134.164 82.3481 134.325 83.2431C134.422 83.7825 134.603 84.4029 134.603 84.9487M134.971 87.4326C135.108 87.3908 135.157 87.2611 135.244 87.156M98.7225 86.4207C98.7225 86.8569 98.7012 87.4738 98.9748 87.8198C99.0397 87.9019 99.0652 88.28 99.0909 88.3969C99.1479 88.6562 99.3205 88.9174 99.3533 89.1833C99.4258 89.7696 99.6551 90.2748 99.8126 90.8327C99.9727 91.3996 100.511 91.7232 100.903 92.1195M101.818 89.7285C101.818 91.8816 102.473 93.8121 103.09 95.841C103.337 96.6538 103.624 97.4382 103.907 98.2258C104.25 99.1795 105.205 99.7087 105.633 100.575M106.454 102.045C106.856 102.096 107.767 102.863 108.069 103.169C108.55 103.655 109.069 104.122 109.725 104.343M110.076 102.874C110.076 103.494 110.749 104.03 111.106 104.487C111.264 104.691 111.395 104.943 111.575 105.126C111.775 105.328 112.012 105.476 112.211 105.677C112.451 105.92 112.785 106.04 113.074 106.203C113.311 106.336 113.468 106.527 113.71 106.663C114.289 106.988 114.737 107.236 115.39 107.383C115.877 107.492 116.284 107.745 116.799 107.745C117.272 107.745 117.793 107.903 118.252 107.929C118.817 107.961 119.186 108.047 119.756 107.837C120.029 107.737 121.053 107.684 121.159 107.469M123.25 106.549C123.865 106.22 124.504 105.542 124.976 105.038C125.3 104.692 125.884 103.985 125.884 103.516M125.971 104.621C126.591 104.551 127.152 103.794 127.561 103.38C127.888 103.048 128.471 102.68 128.696 102.282C128.923 101.879 129.418 101.614 129.625 101.22C129.855 100.779 130.086 100.31 130.24 99.841M131.068 98.2767C131.094 97.834 131.846 96.9292 132.118 96.5762C132.678 95.8474 133.062 95.1253 133.359 94.2528C133.657 93.38 133.751 92.4297 133.889 91.5208C134.006 90.754 134.157 90.0508 134.157 89.2688M134.343 90.8313C134.367 91.0228 135.46 90.2121 135.595 90.0755C135.847 89.8201 135.688 88.9561 135.978 88.8091M107.875 79.986C107.895 80.148 108.875 79.659 109.007 79.5776C109.267 79.4164 109.556 79.3345 109.855 79.3176C110.356 79.2895 110.87 79.2222 111.364 79.2222M112.552 79.3168C112.818 79.3168 113.096 79.4773 113.296 79.6616C113.408 79.7647 113.667 79.9026 113.731 80.0329M110.812 80.2712H111.33M107.076 76.0255C107.681 76.0255 108.128 75.4136 108.669 75.225C109.007 75.1068 109.376 75.1066 109.714 74.9998C109.927 74.9324 110.202 74.8805 110.424 74.8805M112.175 74.7371C112.652 74.7371 113.225 74.6595 113.674 74.8326C113.974 74.9484 114.421 75.0672 114.533 75.4054M123.152 76.073C123.266 76.0601 123.425 75.9651 123.529 75.9191C123.817 75.7924 124.133 75.7515 124.423 75.6194C124.706 75.4904 125.004 75.3091 125.321 75.3091M126.986 75.4053H127.457C127.702 75.4053 127.852 75.5741 128.07 75.5961C128.33 75.6224 128.798 75.8723 129.003 76.0255C129.213 76.1825 129.475 76.3245 129.72 76.4071M113.072 86.4829C113.006 86.4913 113.036 86.7056 113.036 86.7574C113.036 86.9627 113.061 87.0799 113.162 87.2638C113.242 87.4095 113.402 87.449 113.539 87.5161C113.639 87.5657 113.75 87.6815 113.862 87.6815M115.147 87.0536C115.31 87.0536 115.479 87.0395 115.639 87.0733C115.76 87.0988 115.883 87.1708 116.004 87.1803C116.312 87.2042 116.586 87.4954 116.863 87.6054C117.072 87.688 117.252 87.8145 117.451 87.9151C117.638 88.01 117.861 88.0414 118.063 88.0925C118.354 88.1661 118.654 88.1431 118.953 88.1431M120.441 87.9414C120.777 87.9414 121.069 87.9198 121.343 87.7019C121.514 87.5657 121.661 87.4053 121.844 87.2821M123.386 87.8654C123.805 87.8654 123.862 87.328 123.862 87.0033M110.6 93.0017C110.939 93.0017 111.285 93.0557 111.637 93.0557C111.956 93.0557 112.195 92.8694 112.467 92.7316M113.496 92.3545C113.916 92.3545 114.27 92.2336 114.67 92.1264C115.086 92.0149 115.594 91.9646 115.98 91.7872C116.122 91.7216 116.342 91.7602 116.496 91.7602C116.698 91.7602 116.893 91.7062 117.1 91.7062H118.191M119.457 91.8141H120.37C120.764 91.8141 121.107 91.9725 121.485 92.027C121.688 92.0565 121.87 92.1814 122.072 92.234C122.384 92.3154 122.793 92.4263 123.085 92.5699C123.489 92.7682 123.915 92.9293 124.336 93.0827C124.482 93.1358 124.961 93.2827 125.059 93.4066C125.183 93.5634 126.086 93.4336 126.287 93.4336M111.468 94.2964C111.468 94.2375 111.493 94.367 111.524 94.4044C111.615 94.5117 111.693 94.6374 111.8 94.7283C112.094 94.9774 112.402 95.2136 112.698 95.4571C113.017 95.7191 113.325 96.0579 113.736 96.1859C114.087 96.2952 114.389 96.4681 114.734 96.5757C115.178 96.7137 115.646 96.7797 116.11 96.7797M117.285 97.0513C118.666 97.0513 120.17 97.4288 121.529 96.9973C122.054 96.8307 122.481 96.7306 122.943 96.4035C123.175 96.2394 123.487 96.1301 123.74 96.0016C123.865 95.9386 124.217 95.8163 124.274 95.7017M125.123 94.947C125.134 94.8537 125.361 94.7042 125.444 94.6763M113.645 94.4054C114.165 94.4054 114.523 94.1929 115.005 94.0843C115.42 93.991 115.828 93.9733 116.259 93.9733M118.405 93.9185H119.259M110.29 88.6825C110.273 88.8298 110.124 88.9159 110.023 89.0034C109.877 89.1297 109.76 89.2888 109.649 89.4503C109.513 89.6497 109.424 89.9383 109.276 90.1161C109.054 90.3825 108.962 90.9864 108.956 91.3277C108.95 91.6513 108.956 91.9758 108.956 92.2994M109 93.7569C109 94.0377 109.107 94.2917 109.107 94.5672M126.517 89.6001C126.922 90.0096 127.13 90.5797 127.507 91.0037C127.831 91.3675 128.004 91.8396 128.118 92.2993M128.109 93.8121C128.109 94.1189 128.087 94.612 127.736 94.7305M123.902 80.4239C124.043 80.4239 124.165 80.2596 124.305 80.2079C124.484 80.142 124.65 80.0305 124.836 79.9888C125.228 79.9006 125.5 79.6136 125.93 79.6136C126.24 79.6136 126.56 79.5596 126.878 79.5596C127.222 79.5596 127.557 79.6565 127.892 79.7337C128.359 79.8412 128.622 80.2204 129.024 80.4239M125.818 80.7466H126.458M103.458 98.1304V101.396C103.458 102.351 103.618 103.338 103.722 104.285C103.795 104.944 103.791 105.688 103.98 106.324C104.099 106.724 104.099 107.141 104.099 107.554V107.566C104.099 107.681 104.051 107.958 104.152 108.009M103.188 106.065C103.002 106.421 102.56 106.792 102.228 106.97C102.076 107.052 101.906 107.122 101.748 107.21C101.552 107.32 101.453 107.559 101.268 107.684M99.468 107.47C99.7353 107.47 99.8529 107.639 100.046 107.815C100.342 108.085 100.634 108.379 100.916 108.665L100.917 108.667C101.343 109.097 101.716 109.583 102.139 110.01C103.144 111.027 104.005 112.116 104.643 113.408C104.97 114.07 105.337 114.757 105.734 115.376C106.208 116.112 106.771 116.757 107.287 117.457C107.667 117.972 107.961 118.47 108.42 118.927C108.698 119.203 109.011 119.399 109.327 119.628C109.465 119.729 109.604 119.886 109.765 119.94M111.25 121.181C111.636 121.181 111.888 121.312 112.216 121.478L112.228 121.484C112.775 121.761 113.326 122.04 113.852 122.357C114.797 122.926 115.989 123.129 117.036 123.421C118.038 123.702 119.063 123.81 120.077 124.015C120.43 124.087 120.864 124.075 121.209 123.976C122.144 123.709 123.049 123.327 123.948 122.963M125.718 122.316C125.731 122.215 126.104 122.267 126.192 122.25C126.647 122.162 126.977 121.871 127.372 121.672C127.747 121.482 128.113 121.241 128.516 121.117C128.878 121.005 129.15 120.656 129.488 120.505C129.96 120.295 130.376 119.941 130.787 119.629C131.094 119.396 131.421 119.205 131.726 118.963C132.114 118.656 132.44 118.286 132.826 117.974C133.288 117.6 133.706 117.162 134.044 116.669C134.422 116.119 134.62 115.434 134.785 114.792C134.85 114.542 135.055 114.381 135.174 114.165C135.459 113.645 135.749 113.163 135.749 112.545C135.749 112.143 135.99 110.602 135.375 110.602M134.723 110.816C134.421 110.816 134.244 110.683 134 110.504C133.688 110.276 133.325 110.112 133.004 109.898C132.506 109.568 132.051 109.166 131.563 108.819C131.25 108.596 130.853 108.108 130.455 108.063C130.203 108.035 129.814 107.668 129.814 107.415M129.564 107.199C129.564 106.109 129.536 105.027 129.668 103.957C129.749 103.299 129.724 102.629 129.724 101.963M98.954 107.31C98.5392 107.31 98.0728 107.257 97.6641 107.333C96.7774 107.499 95.8928 108.034 95.0271 108.326C94.3355 108.56 93.6507 108.799 92.9724 109.077C90.8767 109.935 88.7235 110.589 86.6826 111.572C85.8149 111.99 84.4642 112.508 83.492 112.508H80.5183C79.6773 112.508 78.8434 112.3 77.9955 112.3C77.2157 112.3 77.0633 113.03 76.4544 113.235M74.2794 114.794C74.2794 115.238 73.774 115.619 73.5203 115.921C73.209 116.291 72.9111 116.656 72.6356 117.058C72.0818 117.868 71.5247 118.715 70.8833 119.472C70.5791 119.831 70.1738 120.21 69.9416 120.616C69.7152 121.011 69.2544 121.312 69.1425 121.765C68.8861 122.802 68.7336 123.863 68.606 124.924C68.5588 125.316 68.697 127.182 68.3206 127.372M135.421 110.324C136.55 110.324 137.287 110.921 138.321 111.283C138.918 111.492 139.664 111.888 140.147 112.299C140.725 112.792 141.533 113.001 142.202 113.339C142.962 113.723 143.745 114.137 144.513 114.482C145.685 115.009 146.773 115.634 147.955 116.099C148.629 116.364 149.24 116.618 149.861 116.977C150.321 117.243 150.738 117.639 151.243 117.809M152.781 118.536C153.169 118.58 153.869 119.021 154.14 119.24C154.377 119.433 154.948 119.697 155.247 119.783C155.818 119.948 156.398 120.273 156.988 120.459C157.649 120.668 158.356 120.703 158.945 121.112C159.508 121.502 160.238 121.704 160.692 122.301C161.058 122.782 161.5 123.203 161.868 123.681C162.18 124.088 162.532 124.556 162.901 124.929C163.359 125.393 163.601 125.982 163.877 126.54M164.49 127.996C164.49 129.354 165.411 130.47 165.745 131.785C166.105 133.201 166.133 134.543 166.133 136M70.9671 11.201C70.5812 11.201 70.3757 11.536 70.1148 11.7927C69.759 12.1427 69.3448 12.4117 69.0494 12.8255C68.5798 13.4834 67.9895 14.1135 67.7114 14.9013C67.4798 15.5574 67.2276 16.2689 66.9136 16.8868C66.6333 17.4382 66.1854 17.8775 65.9027 18.421C65.4825 19.2288 65.0801 20.0634 65.0801 20.9931V23.9262M64.4669 26.1831C64.4669 27.3349 63.8426 28.3891 63.8426 29.5223C63.8426 30.6597 63.7534 31.8004 63.7534 32.9518C63.7534 33.5424 63.9318 34.1328 63.9318 34.7066C63.9318 35.0585 64.07 35.6584 64.2439 35.9752C64.5565 36.5445 64.5398 37.3411 64.8237 37.9155M65.447 39.9008C65.447 41.034 66.2602 41.8423 66.6957 42.8339C66.9184 43.3409 67.4754 43.9387 67.8553 44.323C68.2568 44.7293 68.4453 45.2775 68.7869 45.7219C69.0959 46.1239 69.2715 46.6453 69.555 47.0756C69.8272 47.4888 70.1948 47.9336 70.5312 48.294C70.8118 48.5946 71.0534 48.8904 71.3786 49.1463C72.0076 49.6413 72.7918 49.7764 73.4549 50.1892C73.8171 50.4148 74.3964 50.4378 74.8127 50.46C75.32 50.487 75.7659 50.7307 76.2844 50.7307C77.4337 50.7307 78.5153 50.9257 79.5847 50.3246C80.0805 50.0459 80.7591 49.8466 81.1903 49.5073C81.7707 49.0506 82.4447 48.3593 83.1278 48.0934C83.3522 48.0061 83.5846 47.7616 83.7522 47.592C83.895 47.4476 84.1465 47.4092 84.2675 47.2561C84.5375 46.9147 85.0289 46.533 85.4271 46.3987M86.4959 45.4065C87.028 45.4065 87.5784 45.047 87.928 44.6343C88.1789 44.3382 88.6699 44.0537 88.9884 43.8321C89.4919 43.4819 90.0488 42.7877 90.3313 42.2477C90.6687 41.603 91.1817 41.0742 91.5355 40.4377C91.8304 39.9072 92.0275 39.2666 92.2937 38.728M91.593 34.8465C91.611 34.7005 92.2204 34.2874 92.3661 34.1596C92.6796 33.8847 92.93 33.5989 93.2432 33.3524C93.4927 33.1561 93.4817 32.9513 93.8229 32.9513H94.6257M92.5529 37.7344C93.1559 37.7344 93.362 37.6561 93.8711 37.2831C94.1637 37.0687 94.6704 36.4511 94.7829 36.1099M92.112 32.5903C92.112 31.8164 91.988 30.8838 92.2458 30.1535C92.3819 29.768 92.2904 29.2248 92.2904 28.8198C92.2904 28.3223 92.3205 27.8334 92.2012 27.3508C91.916 26.1964 91.5768 25.0555 91.5768 23.8561C91.5768 23.0305 91.4982 22.2599 91.4034 21.4445C91.3706 21.1626 91.4415 20.8655 91.3786 20.5871C91.3258 20.3534 91.22 20.2001 91.22 19.9553M89.982 16.5269C89.7753 16.2916 89.872 15.6649 89.8036 15.3536C89.661 14.7039 89.1222 14.1704 88.7531 13.6389C88.4421 13.191 88.2722 12.6083 87.8413 12.245C87.4029 11.8753 86.7987 11.4335 86.2407 11.2924C85.7135 11.159 85.3341 10.8173 84.8582 10.5704C84.5445 10.4077 84.2317 10.244 83.9216 10.074C83.6582 9.92966 83.446 9.66717 83.1585 9.57765C82.467 9.3624 82.0198 8.71457 81.2407 8.67516C80.2173 8.62338 78.9699 8.68553 77.9801 8.40441C77.3822 8.23461 76.0264 7.98248 75.4033 8.26904C75.0819 8.41684 74.3862 8.46557 74.1942 8.80552C74.046 9.06791 73.2971 9.31034 73.0346 9.4874M89.4363 44.3237C89.4363 45.7831 89.3471 47.258 89.3471 48.7008C89.3471 49.5819 89.5255 50.4439 89.5255 51.2729M69.5547 47.4823C69.5547 48.2352 69.7049 49.2541 69.3763 49.919M68.6467 49.4663C68.6467 50.1086 69.1756 50.8273 69.7617 51.0908C70.0826 51.2351 70.4237 51.4083 70.7428 51.5822C71.0191 51.7327 71.3373 51.7643 71.6298 51.863C71.8728 51.9449 72.1696 51.923 72.393 52.0134C72.8882 52.2138 73.4369 52.3224 73.9093 52.5348C74.4346 52.771 75.126 53.0763 75.6982 53.0763C76.4961 53.0763 77.2464 53.1142 78.0322 53.2769C78.7156 53.4183 79.415 53.3001 80.1085 53.3521C82.4577 53.5282 85.0372 53.5887 87.1997 52.4947C87.552 52.3165 87.9587 52.3339 88.3147 52.1738C88.6616 52.0178 88.951 51.8423 89.2512 51.6524C89.7382 51.3444 90.0905 50.8016 90.5892 50.5493M89.9669 49.4666C90.719 49.4666 91.3189 49.3906 91.8846 49.963C92.3939 50.4783 92.4565 51.2002 92.3702 51.8983C92.3272 52.2462 91.9939 52.5135 91.9341 52.846C91.8785 53.1556 91.8847 53.5127 91.5724 53.6883C91.1059 53.9505 90.7882 54.1408 90.4128 54.5206C89.7795 55.1614 88.7624 55.3676 87.955 55.739C87.6571 55.876 87.4228 56.05 87.0927 56.1651C86.5698 56.3476 86.0332 56.4033 85.507 56.5512C85.1365 56.6553 84.6915 56.5963 84.3078 56.5963C83.9551 56.5963 83.5955 56.7768 83.2077 56.7768H79.7092M77.3165 56.3258H76.2957C75.3011 56.3258 74.6307 55.9063 73.7487 55.6088C72.9447 55.3376 72.2621 54.8371 71.5683 54.3904C70.9242 53.9757 70.0885 54.6269 69.4474 54.2099C68.6741 53.7069 67.9355 53.2631 67.0787 52.9163C66.1336 52.5338 65.9734 50.6553 66.6575 49.9632C66.7781 49.8412 67.0463 49.5156 67.1976 49.4718C67.4126 49.4097 67.578 49.5332 67.7526 49.3565C68.0065 49.0996 68.0471 48.8315 68.3968 48.6546M65.7052 52.536C65.7052 53.7187 65.1213 55.1478 65.9233 56.1911C66.0914 56.4099 66.1948 56.6119 66.399 56.7978C66.7573 57.124 67.4251 57.1099 67.8509 57.2791C68.3577 57.4806 68.8458 57.8675 69.3623 58.0212C69.6356 58.1025 70.2516 58.3941 70.3435 58.673M72.7615 59.1244C73.5032 59.1244 74.1828 59.1478 74.9022 59.35C75.6624 59.5636 76.3273 59.9198 77.0628 60.2074C78.294 60.6887 79.6463 60.5566 80.9131 60.794C81.4444 60.8935 82.7988 61.062 83.1976 60.6586M86.2207 59.9369H86.8451C87.181 59.9369 87.4314 59.6788 87.7371 59.5757M92.2982 53.4381C92.2982 53.9657 92.5658 54.4288 92.5658 54.9272C92.5658 55.4247 92.655 55.9809 92.655 56.5066C92.655 57.0155 92.3874 57.4405 92.3874 57.9506C92.3874 58.4828 92.9691 59.1395 93.4577 59.3043M65.3492 55.7849C65.3359 55.8929 64.4728 56.0283 64.3086 56.1058C63.9769 56.2624 63.5614 56.3451 63.2977 56.5972C63.0326 56.8505 62.3165 57.0678 62.3165 57.4545C62.3165 58.0135 62.5448 58.7053 63.0747 58.9436C63.7359 59.241 64.316 59.7207 64.9033 60.1169M66.4252 60.3876C67.4697 60.3876 68.2924 60.7511 69.1903 61.3352C69.6768 61.6516 70.2928 61.8725 70.8405 62.0572C71.4831 62.2739 72.1059 62.5728 72.7632 62.7391C73.6234 62.9567 74.4228 63.2737 75.3053 63.436C76.1377 63.5891 76.9977 63.7268 77.8425 63.7268C78.4346 63.7268 79.0264 63.8171 79.6264 63.8171C80.0005 63.8171 80.6442 63.9427 80.9644 63.7268M61.6966 58.041C60.715 58.041 59.7928 58.2756 58.8225 58.312C58.2187 58.3346 57.6844 58.6732 57.0584 58.6732M95.1575 60.1175C96.5356 60.1175 97.7021 60.8182 98.9038 61.4262L98.94 61.4445C99.8055 61.8823 100.598 62.2834 101.491 62.6445M55.6155 53.8895C55.6773 53.3259 56.321 52.4848 56.6214 52.0194C57.1425 51.2121 57.903 50.5949 58.4004 49.7682C59.042 48.7016 59.7973 47.571 60.2339 46.3988C60.8135 44.8424 61.1127 43.233 61.3439 41.5956C61.4863 40.587 61.6809 39.566 61.6809 38.5471M60.7209 34.756V29.0101C60.7209 27.6538 60.6317 26.3103 60.6317 24.9539C60.6317 24.4396 60.5652 23.8729 60.6813 23.3695C60.7994 22.8572 60.9359 22.364 60.9935 21.8403C61.095 20.9155 61.142 19.986 61.1669 19.0526C61.1873 18.2902 61.2626 17.3971 61.484 16.6609C61.6605 16.0742 61.8825 15.5438 62.1282 14.9913C62.3029 14.5987 62.3612 14.2342 62.6832 13.9083M63.8471 10.8411C63.8471 10.091 64.0728 9.79901 64.5706 9.22663C65.1079 8.60884 65.5008 7.83977 66.0572 7.25117C66.934 6.32376 68.3314 6.13165 69.3773 5.42612M70.5217 4.25273C70.5217 3.70454 70.7083 3.5285 71.1461 3.18979C71.5921 2.84472 71.9184 2.40321 72.3552 2.04162C73.3767 1.19595 74.6505 1.00375 75.9231 1.00375C76.4126 1.00375 76.9026 0.968522 77.37 1.11405C77.7486 1.23191 78.0054 1.2745 78.4156 1.2745C79.0744 1.2745 80.1314 1.07809 80.6902 1.455M80.5998 2.53749C82.6254 2.53749 84.6031 1.34153 86.6751 1.86564C87.7059 2.12636 88.4874 2.73235 89.4204 3.20434C90.1378 3.56728 90.8344 3.83577 91.4818 4.32243C92.5463 5.12251 93.4596 5.8645 94.247 6.97977C94.8978 7.90175 95.8299 8.64048 96.5661 9.49172C97.104 10.1137 97.1717 10.6504 97.3243 11.4221C97.4908 12.2646 97.8519 12.9806 98.1518 13.7786C98.4053 14.4531 98.5664 15.159 98.8852 15.8042M99.2479 17.0688C99.2479 18.1527 99.6455 19.0838 100.006 20.0972C100.296 20.9117 100.473 21.734 100.675 22.574C100.92 23.5951 101.373 24.534 101.587 25.5723C101.757 26.3992 102.111 27.2377 102.186 28.0793C102.277 29.0824 102.281 30.1882 102.281 31.1929C102.281 32.1807 102.16 33.2564 102.3 34.2363C102.409 34.9913 102.727 35.7098 102.727 36.4725M102.904 38.9981C102.904 42.4236 103.033 45.7707 103.727 49.126C104.097 50.9137 103.721 52.7862 103.955 54.5912C104.043 55.2736 104.176 55.9593 104.247 56.6418C104.29 57.0524 104.599 57.3556 104.599 57.7699M66.7533 25.7427C66.9946 25.7427 67.306 25.6354 67.5276 25.5457C67.6865 25.4814 67.9252 25.4953 68.0981 25.4953C68.5257 25.4953 69.0119 25.4541 69.4633 25.4541C69.9906 25.4541 70.4973 25.6715 70.9484 25.9283C71.2123 26.0784 71.7049 26.3415 71.8065 26.6498M69.6718 26.1977C69.6718 26.382 70.0162 26.8021 70.1201 26.4866M66.6678 22.3617C66.7894 22.3617 66.924 22.3791 67.0436 22.3571C67.2557 22.3181 67.47 22.1968 67.6865 22.1968C68.0334 22.1968 68.3933 22.1555 68.7483 22.1555C69.2027 22.1555 69.7189 22.2732 70.1497 22.4212C70.4841 22.5361 70.7975 22.6604 71.1096 22.8244C71.2879 22.9181 71.5606 23.1451 71.7616 23.1451M79.3321 23.6392C79.607 23.6392 79.7293 23.6157 79.966 23.4513C80.2869 23.2285 80.6541 23.0466 81.0437 22.9886C81.7984 22.8763 82.5348 22.7733 83.3031 22.7733C84.1437 22.7733 84.962 22.9843 85.7504 23.2658C86.0699 23.3799 86.3889 23.5881 86.7081 23.6804C86.9185 23.7412 87.054 23.9173 87.2379 24.0103M80.0615 27.1438C79.9815 27.1539 80.0776 27.1761 80.1453 27.1392C80.2862 27.0624 80.3916 26.925 80.5415 26.8643C80.773 26.7706 81.0026 26.6646 81.2343 26.5665C81.6046 26.4097 81.9382 26.269 82.3436 26.2046C83.2334 26.0634 84.146 26.1574 84.9924 26.4428M82.2323 27.1446C82.2323 27.2957 82.4237 27.3097 82.5379 27.3097C82.6415 27.3097 82.7239 27.1395 82.762 27.0621M71.7282 34.8471C71.9883 35.026 72.2143 35.213 72.425 35.4456C72.6116 35.6516 72.944 35.7374 73.1779 35.888C73.6418 36.1867 74.1376 36.3056 74.6743 36.1246M76.269 35.7416C76.5255 35.7416 76.7744 35.75 77.0265 35.699M71.0169 39.2757C71.4303 39.2757 71.8266 39.469 72.2094 39.6166C72.3554 39.6729 72.555 39.7073 72.677 39.8084C72.7681 39.8839 72.898 39.9794 73.0161 39.9978C73.4751 40.0693 73.9176 40.128 74.3862 40.128C74.6088 40.128 74.8798 40.0881 75.0994 40.1375C75.2182 40.1642 75.3587 40.2132 75.4781 40.2132M77.1331 40.2115C77.621 40.2115 78.1097 40.2218 78.5968 40.1902C79.4793 40.133 80.337 39.7408 81.1641 39.445C81.7403 39.2389 82.2698 38.934 82.899 38.934M75.4334 41.567H76.2428M83.0353 37.4164C83.3591 37.7076 83.8987 38.3806 83.8987 38.836M31.8761 69.4165V71.9827C31.8761 72.2839 32.0955 72.5827 32.1539 72.878C32.2173 73.1987 32.2465 73.4706 32.2465 73.7994C32.2465 74.3485 32.187 74.7906 31.9224 75.2725C31.817 75.4643 31.8302 75.5648 31.6909 75.741C31.596 75.8609 31.419 76.1202 31.4131 76.2771C31.3906 76.8691 31.1353 77.4131 31.1353 78.0313V78.734C31.1353 79.0002 30.9911 79.0385 30.878 79.2546C30.5285 79.9226 30.2092 80.4061 30.2092 81.2222M29.575 83.7517C29.575 84.2239 29.7355 84.9736 29.256 85.2508C28.9637 85.4199 28.8385 85.8577 28.5564 86.0004M25.8762 82.6266C25.8762 81.9816 25.5058 81.4245 25.5058 80.7943V78.4311C25.5058 78.1846 25.527 77.9976 25.4132 77.7961C25.2995 77.5948 25.1085 77.7242 24.9965 77.5202C24.8065 77.1741 24.9502 76.4624 24.9502 76.0679M25.1195 73.9128C25.1195 73.1603 24.9711 72.3525 25.4899 71.7525C25.9698 71.1976 26.2384 70.7956 26.3285 70.066C26.4079 69.4229 26.6583 68.8427 26.6938 68.1973C26.7056 67.981 26.8695 67.7774 26.7658 67.5414C26.6749 67.3345 26.5102 67.1699 26.4159 66.9792M27.252 66.041C27.2777 65.8331 27.6439 65.4585 27.7613 65.2445C28.2224 64.4048 28.9663 64.166 29.706 63.6934C30.2473 63.3474 30.6137 62.7991 31.1465 62.4285C31.6815 62.0563 31.8717 61.4931 32.3452 61.1167C33.2171 60.4236 33.6085 59.547 34.6603 59.0346C35.0078 58.8653 35.3841 58.6898 35.751 58.5661C35.8755 58.5241 36.1135 58.6058 36.214 58.5245C36.4043 58.3704 36.7547 58.3758 36.9754 58.2642M37.9905 57.423H38.8856C39.5345 57.423 40.0593 57.1103 40.676 56.9542M41.3186 54.6105C41.4859 54.6316 41.4112 55.0923 41.4112 55.2195C41.4112 55.628 41.6778 56.1152 41.9257 56.4376C42.2455 56.8537 42.732 57.1058 43.1707 57.3277M43.2792 56.0185C43.583 56.0185 43.9269 55.9739 44.2258 56.0289C44.6241 56.1023 45.0029 56.3936 45.4091 56.3936M46.9823 57.2355C48.4195 57.2355 49.7646 57.2061 51.1495 57.6519C51.9752 57.9178 52.7649 58.312 53.5777 58.6409C53.8801 58.7633 54.14 58.9301 54.4112 59.1094C54.4866 59.1593 54.761 59.3853 54.761 59.2968M55.4908 58.2642C55.4908 58.6382 55.4179 59.0873 55.5834 59.4302C55.928 60.144 56.3862 60.8957 56.9416 61.4707C57.5623 62.1133 58.2432 62.897 58.6393 63.6986M59.3919 63.6073C59.3919 63.9162 59.79 64.2912 59.999 64.5026C60.3414 64.8491 60.7063 65.1364 60.9662 65.5541C61.1484 65.8469 61.3276 66.2244 61.4292 66.5587C61.5186 66.8526 61.5135 67.2276 61.6607 67.4957C62.0048 68.1224 61.9632 68.9801 62.3553 69.6247C62.8544 70.4453 62.9109 71.3339 62.9109 72.2742C62.9109 73.7141 63.1844 75.6057 62.7462 76.985C62.5271 77.6747 62.7031 78.2621 62.8234 78.9318C62.9949 79.8863 62.9109 80.9012 62.9109 81.878M32.074 68.9465C32.5847 68.8891 33.1289 68.0284 33.566 67.7909C34.2067 67.4427 34.8678 67.4178 35.5467 67.2652C35.8215 67.2034 36.2231 67.1869 36.4984 67.1663C37.0011 67.1286 37.4946 66.7992 37.9955 66.6978C38.6029 66.5749 39.1664 66.323 39.8116 66.323H41.3344C42.0219 66.323 42.5783 66.653 43.279 66.4167M45.6759 65.948C46.4302 65.948 47.3445 65.8347 48.0425 66.0365C48.5257 66.1762 49.2532 66.0417 49.7505 66.0417C50.1263 66.0417 50.5275 65.9903 50.8823 66.1145C51.1626 66.2127 51.419 66.4072 51.6951 66.4893C52.6555 66.7751 53.4466 67.3644 54.3395 67.7751C54.7656 67.971 55.1688 68.1529 55.5845 68.3633C55.9959 68.5714 56.1902 68.9969 56.5105 69.321M57.4411 71.3829C57.4411 72.1717 57.4203 72.9585 57.5286 73.7253C57.5886 74.1507 57.5906 74.4746 57.7189 74.8966C57.8307 75.2643 57.9899 75.622 58.0893 75.9741C58.4289 77.1767 59.571 78.1752 59.571 79.4408M59.9322 83.0016C59.9322 83.2885 59.8978 83.5883 60.0248 83.8454M26.2248 84.4074C26.5949 84.1677 27.0183 83.9615 27.3361 83.6578C27.4955 83.5055 27.8147 83.2431 28.0306 83.1945C28.5634 83.0747 29.2838 82.9535 29.7438 82.7208M30.9551 82.252H31.8349C32.0877 82.252 32.0804 82.6918 32.2104 82.861C32.4638 83.1906 32.7076 83.7571 33.085 83.9593C33.606 84.2384 34.1299 84.1914 34.6953 84.3185C35.2209 84.4367 35.7141 84.5007 36.2798 84.5007H37.993C38.3766 84.5007 39.0297 84.4914 39.4284 84.4018C40.3497 84.1946 41.2621 83.5071 41.6971 82.6268M42.8125 81.7834C43.3756 81.7834 43.8625 81.5958 44.3867 81.5958C44.9792 81.5958 45.5029 81.7834 46.0536 81.7834M46.699 82.3455C46.699 82.8011 47.0745 83.4163 47.4913 83.6572C47.7906 83.8302 48.1503 84.0451 48.4173 84.2662C48.7451 84.5376 49.1131 84.3687 49.4308 84.5473C49.9014 84.8118 51.0015 84.5942 51.535 84.5942H53.6443M54.2948 84.4068C54.8594 84.4068 55.4352 84.078 55.7044 83.5635C55.8386 83.3072 56.2081 82.455 56.4247 82.3455M56.7873 81.3146C57.2226 81.3146 57.6212 81.4083 58.0375 81.4083C58.369 81.4083 58.6716 81.6514 59.0098 81.6894C59.8965 81.7891 60.6164 82.5436 61.4175 82.8137M39.9401 81.4087C39.4678 81.3821 38.9562 81.0362 38.5047 80.9347L38.4888 80.9311C38.0674 80.8362 37.6946 80.7523 37.2546 80.7523C36.3314 80.7523 35.7072 81.2076 34.9395 81.5962M37.1488 81.5022C37.2106 82.0031 38.1674 82.0378 38.1674 81.4085M48.7269 81.783C48.965 81.7562 49.053 81.4785 49.2105 81.335C49.3617 81.1972 49.5675 81.1338 49.7455 81.0537C50.2007 80.8489 50.8031 80.9391 51.3146 80.9391C51.7261 80.9391 52.3026 80.9711 52.6625 81.1735C52.9253 81.3214 53.6101 81.5453 53.7275 81.783M50.6854 81.6896C50.9448 81.6896 51.1669 81.9335 51.3337 81.5958M33.6332 78.7858C33.607 78.7858 33.8313 78.7554 33.911 78.7129C34.095 78.6149 34.2436 78.4947 34.4461 78.4316C34.7428 78.3392 35.1795 78.3223 35.439 78.1764C35.9348 77.8974 37.1308 78.1295 37.6872 78.1295C38.4769 78.1295 39.2755 78.1874 40.0229 78.4576C40.4948 78.6283 41.192 78.8796 41.6897 78.8796M46.9823 79.2541C47.2119 79.2283 47.5352 78.8558 47.7952 78.7648C48.0894 78.6617 48.3375 78.3522 48.6492 78.3171C48.8372 78.296 49.1216 78.0943 49.2974 78.0152C49.6297 77.8658 50.0089 77.7675 50.3675 77.6821C50.8395 77.5697 51.4091 77.5676 51.8903 77.5676C52.2838 77.5676 52.6803 77.5528 53.0736 77.5676C53.3302 77.5772 53.573 77.755 53.835 77.755M40.2209 88.3424C40.2209 88.6867 40.0889 89.3853 40.3341 89.6333C40.5669 89.8689 40.9545 90.4177 41.2859 90.4922C41.7648 90.5999 42.145 90.6848 42.6801 90.6848C43.2768 90.6848 43.4158 91.5281 44.0177 91.5281C44.478 91.5281 44.9473 91.5554 45.4067 91.5281C45.6259 91.515 45.7568 91.1433 45.916 91.018C46.1532 90.8314 46.3771 90.6232 46.6569 90.4974C47.0529 90.3193 47.6231 90.4345 47.9533 90.1747C48.3295 89.8786 48.7124 89.6172 48.9256 89.1857M43.1829 84.4078C43.1829 84.8374 42.9051 85.2661 42.9051 85.6727C42.9051 86.1127 42.8125 86.5378 42.8125 86.9376M36.8675 94.5262C37.3539 94.5262 37.8698 94.5644 38.308 94.4377C38.7912 94.2979 39.361 94.5709 39.8308 94.3595C40.2224 94.1833 41.0267 94.3387 41.4514 94.3387C41.9264 94.3387 42.3271 94.62 42.7941 94.62M44.767 94.7141H48.1727C48.6462 94.7141 49.4229 94.7778 49.8601 94.9745C50.1802 95.1186 50.8052 94.9954 51.1566 94.9954M37.9905 96.0248C39.3024 97.5181 41.462 98.0861 43.3615 98.0861M45.7676 97.9004C46.6294 97.9004 47.2059 97.6125 47.9438 97.1977C48.5979 96.83 49.1206 96.0825 49.8422 95.8391M25.7598 85.7201C25.7598 86.566 25.5536 87.1248 25.9913 87.9219C26.2345 88.3648 26.2541 89.6243 26.6858 89.8427M28.3628 91.0587C28.3628 91.7143 27.9234 91.7843 27.5808 92.2299C27.4186 92.4409 27.4524 93.4948 27.7146 93.4948M28.3684 94.5268C28.3684 95.0837 27.9979 95.5037 27.9979 96.026M28.3709 96.9621C28.3709 97.2947 28.5278 97.595 28.7876 97.8053C28.9692 97.9523 28.7902 98.5142 29.1117 98.5549C29.7616 98.6371 29.6674 99.6043 29.6674 100.054M30.2078 101.084C30.2078 101.403 30.2459 101.955 29.93 102.115M30.9529 102.115C30.9529 102.434 31.0681 103.556 30.7676 103.708M32.0595 103.802C32.0595 104.278 32.0073 104.79 32.0801 105.26C32.1567 105.754 32.5021 106.103 32.7078 106.519M34.0978 106.05C34.0978 106.549 34.5354 106.745 34.9312 106.945C35.281 107.122 35.9438 107.264 36.0373 107.69C36.2786 108.788 37.5294 108.769 38.3576 109.048M38.9218 108.393C38.9218 108.731 38.9654 109.084 39.39 109.138C39.9554 109.209 40.5442 109.611 41.098 109.611C41.4686 109.611 41.6061 109.945 41.9778 109.986C42.2902 110.021 42.7235 110.317 42.9964 110.455M44.3041 109.987C44.3041 110.451 44.3175 110.897 44.1189 111.298M39.8438 91.5452C39.8438 91.7166 39.6869 91.9577 39.5825 92.0935C39.5127 92.1844 39.476 92.3178 39.4416 92.4225M41.0363 92.1715C40.937 92.2846 40.8353 92.4999 40.7887 92.6415M38.4191 92.2335C38.2135 92.2335 38.107 92.4674 37.955 92.5939C37.7698 92.7478 37.6511 92.9143 37.5217 93.1109M36.9494 91.952C36.9451 91.9874 36.8966 92.0145 36.8807 92.0529C36.8217 92.1952 36.7066 92.2917 36.6228 92.4147C36.4988 92.5966 36.3756 92.8144 36.2205 92.9714L35.4021 93.7994M42.9449 93.3627C43.0197 93.3438 42.9759 92.8114 42.9759 92.7047M45.4892 92.7345C45.4892 92.8405 45.4455 93.0889 45.5512 93.1425M46.6053 92.4232C46.6053 92.5864 46.6484 92.797 46.7909 92.8932M47.9596 91.9203C47.8184 91.9382 48.1164 92.3399 48.1453 92.4056C48.2348 92.6093 48.3528 92.8006 48.4238 93.0162M48.8186 91.4192C48.8218 91.4452 49.0296 91.5248 49.073 91.5688C49.1881 91.6853 49.3436 91.767 49.4616 91.8819C49.6208 92.037 49.7403 92.3552 49.9326 92.4525M50.7384 93.1738C50.7384 93.3174 51.1415 93.5187 51.2645 93.5498M51.0176 91.7647C51.1177 91.7759 51.2623 91.9289 51.3357 91.9925C51.5299 92.161 51.699 92.3288 51.8772 92.5092C52.0692 92.7034 52.2297 92.9468 52.3792 93.1736M33.4008 93.9269C33.4008 93.7008 33.4239 93.3512 33.6484 93.2375M30.947 94.5518C31.0674 94.4521 31.226 94.3947 31.3372 94.2821C31.4338 94.1844 31.4811 94.0587 31.5659 93.9568C31.6262 93.8844 31.7516 93.5835 31.7516 93.4872M32.5192 95.679C32.5017 95.8389 32.4084 95.9914 32.38 96.1521C32.3356 96.4034 32.3645 96.6763 32.3645 96.9314M33.2133 98.0895V98.9355M30.3548 92.14C30.338 92.2758 30.1579 92.4855 30.0136 92.4855M37.3271 100.97C37.3271 101.154 37.0609 101.366 36.942 101.488C36.6971 101.741 36.3988 101.97 36.3988 102.348M36.8532 103.663V104.008M42.2543 101.313C42.2543 101.431 42.1692 101.701 42.0686 101.752M42.9504 99.812C42.9504 99.9183 42.9341 99.9855 42.8573 100.063M43.75 99.812V100.282M44.6834 99.6548C44.6834 99.795 44.8465 99.9102 44.9626 99.9689M44.8831 100.563C44.8831 100.759 45.034 101.219 45.2235 101.315M46.404 100.75C46.3314 100.833 46.4474 101.055 46.5281 101.096M46.377 110.488C46.3885 110.604 46.5928 110.745 46.6872 110.802M47.5509 109.862H48.3641C48.481 109.862 48.5496 109.877 48.6185 109.768C48.6938 109.65 48.7502 109.542 48.8678 109.455C49.0038 109.355 49.2696 109.268 49.4386 109.337C49.8841 109.517 50.2769 108.889 50.5458 108.617C50.7405 108.42 50.9321 108.231 51.1372 108.046C51.2231 107.969 51.2871 107.862 51.3813 107.796C51.4146 107.772 51.4683 107.774 51.4948 107.747L51.4988 107.743C51.7397 107.499 51.9856 107.25 52.3183 107.138C52.5309 107.066 52.7163 106.926 52.9251 106.856C53.2538 106.747 53.562 106.605 53.8466 106.404C54.1003 106.225 54.3143 105.909 54.4759 105.642C54.5263 105.559 54.5815 105.429 54.6684 105.385M55.699 104.257C55.7823 104.276 55.8695 104.5 55.8916 104.577C55.9437 104.759 55.9466 105.005 55.9466 105.195C55.9466 105.358 55.9156 105.506 55.9156 105.666M56.5509 103.099C56.5509 103.372 56.5819 103.644 56.5819 103.914M57.4436 101.441C57.5003 101.448 57.4712 101.708 57.5227 101.77C57.6117 101.876 57.7793 101.993 57.9078 102.036M54.4861 93.2024C54.4861 93.4509 54.4629 93.6842 54.5857 93.9079C54.6658 94.0538 54.767 94.1894 54.8181 94.3447M55.9509 93.2681C55.9509 93.6468 56.0018 94.0542 55.8845 94.4104M56.4857 92.2599C56.4857 92.738 56.7533 93.4694 57.349 93.4694M59.7853 89.4385C59.7853 89.7381 60.0312 90.0854 60.1985 90.2971C60.3417 90.4782 60.4311 90.7356 60.549 90.9503C60.8305 91.463 60.5421 92.1795 60.7814 92.6638M60.1296 92.6637C60.0939 92.9894 60.0632 93.3 60.0632 93.638C60.0632 93.8106 60.0569 93.9844 60.0632 94.1569C60.0703 94.3492 60.196 94.5074 60.196 94.6795M60.0013 95.5529C60.0013 95.9123 60.3334 96.1129 60.3334 96.46C60.3334 96.8797 60.267 97.2982 60.267 97.7031M59.5292 98.1724C59.5292 98.7388 59.422 99.2484 59.2119 99.7701C59.0383 100.201 58.6131 100.483 58.4667 100.927M62.3184 83.5935C62.3184 83.8419 62.3574 84.4323 62.5029 84.6163C62.696 84.8606 62.4936 85.3714 62.6173 85.6466C62.7491 85.94 62.6505 86.4993 62.6505 86.815C62.6505 87.1901 62.3209 88.1278 61.9864 88.297M60.5292 88.3633V88.834M58.055 91.2533C58.055 90.9954 58.1792 90.7614 58.269 90.5217C58.3363 90.3419 58.4749 89.7978 58.6527 89.7079M59.2065 88.6326V88.7682M31.5584 106.383V108.141C31.5584 108.863 31.7032 109.57 31.7032 110.282C31.7032 111.075 31.7075 111.828 31.848 112.61C31.9073 112.94 31.9379 113.267 31.9968 113.595C32.0268 113.762 32.1376 113.912 32.1376 114.075M31.0298 111.657C30.975 112.156 29.8705 112.761 29.437 112.886C28.5579 113.141 27.8709 113.681 27.0519 114.071C26.5087 114.329 26.0612 114.691 25.5637 115.027C25.0743 115.357 24.5568 115.679 24.1238 116.085L24.1141 116.094C23.7023 116.48 23.3528 116.807 22.8809 117.119C22.4028 117.434 21.889 117.661 21.4008 117.957M19.6064 118.982C19.3967 118.982 19.0391 119.139 18.8542 119.238C18.428 119.466 17.9701 119.639 17.543 119.865C17.2382 120.026 16.8654 120.156 16.5295 120.231C16.0672 120.335 15.6706 120.624 15.2625 120.85C14.5864 121.224 13.8502 121.458 13.1629 121.806C12.8034 121.988 12.4752 122.251 12.1132 122.421C11.4299 122.74 10.8402 123.174 10.1946 123.56C9.54405 123.949 8.83914 123.84 8.12722 124.02C7.4811 124.183 6.84789 124.448 6.22877 124.695C5.82494 124.857 5.45321 125.107 5.06235 125.298C4.37364 125.634 3.48479 125.866 2.97084 126.486C2.33547 127.252 2.07514 128.526 1 128.798M29.0842 112.902C29.2311 113.051 29.4735 113.157 29.5749 113.342C29.6703 113.515 29.6793 113.722 29.772 113.891C29.9683 114.249 30.0751 114.682 30.2426 115.063C30.7783 116.283 31.6108 116.908 32.7041 117.619C33.1259 117.893 33.6993 118.102 34.1682 118.266C34.8222 118.494 35.2894 119.11 35.9299 119.332C36.6404 119.579 37.2249 120.017 37.9812 120.171C38.6776 120.311 39.2338 120.594 39.944 120.594M42.4232 120.886C44.1462 120.886 45.8603 120.942 47.5635 120.65C48.2299 120.535 49.1134 120.577 49.7354 120.332C50.2659 120.124 50.8063 119.925 51.3282 119.714M57.7635 103.6C57.7635 104.415 57.8233 105.227 57.9968 106.018C58.1942 106.916 58.1255 107.896 58.1255 108.817V111.015C58.1255 111.613 58.2703 112.217 58.2703 112.83M58.8457 112.243C59.5814 112.243 60.4287 112.611 61.0579 113.016C61.8821 113.547 62.7277 113.788 63.6804 113.985C64.1296 114.078 64.7095 114.18 65.1082 114.404C65.3454 114.537 65.7512 114.457 65.9408 114.697C66.0965 114.894 66.5881 115.051 66.8096 115.157C67.0423 115.268 67.3455 115.393 67.6059 115.393M63.5913 113.488C63.6166 113.718 63.7983 113.873 63.7983 114.116C63.7983 114.55 63.5942 114.637 63.3038 114.931C63.0055 115.233 62.7727 115.643 62.4299 115.896C62.2475 116.031 61.8689 116.23 61.7514 116.42C61.3008 117.149 60.1152 117.298 59.4054 117.624C58.5408 118.022 57.6294 117.999 56.7087 118.206C56.0938 118.344 55.475 118.736 54.8458 118.834C54.4347 118.898 53.7039 119.066 53.3451 119.247M216.17 68.6512C216.135 68.9351 213.463 68.8459 213.332 68.8281C212.563 68.7244 211.832 68.4605 211.133 68.1253C210.721 67.9281 210.2 67.8321 209.744 67.8321C209.227 67.8321 208.756 67.5591 208.255 67.5591M206.179 67.5593C205.253 67.5593 204.25 67.4092 203.385 67.7918C202.836 68.0351 202.471 68.603 201.931 68.8131C201.711 68.8987 201.245 68.9881 201.142 69.1974M199.599 68.377C199.791 68.3554 200.025 68.079 200.184 67.9675C200.511 67.7379 200.819 67.4884 201.198 67.3557C201.65 67.1973 202.157 66.9214 202.547 66.6479C203.225 66.1733 203.934 65.9551 204.746 65.849C205.227 65.7863 205.757 65.7859 206.21 65.9653C206.457 66.0632 206.708 66.2839 206.975 66.2839M209.4 66.4665C209.928 66.4665 210.737 66.3238 211.199 66.5576M212.547 66.7398C213.328 66.8387 214.527 66.6496 215.245 67.013M217.412 68.4688C217.412 67.7415 217.605 67.0348 217.367 66.2846C217.144 65.5833 216.712 65.1503 216.132 64.7375L216.108 64.72C215.262 64.1178 214.591 63.6403 213.559 63.3269C212.732 63.0759 211.863 62.9035 211.025 62.7151C209.802 62.44 208.61 62.5453 207.428 62.8971C207.077 63.0014 206.583 63.2936 206.303 63.514C205.99 63.7608 205.63 63.7966 205.269 63.9184M203.198 64.3747C202.721 64.3747 202.033 64.3625 201.849 64.9211M197.894 69.197C197.684 69.2236 197.12 70.1694 196.999 70.3245C196.712 70.6941 196.324 71.1079 196.095 71.5126C195.798 72.0377 195.334 72.6374 195.201 73.2468C195.066 73.8595 194.859 74.53 194.676 75.1327C194.528 75.6192 194.296 76.2472 194.296 76.7506M193.486 76.1139C193.486 76.9075 192.796 77.6744 192.766 78.5003C192.737 79.2906 192.856 80.0716 192.856 80.8463M194.39 78.3899C194.39 79.0088 194.822 79.4084 194.924 79.9774C195.019 80.5052 195.109 81.0223 195.109 81.5751M195.103 83.8489V85.123M192.576 83.0308C192.576 84.2767 192.486 85.5394 192.486 86.762M194.113 90.6741C194.034 89.9513 193.145 89.0703 192.604 88.7124C192.226 88.4621 191.853 88.399 191.415 88.399C190.164 88.399 189.998 89.6243 189.776 90.6337C189.547 91.6752 189.949 92.6897 190.515 93.5661C191.07 94.4237 191.544 95.4345 191.865 96.4076M192.674 98.7748C192.674 99.4384 192.839 99.8255 193.303 100.322C193.712 100.759 194.156 101.307 194.743 101.505M195.564 100.686C195.564 101.902 195.992 103.121 196.868 104.007C197.214 104.357 197.596 104.805 197.832 105.236C198.052 105.636 198.529 105.958 198.712 106.328M200.333 108.057C200.814 108.111 201.084 108.716 201.372 109.007C201.767 109.407 202.235 109.765 202.651 110.17C203.188 110.692 203.861 111.081 204.38 111.606C204.762 111.992 205.802 112.698 206.359 112.698M205.978 111.332C206.121 111.351 206.156 111.598 206.248 111.696C206.553 112.023 206.867 112.393 207.232 112.647C207.687 112.963 208.031 113.441 208.497 113.744C209.03 114.091 209.595 114.531 210.226 114.679C210.752 114.803 211.274 115.138 211.825 115.155C212.466 115.174 213.111 115.155 213.753 115.155C214.073 115.155 214.433 115.337 214.753 115.337C215.265 115.337 215.738 115.358 216.232 115.226C216.652 115.113 216.917 114.833 217.311 114.7M220.214 112.334C220.627 112.287 221.053 111.599 221.293 111.332M197.189 106.055C197.189 106.882 197.009 107.703 197.009 108.512C197.009 109.427 196.919 110.365 196.919 111.293V115.247M196.177 110.605C196.177 111.519 195.598 112.341 195.547 113.244C195.519 113.746 195.187 114.202 195.187 114.7C195.187 115.418 195.114 116.181 195.192 116.895C195.245 117.372 195.471 117.805 195.567 118.27C195.646 118.652 195.881 118.9 195.997 119.251M196.919 121.527C196.919 122.318 197.302 123.148 197.838 123.731C198.426 124.37 198.793 125.158 199.348 125.799C199.816 126.341 200.489 126.555 201.052 126.982C201.421 127.262 201.822 127.602 202.226 127.806M204.099 129.625C204.51 129.677 205.36 130.456 205.638 130.677C206.184 131.111 206.758 131.496 207.247 131.991M222.531 110.241C223.212 109.228 224.336 108.611 224.915 107.556C225.161 107.108 225.443 106.636 225.719 106.196C225.941 105.843 226.309 105.385 226.309 104.963M227.302 102.962C227.302 101.891 228.325 101.136 228.382 100.1C228.413 99.533 228.651 98.9827 228.651 98.4113V97.1372M230.914 91.222C231.385 91.222 231.723 91.34 231.723 91.8591C231.723 92.3472 231.827 92.9273 231.589 93.3607C231.468 93.5801 231.465 93.8011 231.314 93.9977C231.149 94.2119 230.99 94.4454 230.869 94.6904L230.868 94.6926C230.555 95.3259 230.104 96.2375 230.104 96.9555M229.38 91.1294C229.38 91.4565 229.119 91.7387 229.02 92.0401M229.829 80.5729C229.829 81.9087 229.871 83.2345 229.919 84.557C229.93 84.838 230.089 85.1172 230.099 85.4165C230.119 85.9694 230.189 86.5159 230.189 87.0799C230.189 87.5257 230.17 87.9199 230.104 88.354C230.076 88.5374 230.066 89.0534 229.919 89.1275M228.377 79.6622C228.377 80.0196 228.197 80.256 228.197 80.5723C228.197 80.8938 228.287 81.174 228.287 81.4824M228.738 78.3892C228.738 76.6634 228.548 74.2994 227.209 73.0198C226.832 72.6596 226.698 71.7259 226.26 71.4727C225.798 71.2056 225.421 70.6914 224.96 70.3806M223.531 69.1071C222.639 69.1071 222.133 67.9183 221.327 67.737C220.339 67.5148 219.517 67.105 218.494 67.105M202.583 89.3111C202.924 89.2727 203.266 88.8598 203.612 88.7596C203.846 88.6919 204.301 88.666 204.492 88.5117C204.682 88.3575 205.345 88.4004 205.596 88.4004C205.984 88.4004 206.218 88.4192 206.54 88.5825M207.519 89.0371C207.881 89.0371 208.045 89.2579 208.328 89.4014M205.444 89.4918C205.284 89.4918 205.214 89.4665 205.083 89.4005M218.058 89.4016C218.431 89.0235 218.795 88.8552 219.317 88.8552M220.833 88.6715C221.26 88.6715 221.731 88.6532 222.073 88.965C222.275 89.1489 222.8 89.4001 223.082 89.4001M219.568 89.6729C219.728 89.6729 219.798 89.6982 219.928 89.7642M210.717 97.8231C210.434 97.8231 211.364 97.8078 211.541 98.0315C211.799 98.3581 212.235 98.3263 212.594 98.5079C212.817 98.6209 212.988 98.8209 213.248 98.8355C213.54 98.8519 213.838 98.8355 214.131 98.8355M215.07 98.5366C215.479 98.5366 215.663 98.2078 216.041 98.1227C216.301 98.0642 216.573 97.7619 216.836 97.7619M217.729 96.5133V97.4072M207.191 101.872C208.04 101.872 208.812 102.289 209.676 102.289C209.924 102.289 210.175 102.253 210.399 102.379C210.552 102.465 210.784 102.534 210.958 102.574C211.352 102.665 211.847 102.587 212.253 102.587M213.191 102.587C214.026 102.587 214.842 102.765 215.663 102.765M216.719 102.706C217.41 102.706 217.981 102.659 218.602 102.362C218.931 102.204 219.333 102.153 219.635 101.958C219.778 101.866 220.382 101.784 220.427 101.693M215.605 104.551C214.875 104.551 214.162 104.491 213.427 104.491M212.262 104.315C212.26 104.3 211.613 104.056 211.497 104.017M205.429 103.54C205.429 103.162 205.163 102.783 205.089 102.409C204.979 101.85 205.006 100.992 205.279 100.48C205.448 100.161 205.696 99.9859 205.871 99.6725C205.993 99.4529 206.234 99.3471 206.371 99.1465C206.441 99.0434 206.497 98.9502 206.606 98.895M207.712 98.0617C208.177 98.0617 208.645 97.3375 208.978 97.0757C209.202 96.8996 209.464 96.5133 209.773 96.5133M219.609 97.8229C219.618 97.9012 219.9 98.1023 219.962 98.1934C220.08 98.3687 220.227 98.5317 220.328 98.7162C220.546 99.114 221.056 99.4639 221.345 99.8212C221.593 100.129 221.828 100.424 222.022 100.767C222.181 101.05 222.026 101.493 222.198 101.753M221.901 102.944C221.901 103.552 221.436 104.117 221.253 104.671M200.959 99.7277C200.959 100.312 200.675 100.993 201.018 101.514M192.877 94.1317C192.877 93.5317 192.375 93.0735 191.877 92.8215M191.877 91.1526C192.16 91.1526 192.621 91.6223 192.786 91.8375C193.067 92.2027 193.318 92.5741 193.554 92.9723C193.847 93.4665 193.921 94.1636 193.937 94.7257C193.953 95.2955 194.354 95.6883 194.584 96.155M194.247 97.3456V97.5259M228.562 92.9395V94.5474M224.897 109.137C224.897 110.974 224.731 112.921 225.309 114.676M226.074 114.08V116.76C226.074 117.056 226.093 117.359 226.071 117.653C226.043 118.019 225.873 118.374 225.78 118.725C225.651 119.211 225.527 119.852 225.25 120.274M225.075 122.954C225.075 123.313 224.474 123.765 224.3 124.095C223.817 125.013 223.166 125.879 222.518 126.686C222.025 127.3 221.552 127.717 220.867 128.102C220.126 128.519 219.339 129.009 218.513 129.233C217.737 129.444 216.952 129.726 216.26 130.146C215.815 130.417 215.46 130.825 215.007 131.083C214.825 131.187 214.611 131.195 214.422 131.291C214.24 131.383 214.074 131.497 213.892 131.589C213.635 131.719 213.303 132.006 213.009 132.006M211.364 132.243C210.461 132.243 209.553 132.183 208.656 132.183M195.938 110.028C195.938 110.492 194.835 110.787 194.528 111.043C194.144 111.363 193.876 111.765 193.402 111.943C192.727 112.196 192.004 112.958 191.253 112.958M189.545 113.732C189.08 113.732 188.299 114.167 187.917 114.402C187.378 114.734 186.787 114.955 186.223 115.24C185.155 115.781 184.037 116.208 182.986 116.768C182.642 116.951 182.329 117.139 182.011 117.371C181.505 117.741 180.695 117.905 180.09 118.041C179.731 118.122 179.398 118.293 179.328 118.683C179.288 118.903 179.179 119.407 178.982 119.507M226.267 113.906C227.016 113.906 227.613 114.155 228.283 114.472C229.145 114.878 230.081 115.147 230.943 115.582C232.148 116.192 233.327 116.945 234.445 117.699M236.826 118.991C237.586 118.991 238.024 119.086 238.719 119.354C239.261 119.564 239.853 119.856 240.319 120.216C240.531 120.381 240.749 120.63 241 120.714M215.353 117.44C215.353 119.179 214.416 120.732 214.416 122.439M214.09 124.421C213.92 124.443 214.004 125.46 214.004 125.628M211.36 89.8278C211.36 90.2445 211.418 90.7099 211.349 91.1217C211.284 91.5083 210.975 91.9089 210.815 92.2692C210.592 92.7697 210.274 93.2579 209.818 93.5659C209.237 93.9575 208.668 94.1889 207.97 94.1889C207.428 94.1889 206.872 94.2847 206.339 94.2847M204.753 94.2839C203.457 94.2839 202.401 93.7925 201.464 92.8941C201.145 92.5887 200.864 92.1469 200.716 91.7333C200.61 91.4346 200.567 91.1565 200.535 90.836C200.504 90.5274 200.539 90.1667 200.443 89.8749M199.793 89.1086C199.323 89.1086 198.81 89.1617 198.372 88.9647C198.009 88.8014 197.602 88.6978 197.224 88.5704C196.372 88.2825 195.571 88.2933 194.677 88.2933M212.547 89.0113C211.978 89.0113 213.691 88.9434 214.252 89.038C214.518 89.0829 215.479 89.0984 215.625 89.395M216.234 90.3061C216.234 91.1811 216.25 91.9575 216.641 92.7502C216.9 93.2735 217.551 94.0442 218.176 94.0442M220.354 94.3788H222.723C223.465 94.3788 224.483 94.566 225.091 94.0433C225.373 93.8012 225.76 93.7119 226.036 93.4682C226.279 93.2529 226.416 92.916 226.659 92.7227C227.447 92.0967 227.429 90.9549 227.649 90.0656M216.706 88.3398C217.031 88.0114 217.423 87.7965 217.843 87.6449C218.121 87.5444 218.422 87.4557 218.717 87.4319C218.961 87.4121 219.218 87.2854 219.454 87.2854M221.673 87.2854C222.422 87.2854 223.135 87.3038 223.873 87.4532C224.358 87.5513 224.826 87.6855 225.297 87.8366C225.517 87.9072 225.722 87.9911 225.912 88.1241C226.029 88.206 226.136 88.3432 226.268 88.3877M210.625 88.2937C210.593 88.1482 210.293 87.9987 210.188 87.8997C210.033 87.7531 209.836 87.6655 209.678 87.5269C209.368 87.2563 208.95 87.1625 208.588 86.9997C208.211 86.8299 207.69 86.808 207.283 86.808C206.877 86.808 206.479 86.7601 206.078 86.7601M204.516 86.7597C204.202 86.7597 203.888 86.7552 203.574 86.7597C203.168 86.7656 202.797 86.9432 202.411 87.0473C202.1 87.1313 201.677 87.4629 201.437 87.6703C201.131 87.9357 200.77 88.0728 200.443 88.2933" stroke="#030500" stroke-linecap="round"/>
</svg>