<svg width="160" height="160" viewBox="0 0 160 160" fill="none" xmlns="http://www.w3.org/2000/svg">
<g clip-path="url(#clip0_2059_101)">
<path d="M75.8965 21.7434C77.7605 21.7434 79.3276 23.0081 80.6948 24.1595C82.6294 25.7886 84.3119 28.1311 85.3987 30.4249C86.2481 32.2176 86.5958 34.0235 87.1575 35.8967C87.3817 36.6443 87.6289 37.4098 87.6828 38.1944C87.6945 38.3647 87.5868 38.9028 87.7949 38.7984" stroke="#030500" stroke-width="1.5" stroke-linecap="round"/>
<path d="M89.0696 42.2092C89.0696 43.3884 88.9479 44.6263 89.1286 45.7919C89.3697 47.3471 89.9556 48.7687 90.3208 50.2866C91.1166 53.5949 91.4067 56.8152 91.4067 60.2235" stroke="#030500" stroke-width="1.5" stroke-linecap="round"/>
<path d="M91.0884 62.3557C91.0884 64.9057 89.9552 67.212 89.3355 69.6514C89.0617 70.7292 88.7512 71.7873 88.7512 72.9085C88.7512 73.6902 88.7512 74.4718 88.7512 75.2535" stroke="#030500" stroke-width="1.5" stroke-linecap="round"/>
<path d="M88.9633 77.5984C88.9633 80.494 89.9442 82.976 90.9582 85.664C91.7484 87.7588 92.4793 89.7946 92.6815 92.0478C92.7945 93.3066 92.7878 94.5638 92.7878 95.8259" stroke="#030500" stroke-width="1.5" stroke-linecap="round"/>
<path d="M73.134 20.8902C72.3265 20.8902 71.5711 20.9376 70.7732 21.1034C68.2102 21.636 65.7661 21.9562 63.1479 21.9562C61.8233 21.9562 60.643 22.1788 59.3883 22.5898C58.5659 22.8593 57.7881 23.2869 56.9862 23.5551" stroke="#030500" stroke-width="1.5" stroke-linecap="round"/>
<path d="M55.074 25.7939C54.6337 25.8381 54.1596 26.4499 53.9054 26.7769C53.5655 27.2141 53.3178 27.7249 53.0024 28.1804C52.5068 28.896 51.939 29.5547 51.4856 30.3005C50.8237 31.3888 50.4264 32.6258 49.8743 33.7707C49.5645 34.4131 49.1913 35.1203 49.0185 35.8137" stroke="#030500" stroke-width="1.5" stroke-linecap="round"/>
<path d="M57.7297 25.3673C56.5463 25.6413 55.6062 27.3613 54.9676 28.269C54.0525 29.5697 53.4793 31.1286 52.7367 32.5328C51.9154 34.0858 51.7053 35.7104 51.4382 37.4361C51.1853 39.0703 51.0369 40.6663 51.0369 42.3157" stroke="#030500" stroke-width="1.5" stroke-linecap="round"/>
<path d="M50.7185 45.5136C50.7185 47.2101 50.6974 48.8906 50.5592 50.5827C50.4758 51.6034 50.5421 52.6221 50.3998 53.6384C50.2011 55.0572 49.995 56.4758 49.8096 57.8963C49.6373 59.2166 49.1859 60.4601 48.9656 61.7692C48.7227 63.2128 48.5938 64.5734 48.5938 66.0389C48.5938 67.2956 48.6171 68.5297 48.9184 69.7578C49.0892 70.4538 49.3427 71.1332 49.4437 71.8423" stroke="#030500" stroke-width="1.5" stroke-linecap="round"/>
<path d="M49.8688 63.6346C49.8688 66.4725 52.1175 68.7051 52.6309 71.4278C53.0233 73.5089 53.0558 75.5091 53.0558 77.6221C53.0558 78.602 53.0119 79.5929 53.0676 80.5712C53.1285 81.6403 53.5883 82.6172 53.8231 83.6506C54.3107 85.7964 54.7556 88.2187 54.7556 90.4371C54.7556 91.8633 54.3766 93.1757 53.7995 94.4758C53.4748 95.2072 53.2691 95.9781 52.9496 96.7083C52.8219 97.0001 52.6012 97.2243 52.5247 97.5315" stroke="#030500" stroke-width="1.5" stroke-linecap="round"/>
<path d="M52.5244 88.3643C52.5244 89.217 52.5244 90.0698 52.5244 90.9225C52.5244 91.9825 52.1625 92.8192 51.8044 93.8006C51.4665 94.7264 51.1663 95.6382 50.7184 96.5246C50.5209 96.9155 50.1104 97.2298 49.9748 97.638" stroke="#030500" stroke-width="1.5" stroke-linecap="round"/>
<path d="M50.0811 74.1873C50.0811 76.0389 50.9104 78.0484 51.356 79.8368" stroke="#030500" stroke-width="1.5" stroke-linecap="round"/>
<path d="M86.4141 75.3549C86.0186 75.6795 85.4542 76.0509 85.0094 76.3142C84.3201 76.7224 83.7745 77.2544 83.1208 77.7C81.5474 78.7723 79.7381 79.1796 78.0746 80.045C76.3995 80.9165 74.1956 81.7505 72.2847 81.7505" stroke="#030500" stroke-width="1.5" stroke-linecap="round"/>
<path d="M70.0535 82.1771C66.5565 82.1771 63.2288 81.2914 60.2267 79.5064C59.5121 79.0814 58.6775 78.7349 58.0724 78.1502C57.4173 77.5172 56.8464 76.8732 56.0894 76.3263C54.8483 75.4297 54.47 74.0692 54.0119 72.6903" stroke="#030500" stroke-width="1.5" stroke-linecap="round"/>
<path d="M70.9031 58.3048C71.1788 58.274 71.3235 58.0916 71.6467 58.0916C71.9897 58.0916 71.9654 58.4601 71.9654 58.7311" stroke="#030500" stroke-width="1.5" stroke-linecap="round"/>
<path d="M66.8667 58.7314C66.3438 58.3117 65.9889 58.3611 65.6981 58.9446" stroke="#030500" stroke-width="1.5" stroke-linecap="round"/>
<path d="M70.5847 55.2138C70.5075 55.5624 69.9586 55.8194 69.7112 56.0428C69.4783 56.2532 69.0664 56.1731 68.7787 56.1731" stroke="#030500" stroke-width="1.5" stroke-linecap="round"/>
<path d="M74.4087 55.5337C74.4293 55.7202 74.6813 55.9407 74.7805 56.12C74.9001 56.3361 74.8336 56.6788 74.8336 56.9194C74.8336 57.3364 74.8354 58.3042 74.4087 58.5183" stroke="#030500" stroke-width="1.5" stroke-linecap="round"/>
<path d="M64.6353 59.9039C64.1817 59.4944 63.7854 59.0784 63.7854 58.4175C63.7854 57.7554 63.5839 56.727 63.9978 56.1731" stroke="#030500" stroke-width="1.5" stroke-linecap="round"/>
<path d="M70.6911 50.0973C70.6911 47.772 70.6911 45.4467 70.6911 43.1213C70.6911 42.3475 70.7864 41.4797 71.2459 40.8236C71.5433 40.399 71.9368 39.4525 72.3909 39.2247" stroke="#030500" stroke-width="1.5" stroke-linecap="round"/>
<path d="M86.3071 39.7576C85.599 39.6391 85.0222 38.959 84.3949 38.6443C83.9988 38.4456 83.6434 38.229 83.2735 37.9928C82.5995 37.5625 81.8787 37.4923 81.078 37.5191C79.3057 37.5784 77.4909 39.0829 75.6836 38.4784" stroke="#030500" stroke-width="1.5" stroke-linecap="round"/>
<path d="M63.0422 39.2246C61.9023 39.2246 60.7652 39.3312 59.6191 39.3312C58.6774 39.3312 57.6861 39.031 56.7743 38.8219C56.2203 38.6948 55.2922 38.5347 54.7322 38.7153C54.0463 38.9365 53.5284 39.5285 52.8436 39.7576" stroke="#030500" stroke-width="1.5" stroke-linecap="round"/>
<path d="M74.8338 44.8743C75.6575 44.0478 76.4767 43.2234 77.5959 42.849" stroke="#030500" stroke-width="1.5" stroke-linecap="round"/>
<path d="M79.1891 42.6355C79.1891 42.4186 79.3377 42.4014 79.4016 42.2092" stroke="#030500" stroke-width="1.5" stroke-linecap="round"/>
<path d="M80.89 42.7422C81.0181 42.628 81.1109 42.5698 81.2087 42.4225" stroke="#030500" stroke-width="1.5" stroke-linecap="round"/>
<path d="M82.2701 43.3817C82.4292 43.3817 82.6311 43.297 82.6951 43.1685" stroke="#030500" stroke-width="1.5" stroke-linecap="round"/>
<path d="M83.9702 44.4477C84.2802 44.4477 84.4541 44.4083 84.7139 44.2345" stroke="#030500" stroke-width="1.5" stroke-linecap="round"/>
<path d="M80.829 43.5015C80.8604 43.785 80.9812 44.0052 80.9648 44.3191C80.952 44.562 80.641 45.0082 80.3876 45.0647C79.7368 45.2098 79.2639 44.9223 79.0635 44.3191" stroke="#030500" stroke-width="1.5" stroke-linecap="round"/>
<path d="M62.532 46.0985C62.1797 46.0592 61.7698 45.5814 61.5134 45.3528C61.2299 45.0999 60.7059 44.8758 60.3591 44.7018C59.7978 44.4201 58.9599 44.1908 58.322 44.1908" stroke="#030500" stroke-width="1.5" stroke-linecap="round"/>
<path d="M56.9646 44.0547C56.9646 43.8688 56.7767 43.7219 56.6251 43.6459" stroke="#030500" stroke-width="1.5" stroke-linecap="round"/>
<path d="M55.6743 44.8721C55.4179 44.8487 55.076 44.7082 54.8595 44.5996" stroke="#030500" stroke-width="1.5" stroke-linecap="round"/>
<path d="M54.9272 45.8259C54.5803 45.8259 54.2941 45.8489 53.9766 45.6897" stroke="#030500" stroke-width="1.5" stroke-linecap="round"/>
<path d="M54.1797 46.7798H53.2291" stroke="#030500" stroke-width="1.5" stroke-linecap="round"/>
<path d="M59.5888 45.3067C59.5888 45.8574 59.6214 46.2085 59.0116 46.3968C58.3675 46.5956 57.4838 46.4431 57.4838 45.5792" stroke="#030500" stroke-width="1.5" stroke-linecap="round"/>
<path d="M74.8455 18.7341C74.701 17.2847 73.1671 15.6853 72.1814 14.7245C71.1731 13.7417 69.7864 13.0392 68.3332 13.0061C66.7931 12.971 65.438 13.0847 63.9565 13.4304C63.369 13.5675 61.2259 13.9882 60.9541 14.5336" stroke="#030500" stroke-width="1.5" stroke-linecap="round"/>
<path d="M58.4805 16.061C57.7487 16.061 57.0808 16.8411 56.4824 17.2066C54.9578 18.1378 54.0016 19.4124 52.6766 20.5373C51.9863 21.1233 51.2097 21.7321 50.4459 22.2133C49.3452 22.9068 48.6259 24.0771 47.8241 25.0773C45.8587 27.5291 43.9035 29.459 42.5911 32.3964C42.0235 33.6669 41.568 35.0436 40.6987 36.1515C40.0585 36.9675 39.0588 37.8571 38.6901 38.7821" stroke="#030500" stroke-width="1.5" stroke-linecap="round"/>
<path d="M38.3088 41.8372C38.3088 43.1947 37.3574 44.5191 37.3574 45.9529C37.3574 47.8811 37.6259 50 37.0614 51.8612C36.2358 54.5831 33.9568 56.3671 32.9807 58.9788C31.6756 62.4706 32.2167 66.6503 33.3612 70.0954" stroke="#030500" stroke-width="1.5" stroke-linecap="round"/>
<path d="M33.3612 72.1956C33.3612 74.6109 33.4263 77.0368 33.3612 79.451C33.2857 82.2535 30.6517 84.5578 28.2233 85.37" stroke="#030500" stroke-width="1.5" stroke-linecap="round"/>
<path d="M44.2084 65.3221C44.2084 68.8018 44.0811 72.0049 45.4347 75.2931C46.8348 78.6943 47.4434 81.7042 47.4434 85.3701" stroke="#030500" stroke-width="1.5" stroke-linecap="round"/>
<path d="M47.4434 88.9977C47.4434 90.3102 47.2558 91.3031 46.7773 92.53C46.4815 93.2886 45.9649 95.4895 44.9696 95.4895" stroke="#030500" stroke-width="1.5" stroke-linecap="round"/>
<path d="M44.3989 77.7326C44.2319 78.487 43.1431 79.2752 42.8026 80.0344C42.3087 81.1356 42.1797 82.6464 42.126 83.8319C42.0046 86.5106 42.1609 88.7929 43.6378 91.098" stroke="#030500" stroke-width="1.5" stroke-linecap="round"/>
<path d="M40.5928 68.9499C40.5071 69.3367 39.9372 69.9116 39.7259 70.2971C39.3114 71.0531 38.8924 71.81 38.4996 72.5776C38.0919 73.3743 37.5481 74.3266 37.5481 75.2507" stroke="#030500" stroke-width="1.5" stroke-linecap="round"/>
<path d="M38.6897 83.8425C38.6897 86.3471 37.7634 88.548 35.0741 88.9977" stroke="#030500" stroke-width="1.5" stroke-linecap="round"/>
<path d="M42.4955 61.8853C42.4955 57.3312 42.314 53.0287 43.4364 48.5942C44.0127 46.3175 44.652 44.0231 45.1596 41.7311C45.4485 40.427 46.1111 39.1859 46.1111 37.8276" stroke="#030500" stroke-width="1.5" stroke-linecap="round"/>
<path d="M48.5847 37.6366C48.5847 40.449 47.2838 43.1826 46.4175 45.8361C45.8274 47.6437 45.8766 49.5581 45.688 51.4262C45.5834 52.4635 45.3498 53.6095 45.3498 54.6297" stroke="#030500" stroke-width="1.5" stroke-linecap="round"/>
<path d="M74.4643 13.7698C75.0701 13.7698 75.7907 13.6306 76.3778 13.4834C77.5281 13.1948 78.9006 13.3879 80.0779 13.3879C82.8998 13.3879 85.4839 14.6154 87.8059 16.0716C89.3349 17.0304 90.7398 18.1266 91.9289 19.4978C93.6677 21.5028 94.8607 23.7133 96.2422 25.9259C97.9703 28.6936 99.6483 31.6579 101.105 34.5816" stroke="#030500" stroke-width="1.5" stroke-linecap="round"/>
<path d="M102.627 37.4458C102.627 39.499 104.265 41.2582 104.34 43.3648C104.381 44.5216 104.593 45.633 104.52 46.8016C104.479 47.4487 104.15 49.3593 104.15 48.7109" stroke="#030500" stroke-width="1.5" stroke-linecap="round"/>
<path d="M102.057 42.028C102.057 45.4517 102.782 48.24 104.245 51.2883C105.885 54.7057 109.859 57.6563 109.859 61.6942" stroke="#030500" stroke-width="1.5" stroke-linecap="round"/>
<path d="M106.814 59.9758C106.996 61.1636 108.057 62.5468 108.738 63.5081C109.768 64.9618 111.013 66.291 111.952 67.8041C113.415 70.1643 113.855 72.2109 113.855 74.9748C113.855 76.5614 114.012 78.1675 113.474 79.6845C113.169 80.5463 113.008 83.0263 112.142 83.4607" stroke="#030500" stroke-width="1.5" stroke-linecap="round"/>
<path d="M86.8336 25.4168C86.8336 26.3531 87.5137 27.3422 87.9753 28.1323C88.7866 29.5209 89.343 31.1447 90.1531 32.5768C91.2302 34.481 91.5536 36.5112 92.0772 38.6125C92.59 40.6705 92.9989 42.9602 93.1132 45.083C93.243 47.4928 93.8675 49.6485 94.4453 51.9672C94.8972 53.7809 95.3967 57.4937 95.3967 57.4937" stroke="#030500" stroke-width="1.5" stroke-linecap="round"/>
<path d="M95.3972 62.2672C95.3972 64.0985 94.9487 65.6288 94.4458 67.3799C93.9481 69.113 93.6926 70.9502 93.3463 72.7261C92.9366 74.8272 92.8675 77.0478 93.8326 78.9845C94.2792 79.8806 94.7391 80.8082 95.1012 81.7424C95.3162 82.297 95.3431 82.8337 95.7778 83.2699" stroke="#030500" stroke-width="1.5" stroke-linecap="round"/>
<path d="M96.3488 86.8977C96.4955 88.517 97.4632 90.0384 97.4905 91.7135C97.5057 92.6393 97.4905 93.5667 97.4905 94.4926C97.4905 94.6594 97.5538 95.8077 97.3003 95.2988" stroke="#030500" stroke-width="1.5" stroke-linecap="round"/>
<path d="M105.292 92.2436C105.092 91.2425 103.33 90.2236 102.638 89.5705C101.502 88.4979 100.619 87.4047 99.7733 86.0913C98.155 83.5791 96.9189 80.3698 96.9189 77.3508" stroke="#030500" stroke-width="1.5" stroke-linecap="round"/>
<path d="M107.576 89.1889C106.68 89.099 105.017 87.7878 104.721 86.8977" stroke="#030500" stroke-width="1.5" stroke-linecap="round"/>
<path d="M111 87.2795C108.989 87.2795 107.156 85.1281 106.053 83.6517" stroke="#030500" stroke-width="1.5" stroke-linecap="round"/>
<path d="M105.292 80.5967C105.292 79.7151 104.77 78.952 104.34 78.21C103.398 76.5812 102.787 74.8201 102.162 73.0548C101.391 70.874 101.486 68.3738 101.486 66.0857" stroke="#030500" stroke-width="1.5" stroke-linecap="round"/>
<path d="M108.907 75.0594C108.907 72.1387 106.209 69.2263 104.953 66.6583C103.973 64.6529 102.692 62.9046 101.105 61.3122" stroke="#030500" stroke-width="1.5" stroke-linecap="round"/>
<path d="M94.2554 29.8083C94.1195 29.1268 93.223 28.2507 92.8176 27.6975C92.1938 26.8462 91.5153 26.0553 90.8724 25.2259C89.8151 23.862 88.7961 22.6123 87.5951 21.4073" stroke="#030500" stroke-width="1.5" stroke-linecap="round"/>
<path d="M84.5498 18.734C83.2752 18.6061 82.273 17.5884 80.9343 17.5884" stroke="#030500" stroke-width="1.5" stroke-linecap="round"/>
<path d="M84.9307 23.3166C84.3826 22.8217 82.9272 21.9693 82.6472 21.4073" stroke="#030500" stroke-width="1.5" stroke-linecap="round"/>
<path d="M69.7073 17.9706C67.5102 17.9706 64.9547 17.6508 62.8568 18.3525" stroke="#030500" stroke-width="1.5" stroke-linecap="round"/>
<path d="M65.7109 15.2972C65.1109 15.2972 64.3175 15.1473 63.808 15.4881" stroke="#030500" stroke-width="1.5" stroke-linecap="round"/>
<path d="M89.3071 91.4801C87.4261 91.4801 85.7608 92.6755 84.1692 93.5804C82.4667 94.5484 80.9261 95.5833 79.4119 96.8263C78.2508 97.7795 76.7272 98.6854 75.4052 99.4039C74.0476 100.142 72.5148 100.508 71.1871 101.303C69.8783 102.086 68.1342 103.596 66.5778 103.88C65.5957 104.059 64.6466 104.082 63.6177 104.082" stroke="#030500" stroke-width="1.5" stroke-linecap="round"/>
<path d="M62.2856 103.318C62.1586 102.68 61.0724 102.007 60.6576 101.536C60.1795 100.993 59.7069 100.47 59.2833 99.881C58.729 99.1109 58.3271 98.1224 58.0992 97.2079" stroke="#030500" stroke-width="1.5" stroke-linecap="round"/>
<path d="M65.3303 105.227C65.3303 106.274 65.6914 106.973 66.1866 107.89C66.6926 108.827 66.9456 109.598 67.2332 110.616C67.7194 112.338 68.129 114.042 68.3644 115.814C68.4735 116.635 68.7251 117.429 68.7555 118.253C68.7717 118.692 68.8169 121.163 69.2313 121.255C70.6594 121.574 71.3247 120.693 71.8954 119.547C72.6696 117.994 73.2117 117.016 74.6969 116.068C75.7083 115.422 76.4524 114.435 77.3293 113.628C78.5664 112.491 80.141 111.678 81.4945 110.68C82.9058 109.638 84.6589 108.555 85.8818 107.328" stroke="#030500" stroke-width="1.5" stroke-linecap="round"/>
<path d="M88.7362 105.609C90.3087 104.175 92.1303 103.012 93.6944 101.599C94.3993 100.963 95.1042 100.365 95.777 99.6901C96.2964 99.1689 97.0035 98.007 97.6799 97.7807" stroke="#030500" stroke-width="1.5" stroke-linecap="round"/>
<path d="M62.4763 104.654C62.4763 105.847 61.67 106.786 61.0386 107.709C60.2603 108.847 59.5714 110.035 58.8713 111.22C57.9091 112.85 57.0085 114.536 56.4293 116.344C56.1614 117.18 56.0502 119.547 54.9598 119.547C53.9459 119.547 53.152 117.736 53.152 116.874" stroke="#030500" stroke-width="1.5" stroke-linecap="round"/>
<path d="M52.9619 115.156C52.9619 113.834 53.1856 112.364 52.6236 111.146C52.0645 109.935 51.448 108.424 51.1013 107.137C50.6178 105.342 50.4881 103.825 50.4881 101.981" stroke="#030500" stroke-width="1.5" stroke-linecap="round"/>
<path d="M64.3792 107.709C64.1346 107.74 63.9297 108.015 63.7026 108.081C63.3096 108.193 63.123 107.652 62.8568 107.518" stroke="#030500" stroke-width="1.5" stroke-linecap="round"/>
<path d="M65.521 119.356C65.521 120.272 65.521 121.188 65.521 122.104C65.521 123.364 65.0554 124.12 64.5695 125.254C63.637 127.431 63.2775 129.729 62.6666 132C61.7398 135.447 61.3837 138.976 60.9117 142.502C60.3266 146.872 58.3548 150.707 57.1481 154.912C56.2004 158.216 56.1967 161.396 56.1967 164.799" stroke="#030500" stroke-width="1.5" stroke-linecap="round"/>
<path d="M57.3376 121.647C57.3376 123.154 56.4985 124.423 56.0162 125.827C55.275 127.983 54.9516 130.163 54.4833 132.382C53.7092 136.05 53.6748 139.867 52.8552 143.509C52.4382 145.363 52.0771 147.199 51.4386 148.993C50.8426 150.668 50.1899 152.35 49.8317 154.096C49.2831 156.769 49.3454 159.774 49.3454 162.507" stroke="#030500" stroke-width="1.5" stroke-linecap="round"/>
<path d="M52.0103 157.734C55.1113 158.045 52.9025 161.513 51.82 160.789" stroke="#030500" stroke-width="1.5" stroke-linecap="round"/>
<path d="M57.7185 131.194C58.7889 131.194 59.4312 131.958 59.4312 133.019C59.4312 134.05 57.7673 135.302 57.1476 134.058" stroke="#030500" stroke-width="1.5" stroke-linecap="round"/>
<path d="M100.344 96.0622C102.615 96.0622 104.804 97.4187 106.814 98.364C108.966 99.3761 111.123 100.284 113.104 101.61C114.291 102.403 115.218 103.494 116.413 104.262C117.755 105.123 119.111 105.754 120.61 106.288C121.909 106.75 122.967 107.063 124.321 107.285C125.713 107.514 127.124 107.795 128.359 108.515C129.835 109.376 130.924 110.98 132.313 111.91" stroke="#030500" stroke-width="1.5" stroke-linecap="round"/>
<path d="M134.026 115.538C134.026 116.968 134.775 118.156 135.453 119.367C136.588 121.391 137.551 123.581 138.403 125.742C139.304 128.028 140.172 130.398 140.961 132.722C141.412 134.047 142.209 138.131 142.209 136.731" stroke="#030500" stroke-width="1.5" stroke-linecap="round"/>
<path d="M142.97 139.404C141.981 140.521 143.87 144.174 144.217 145.334C145.091 148.255 146.023 151.148 146.775 154.106C147.591 157.313 148.119 160.499 148.763 163.727C148.968 164.754 148.879 165.818 149.059 166.857C149.282 168.149 149.546 169.436 149.82 170.718" stroke="#030500" stroke-width="1.5" stroke-linecap="round"/>
<path d="M132.504 129.858C132.504 131.335 132.334 132.129 131.256 133.21C129.589 134.882 127.954 136.554 126.52 138.439C125.01 140.424 123.662 142.436 122.799 144.793C122.123 146.64 121.277 148.488 121.277 150.478" stroke="#030500" stroke-width="1.5" stroke-linecap="round"/>
<path d="M124.321 130.049C121.239 133.485 118.422 137.604 118.422 142.459" stroke="#030500" stroke-width="1.5" stroke-linecap="round"/>
<path d="M117.661 127.567C117.661 129.992 116.184 132.429 115.716 134.822C114.893 139.024 114.426 143.05 114.426 147.349C114.426 151.546 114.426 155.743 114.426 159.94C114.426 161.156 114.411 162.374 114.426 163.589C114.442 164.896 114.807 166.179 114.807 167.472" stroke="#030500" stroke-width="1.5" stroke-linecap="round"/>
<path d="M130.029 143.987C129.877 144.547 129.229 145.06 128.888 145.514C128.072 146.6 127.452 147.788 126.71 148.919C125.736 150.405 124.683 151.833 123.75 153.343C121.662 156.717 121.656 161.534 121.656 165.371" stroke="#030500" stroke-width="1.5" stroke-linecap="round"/>
<path d="M46.8716 102.554C44.119 102.554 41.4549 104.366 38.8793 105.227C37.2951 105.757 35.5724 106.026 34.1114 106.85C33.0099 107.472 32.135 108.218 31.0879 108.94C30.1151 109.611 29.2943 110.403 28.223 110.955C26.7014 111.739 25.3299 112.78 24.322 114.18C23.3056 115.592 22.3899 116.825 21.9433 118.593C21.4431 120.573 21.5627 122.679 21.5627 124.703" stroke="#030500" stroke-width="1.5" stroke-linecap="round"/>
<path d="M20.6116 122.411C20.4896 123.635 19.1536 124.75 18.5184 125.7C17.6589 126.985 17.369 128.407 16.6154 129.709C15.8297 131.067 16.0446 132.933 16.0446 134.44C16.0446 136.762 16.0125 139.042 15.812 141.356C15.5832 143.996 15.0717 146.604 14.7125 149.227C14.2393 152.682 14.3401 156.184 13.9091 159.643C13.4955 162.963 12.9999 166.215 12.9999 169.572" stroke="#030500" stroke-width="1.5" stroke-linecap="round"/>
<path d="M18.8994 131.958C18.8994 132.628 19.3012 133.098 19.5655 133.687C19.9755 134.601 20.2912 135.592 20.6121 136.54C20.9289 137.477 21.3471 138.371 21.6587 139.309C22.0915 140.612 22.2033 142.053 22.515 143.393C23.1735 146.224 23.2762 148.9 23.2762 151.804C23.2762 153.335 23.2762 154.866 23.2762 156.397C23.2762 156.887 23.5447 158.649 23.0859 158.88" stroke="#030500" stroke-width="1.5" stroke-linecap="round"/>
<path d="M20.9927 156.779C20.9927 157.708 21.6485 158.684 21.9442 159.558C22.2316 160.409 22.3933 161.265 22.6102 162.136C22.9921 163.669 22.8956 165.501 22.8956 167.09" stroke="#030500" stroke-width="1.5" stroke-linecap="round"/>
<path d="M97.8708 121.266C97.771 122.268 96.3488 123.44 95.7776 124.236C94.9173 125.435 93.8702 126.721 93.3038 128.097C92.7184 129.519 92.371 131.096 92.1621 132.616C92.0617 133.346 92.1052 134.879 91.5912 135.395" stroke="#030500" stroke-width="1.5" stroke-linecap="round"/>
<path d="M90.0691 122.03C89.2232 122.793 88.4209 123.598 87.7856 124.554C87.31 125.27 87.0665 125.997 86.4535 126.612" stroke="#030500" stroke-width="1.5" stroke-linecap="round"/>
<path d="M82.4568 130.812C82.3068 132.166 81.1625 133.372 80.7442 134.631" stroke="#030500" stroke-width="1.5" stroke-linecap="round"/>
<path d="M125.463 114.201C124.365 114.311 122.871 116.052 122.037 116.726C121.372 117.263 120.772 118.17 120.504 118.974C120.405 119.273 119.884 120.442 119.754 120.311" stroke="#030500" stroke-width="1.5" stroke-linecap="round"/>
<path d="M43.4469 116.874C43.4469 118.774 43.9067 120.226 44.3561 122.029C44.6005 123.01 45.3499 125.904 45.3499 124.893" stroke="#030500" stroke-width="1.5" stroke-linecap="round"/>
<path d="M45.9204 128.903V129.858" stroke="#030500" stroke-width="1.5" stroke-linecap="round"/>
<path d="M57.8962 80.1639C57.8962 83.0481 58.5197 85.6804 59.1057 88.4897C59.5243 90.4964 59.8534 92.5387 59.9214 94.5858C59.9655 95.9122 60.4277 97.1223 60.4277 98.4523" stroke="#030500" stroke-width="1.5" stroke-linecap="round"/>
<path d="M78.575 65.7737C77.7381 65.8576 76.8976 66.492 76.0807 66.709C75.3805 66.895 74.7744 66.9112 74.04 66.9112" stroke="#030500" stroke-width="1.5" stroke-linecap="round"/>
<path d="M65.1968 67.2526C64.1412 67.2526 62.6248 67.498 61.6822 67.0251" stroke="#030500" stroke-width="1.5" stroke-linecap="round"/>
<path d="M72.9062 67.2526C71.8626 67.2526 70.8639 67.784 69.82 67.8214C68.9152 67.8538 68.0137 67.8214 67.1242 67.8214" stroke="#030500" stroke-width="1.5" stroke-linecap="round"/>
<path d="M76.4211 68.4875C75.8983 68.4875 75.2455 69.0982 74.8906 69.4544C74.4412 69.9053 74.0808 70.3163 73.4671 70.5856C72.3353 71.0825 70.9796 71.4451 69.7321 71.4451" stroke="#030500" stroke-width="1.5" stroke-linecap="round"/>
<path d="M68.1445 71.2178C67.429 71.2178 66.3725 70.8231 65.8141 70.3646C65.1816 69.8454 63.8608 69.5605 63.4962 68.8289" stroke="#030500" stroke-width="1.5" stroke-linecap="round"/>
</g>
<defs>
<clipPath id="clip0_2059_101">
<rect width="160" height="160" fill="white"/>
</clipPath>
</defs>
</svg>
