<svg viewBox="0 0 183 182" xmlns="http://www.w3.org/2000/svg">
<path d="M84.07 10.9784C86.5222 10.9784 88.5839 12.4218 90.3827 13.7359C92.9278 15.5952 95.1413 18.2686 96.5711 20.8864C97.6886 22.9324 98.1459 24.9935 98.8849 27.1313C99.1799 27.9846 99.505 28.8582 99.576 29.7536C99.5914 29.948 99.4497 30.5622 99.7235 30.443M101.4 34.336C101.4 35.6818 101.24 37.0946 101.478 38.425C101.795 40.1999 102.566 41.8223 103.046 43.5547C104.093 47.3304 104.475 51.0056 104.475 54.8955M104.056 57.3287C104.056 60.239 102.565 62.8712 101.75 65.6552C101.39 66.8852 100.981 68.0928 100.981 69.3724V72.0488M101.261 74.7246C101.261 78.0294 102.551 80.862 103.885 83.9298C104.925 86.3205 105.886 88.6439 106.152 91.2154C106.301 92.6521 106.292 94.0869 106.292 95.5274M80.4354 10.005C79.373 10.005 78.3792 10.059 77.3296 10.2483C73.9576 10.8561 70.7422 11.2215 67.2977 11.2215C65.5551 11.2215 64.0023 11.4755 62.3516 11.9446C61.2696 12.2522 60.2464 12.7402 59.1914 13.0463M56.676 15.6012C56.099 15.6515 55.4778 16.3447 55.1424 16.719L55.1386 16.7231C54.6915 17.2221 54.3657 17.8051 53.9506 18.3249C53.2986 19.1416 52.5517 19.8934 51.9551 20.7445C51.0844 21.9866 50.5618 23.3983 49.8354 24.705C49.4279 25.4381 48.9368 26.2453 48.7095 27.0367M60.1695 15.1145C58.6126 15.4272 57.3758 17.3902 56.5356 18.4262C55.3318 19.9106 54.5775 21.6897 53.6006 23.2923C52.5201 25.0647 52.2438 26.9189 51.8924 28.8884C51.5596 30.7534 51.3644 32.575 51.3644 34.4574M50.9452 38.1072C50.9452 40.0433 50.9175 41.9613 50.7356 43.8925C50.6259 45.0574 50.7132 46.22 50.526 47.3799C50.2646 48.9991 49.9934 50.6182 49.7495 52.2393C49.5228 53.7461 48.9289 55.1653 48.6391 56.6593C48.3196 58.3069 48.15 59.8598 48.15 61.5322C48.15 62.9666 48.1807 64.375 48.577 65.7766C48.8017 66.5709 49.1353 67.3463 49.2681 68.1556M49.8271 58.7885C49.8271 62.0273 52.7856 64.5753 53.4609 67.6827C53.9772 70.0578 54.02 72.3406 54.02 74.7521C54.02 75.8704 53.9622 77.0013 54.0355 78.1179C54.1156 79.338 54.7205 80.453 55.0294 81.6323C55.6708 84.0813 56.2562 86.8458 56.2562 89.3776C56.2562 91.0053 55.7575 92.5032 54.9983 93.9869C54.5712 94.8217 54.3006 95.7014 53.8802 96.5348C53.7123 96.8678 53.4219 97.1237 53.3212 97.4743M53.322 87.0115V89.9312C53.322 91.1409 52.8459 92.0958 52.3747 93.2158C51.9302 94.2724 51.5353 95.3131 50.946 96.3248C50.6861 96.7709 50.1461 97.1295 49.9677 97.5954M50.1066 70.8317C50.1066 72.9448 51.1975 75.2383 51.7838 77.2793M97.9065 72.1642C97.3863 72.5346 96.6437 72.9585 96.0586 73.259C95.1517 73.7249 94.4339 74.3321 93.5739 74.8405C91.504 76.0643 89.1236 76.5292 86.9351 77.5169C84.7314 78.5115 81.832 79.4634 79.318 79.4634M76.3834 79.9506C71.7828 79.9506 67.4048 78.9397 63.4553 76.9025C62.5151 76.4175 61.4172 76.022 60.6212 75.3548C59.7593 74.6323 59.0081 73.8973 58.0123 73.2731C56.3795 72.2499 55.8818 70.6971 55.2791 69.1234M77.5002 52.7056C77.863 52.6705 78.0533 52.4623 78.4786 52.4623C78.9298 52.4623 78.8978 52.8829 78.8978 53.1922M72.1897 53.1923C71.5018 52.7133 71.0348 52.7697 70.6523 53.4356M77.0814 49.1779C76.9798 49.5758 76.2577 49.8692 75.9322 50.1241C75.6258 50.3642 75.0839 50.2728 74.7054 50.2728M82.1122 49.5429C82.1394 49.7557 82.4708 50.0074 82.6014 50.212C82.7588 50.4586 82.6713 50.8497 82.6713 51.1244V51.1304C82.6713 51.6096 82.6713 52.7058 82.1122 52.9492M69.2543 54.5306C68.6577 54.0632 68.1362 53.5885 68.1362 52.8342C68.1362 52.0786 67.8711 50.9048 68.4157 50.2727M77.2213 43.3385V35.377C77.2213 34.4938 77.3467 33.5034 77.9512 32.7547C78.3424 32.27 78.8602 31.1898 79.4575 30.9299M97.766 31.5379C96.8344 31.4027 96.0756 30.6265 95.2503 30.2673C94.7292 30.0405 94.2616 29.7934 93.775 29.5238C92.8883 29.0327 91.94 28.9526 90.8866 28.9831C88.5549 29.0508 86.1675 30.7679 83.7897 30.078M67.158 30.9296C65.6583 30.9296 64.1624 31.0512 62.6545 31.0512C61.4157 31.0512 60.1115 30.7086 58.912 30.47C58.1831 30.325 56.9621 30.1422 56.2254 30.3483C55.323 30.6008 54.6417 31.2764 53.7407 31.5378M82.6723 37.3773L82.6833 37.3677C83.7633 36.4277 84.8386 35.4917 86.3062 35.0659M88.4017 34.8227C88.4017 34.5751 88.5972 34.5554 88.6812 34.336M90.6386 34.9441C90.8072 34.8137 90.9291 34.7473 91.0579 34.5792M92.4546 35.6741C92.6639 35.6741 92.9295 35.5774 93.0137 35.4308M94.6908 36.8908C95.0987 36.8908 95.3274 36.8458 95.6692 36.6474M90.5587 35.8106C90.6 36.1342 90.759 36.3855 90.7373 36.7437C90.7206 37.021 90.3114 37.5302 89.978 37.5947C89.1218 37.7603 88.4997 37.4322 88.236 36.7437M66.4867 38.7746C66.0232 38.7298 65.484 38.1846 65.1468 37.9236C64.7737 37.635 64.0844 37.3792 63.6281 37.1806C62.8896 36.8592 61.7873 36.5974 60.9481 36.5974M59.162 36.4421C59.162 36.23 58.9148 36.0623 58.7153 35.9755M57.4645 37.3749C57.1271 37.3482 56.6773 37.1878 56.3925 37.0639M56.482 38.4637C56.0256 38.4637 55.649 38.49 55.2314 38.3082M55.499 39.552H54.2484M62.6152 37.871C62.6152 38.4995 62.6581 38.9002 61.8559 39.1151C61.0084 39.3421 59.8459 39.168 59.8459 38.182M82.6864 7.54421C82.4964 5.89001 80.4784 4.06466 79.1816 2.96813C77.8551 1.84652 76.0308 1.04476 74.119 1.00694C72.0928 0.966863 70.3101 1.09665 68.361 1.49119C67.5881 1.64764 64.7686 2.12783 64.4111 2.75022M61.1564 4.49334C60.1938 4.49334 59.3151 5.38367 58.5278 5.8008C56.522 6.86353 55.264 8.31821 53.5208 9.6021C52.6128 10.2709 51.591 10.9657 50.5862 11.5149C49.1381 12.3063 48.1918 13.642 47.137 14.7835C44.5513 17.5816 41.979 19.7842 40.2524 23.1367C39.5057 24.5867 38.9064 26.1578 37.7628 27.4222C36.9205 28.3535 35.6054 29.3688 35.1203 30.4245M34.6198 33.9112C34.6198 35.4605 33.3681 36.972 33.3681 38.6084C33.3681 40.809 33.7214 43.2272 32.9787 45.3514C31.8925 48.4578 28.8942 50.4939 27.6101 53.4746C25.8932 57.4597 26.6051 62.23 28.1108 66.1617M28.1103 68.5589C28.1103 71.3156 28.1959 74.0841 28.1103 76.8395C28.011 80.0379 24.5456 82.6677 21.351 83.5946M42.3807 60.7141C42.3807 64.6855 42.2133 68.3411 43.9941 72.0938C45.8361 75.9755 46.6366 79.4107 46.6366 83.5946M46.6366 87.7344C46.6366 89.2323 46.3899 90.3655 45.7604 91.7657C45.3712 92.6316 44.6915 95.1433 43.3821 95.1433M42.6312 74.8781C42.4114 75.7391 40.9791 76.6386 40.5311 77.5051C39.8814 78.7619 39.7116 80.4862 39.641 81.8391C39.4813 84.8963 39.6869 87.501 41.6298 90.1318M37.624 64.8546C37.5113 65.2961 36.7615 65.9522 36.4836 66.3921C35.9383 67.255 35.387 68.1189 34.8702 68.9949C34.3338 69.9041 33.6185 70.9909 33.6185 72.0456M35.1199 81.851C35.1199 84.7094 33.9013 87.2212 30.3633 87.7345M40.1273 56.792C40.1273 51.5945 39.8885 46.6842 41.3652 41.6231C42.1233 39.0248 42.9644 36.4062 43.6322 33.7905C44.0122 32.302 44.8839 30.8856 44.8839 29.3354M48.1379 29.1171C48.1379 32.3268 46.4264 35.4467 45.2867 38.4751C44.5103 40.538 44.5751 42.7229 44.327 44.8549C44.1893 46.0388 43.882 47.3467 43.882 48.511M82.1858 1.87837C82.9827 1.87837 83.9308 1.71958 84.7032 1.55151C86.2164 1.22221 88.0221 1.44255 89.571 1.44255C93.2834 1.44255 96.6831 2.84351 99.7379 4.50539C101.749 5.5997 103.598 6.85072 105.162 8.41564C107.45 10.7039 109.019 13.2267 110.837 15.7519C113.11 18.9106 115.318 22.2937 117.234 25.6305M119.237 28.8997C119.237 31.243 121.392 33.2507 121.49 35.6549C121.545 36.9751 121.823 38.2436 121.727 39.5772C121.674 40.3158 121.24 42.4963 121.24 41.7563M118.486 34.1291C118.486 38.0365 119.44 41.2188 121.365 44.6977C123.522 48.5979 128.75 51.9654 128.75 56.5737M124.744 54.6123C124.984 55.9678 126.379 57.5465 127.276 58.6436C128.631 60.3026 130.269 61.8196 131.504 63.5466C133.429 66.2402 134.007 68.5759 134.007 71.7302C134.007 73.541 134.214 75.374 133.507 77.1053C133.105 78.0889 132.893 80.9193 131.754 81.4151M98.4586 15.1709C98.4586 16.2395 99.3534 17.3683 99.9607 18.2701C101.028 19.8548 101.76 21.708 102.826 23.3425C104.243 25.5157 104.668 27.8327 105.357 30.2309C106.032 32.5796 106.57 35.1929 106.72 37.6156C106.891 40.3659 107.712 42.826 108.472 45.4724C109.067 47.5422 109.724 51.7797 109.724 51.7797M109.724 57.2277C109.724 59.3178 109.133 61.0643 108.472 63.0628C107.817 65.0407 107.481 67.1375 107.025 69.1643C106.486 71.5623 106.395 74.0965 107.665 76.3069C108.253 77.3296 108.858 78.3882 109.334 79.4544C109.617 80.0874 109.652 80.6999 110.224 81.1977M110.976 85.3379C111.169 87.1859 112.442 88.9223 112.478 90.834C112.498 91.8906 112.478 92.949 112.478 94.0058C112.478 94.1962 112.561 95.5066 112.228 94.9259M122.742 91.4393C122.48 90.2967 120.161 89.1339 119.251 88.3886C117.757 87.1643 116.595 85.9167 115.482 84.4178C113.353 81.5507 111.727 77.888 111.727 74.4424M125.746 87.9528C124.568 87.8502 122.38 86.3538 121.991 85.3379M130.252 85.7739C127.606 85.7739 125.195 83.3185 123.743 81.6336M122.742 78.1467C122.742 77.1406 122.055 76.2697 121.49 75.4228C120.25 73.5639 119.447 71.5541 118.625 69.5393C117.611 67.0504 117.735 64.1969 117.735 61.5856M127.499 71.8273C127.499 68.4939 123.949 65.1701 122.297 62.2393C121.007 59.9506 119.322 57.9552 117.234 56.1379M108.222 20.1832C108.043 19.4054 106.864 18.4055 106.33 17.7741C105.51 16.8025 104.617 15.8999 103.771 14.9534C102.38 13.3968 101.04 11.9705 99.4597 10.5952M95.4536 7.54425C93.7768 7.3983 92.4582 6.2368 90.697 6.2368M95.9547 12.7743C95.2338 12.2095 93.319 11.2366 92.9506 10.5952M75.9271 6.67284C73.0367 6.67284 69.6747 6.30785 66.9146 7.10866M70.6697 3.62169C69.8802 3.62169 68.8365 3.45063 68.1662 3.8396M101.712 90.5677C99.2375 90.5677 97.0467 91.932 94.9529 92.9647C92.7131 94.0695 90.6862 95.2506 88.6942 96.6692C87.1666 97.7571 85.1621 98.791 83.423 99.6109C81.6368 100.453 79.6203 100.871 77.8736 101.778C76.1518 102.672 73.8572 104.396 71.8096 104.72C70.5176 104.924 69.2689 104.95 67.9153 104.95M66.1631 104.078C65.9959 103.35 64.5669 102.582 64.0212 102.044C63.3923 101.424 62.7705 100.827 62.2131 100.156C61.4839 99.2767 60.9552 98.1485 60.6554 97.1048M70.1693 106.257C70.1693 107.452 70.6444 108.249 71.2958 109.296C71.9616 110.366 72.2944 111.245 72.6728 112.407C73.3124 114.372 73.8513 116.318 74.1609 118.339C74.3045 119.277 74.6355 120.183 74.6755 121.124C74.6968 121.624 74.7562 124.444 75.3014 124.55C77.1803 124.913 78.0554 123.908 78.8063 122.6C79.8248 120.827 80.5381 119.712 82.4919 118.63C83.8226 117.893 84.8015 116.766 85.9551 115.845C87.5827 114.547 89.6543 113.619 91.4349 112.48C93.2916 111.292 95.598 110.055 97.2068 108.654M100.962 106.693C103.03 105.056 105.427 103.729 107.484 102.117C108.412 101.39 109.339 100.708 110.224 99.9375C110.908 99.3427 111.838 98.0166 112.728 97.7584M66.4139 105.603C66.4139 106.965 65.3531 108.036 64.5224 109.09C63.4985 110.388 62.5922 111.744 61.6712 113.097C60.4053 114.956 59.2205 116.881 58.4584 118.944C58.106 119.898 57.9598 122.6 56.5252 122.6C55.1913 122.6 54.1469 120.533 54.1469 119.549M53.8968 117.588C53.8968 116.08 54.191 114.402 53.4517 113.012C52.7162 111.629 51.905 109.905 51.4489 108.436C50.8129 106.388 50.6422 104.657 50.6422 102.553M68.917 109.09C68.5952 109.125 68.3256 109.439 68.0268 109.513C67.5099 109.642 67.2644 109.024 66.9142 108.872M70.4193 122.382V125.518C70.4193 126.956 69.8068 127.818 69.1676 129.113C67.9408 131.598 67.4678 134.22 66.6641 136.813C65.4448 140.746 64.9763 144.774 64.3554 148.798C63.5857 153.785 60.9915 158.162 59.4041 162.962C58.1573 166.731 58.1523 170.361 58.1523 174.244M59.6541 124.997C59.6541 126.717 58.55 128.165 57.9155 129.767C56.9405 132.228 56.515 134.716 55.8988 137.248C54.8805 141.434 54.8353 145.791 53.757 149.948C53.2083 152.063 52.7334 154.159 51.8933 156.206C51.1092 158.117 50.2506 160.037 49.7792 162.03C49.0576 165.081 49.1395 168.51 49.1395 171.63M52.6446 166.182C56.7243 166.537 53.8184 170.495 52.3942 169.669M60.1548 135.893C61.5631 135.893 62.408 136.765 62.408 137.975C62.408 139.152 60.219 140.581 59.4038 139.162M116.232 95.7971C119.22 95.7971 122.1 97.3452 124.744 98.4241C127.575 99.5791 130.413 100.616 133.02 102.129C134.58 103.034 135.8 104.279 137.373 105.155C139.138 106.138 140.923 106.858 142.894 107.467C144.604 107.995 145.995 108.352 147.776 108.605C149.608 108.866 151.464 109.187 153.089 110.01C155.031 110.992 156.463 112.823 158.291 113.884M160.545 118.024C160.545 119.657 161.53 121.013 162.423 122.395C163.916 124.705 165.182 127.204 166.303 129.67C167.489 132.279 168.63 134.985 169.669 137.636C170.261 139.149 171.31 143.81 171.31 142.212M172.311 145.263C171.01 146.537 173.496 150.706 173.952 152.03C175.101 155.364 176.327 158.666 177.318 162.042C178.391 165.701 179.086 169.338 179.932 173.022C180.202 174.194 180.086 175.409 180.322 176.593C180.616 178.068 180.963 179.537 181.323 181M158.542 134.367C158.542 136.053 158.318 136.96 156.901 138.193C154.707 140.102 152.556 142.01 150.67 144.161C148.683 146.427 146.909 148.723 145.774 151.413C144.885 153.52 143.771 155.63 143.771 157.902M147.776 134.585C143.722 138.507 140.016 143.208 140.016 148.749M139.015 131.753C139.015 134.521 137.072 137.302 136.456 140.033C135.373 144.829 134.759 149.424 134.759 154.33V168.7C134.759 170.088 134.739 171.477 134.759 172.865C134.78 174.356 135.26 175.82 135.26 177.296M155.287 150.493C155.086 151.133 154.234 151.717 153.785 152.236C152.712 153.476 151.896 154.831 150.919 156.122C149.638 157.817 148.254 159.448 147.025 161.17C144.279 165.021 144.271 170.519 144.271 174.899M45.8852 103.207C42.2638 103.207 38.759 105.274 35.3706 106.257C33.2864 106.862 31.02 107.169 29.098 108.11C27.6487 108.819 26.4978 109.67 25.1202 110.494C23.8404 111.26 22.7606 112.165 21.3511 112.795C19.3493 113.689 17.545 114.877 16.219 116.475C14.8819 118.086 13.6772 119.494 13.0896 121.511C12.4315 123.771 12.5889 126.175 12.5889 128.484M11.3371 125.869C11.1767 127.265 9.41905 128.538 8.58332 129.622C7.45262 131.089 7.07123 132.712 6.07985 134.198C5.0461 135.748 5.3288 137.877 5.3288 139.597C5.3288 142.247 5.28667 144.849 5.02282 147.49C4.72189 150.503 4.04893 153.48 3.57637 156.473C2.95385 160.417 3.08639 164.413 2.51935 168.361C1.9753 172.15 1.32324 175.862 1.32324 179.693M9.0842 136.764C9.0842 137.529 9.61276 138.065 9.96042 138.737C10.4998 139.781 10.9152 140.911 11.3373 141.994C11.7542 143.063 12.3043 144.083 12.7142 145.154C13.2836 146.64 13.4308 148.285 13.8408 149.814C14.7071 153.046 14.8422 156.1 14.8422 159.414V164.656C14.8422 165.215 15.1954 167.227 14.5918 167.489M11.8378 165.093C11.8378 166.152 12.7006 167.266 13.0896 168.264C13.4678 169.235 13.6804 170.212 13.9658 171.206C14.4681 172.955 14.3413 175.046 14.3413 176.86M112.978 124.561C112.847 125.705 110.976 127.043 110.224 127.951C109.092 129.319 107.715 130.787 106.97 132.358C106.2 133.981 105.743 135.781 105.468 137.515C105.336 138.349 105.393 140.098 104.717 140.687M102.714 125.433C101.601 126.305 100.546 127.223 99.7099 128.315C99.0841 129.132 98.7639 129.961 97.9574 130.663M92.6997 135.457C92.5024 137.002 90.997 138.378 90.4465 139.815M149.279 116.499C147.835 116.624 145.87 118.611 144.773 119.38C143.897 119.994 143.108 121.028 142.756 121.946C142.625 122.287 141.94 123.621 141.768 123.472M41.3793 119.55C41.3793 121.718 41.9841 123.375 42.5754 125.433C42.8968 126.553 43.8827 129.856 43.8827 128.702M44.6331 133.278V134.367M60.3888 77.653C60.3888 80.9447 61.209 83.9489 61.98 87.155C62.5307 89.4453 62.9636 91.7761 63.0531 94.1123C63.1111 95.6262 63.7192 97.0073 63.7192 98.5251M87.5935 61.2296C86.4926 61.3254 85.3868 62.0494 84.3121 62.2971C83.3909 62.5093 82.5935 62.5279 81.6273 62.5279M69.9933 62.9173C68.6045 62.9173 66.6096 63.1973 65.3695 62.6576M80.1356 62.9176C78.7626 62.9176 77.4487 63.524 76.0753 63.5667C74.885 63.6037 73.699 63.5667 72.5288 63.5667M84.7594 64.3268C84.0715 64.3268 83.2128 65.0239 82.7458 65.4303C82.1546 65.945 81.6804 66.414 80.8731 66.7214C79.3841 67.2884 77.6005 67.7023 75.9593 67.7023M73.8707 67.4429C72.9293 67.4429 71.5394 66.9924 70.8047 66.4692C69.9727 65.8766 68.235 65.5514 67.7554 64.7165M84.6098 60.4042C83.5362 60.4042 82.4271 60.4174 81.3794 60.1855C80.9975 60.101 80.6112 60.0107 80.2339 59.9122C79.9106 59.8278 79.5417 59.7216 79.2044 59.7006C78.5661 59.661 77.967 59.7678 77.4008 60.031L77.3951 60.0337C77.1246 60.1594 76.8741 60.2758 76.5611 60.2758C76.3192 60.2758 75.6776 60.4113 75.4368 60.4113C75.1169 60.4113 74.784 60.3476 74.4892 60.2402C74.2736 60.1616 74.053 60.0611 73.8229 60.0191C73.5677 59.9726 73.2289 59.9856 72.9737 60.031C72.0593 60.1938 71.6914 60.4602 70.843 60.7679C70.3569 60.9442 69.8617 61.064 69.3562 61.1862C69.1988 61.2242 69.0675 61.2385 68.9056 61.2385" stroke="#0C3773" stroke-width="1.5" stroke-linecap="round"/>
</svg>
