<svg width="360" height="360" viewBox="0 0 360 360" fill="none" xmlns="http://www.w3.org/2000/svg">
<g opacity="0.6" clip-path="url(#clip0_1222_62107)">
<path d="M167.048 24.6797C171.258 24.6797 174.797 27.5264 177.885 30.1181C182.254 33.785 186.054 39.0576 188.508 44.2205C190.427 48.2557 191.212 52.3206 192.48 56.5368C192.987 58.2195 193.545 59.9426 193.667 61.7085C193.693 62.0919 193.45 63.3031 193.92 63.0681" stroke="#0C3773" stroke-width="3" stroke-linecap="round"/>
<path d="M196.798 70.7461C196.798 73.4003 196.523 76.1867 196.931 78.8103C197.476 82.3108 198.799 85.5107 199.624 88.9273C201.421 96.3738 202.076 103.622 202.076 111.294" stroke="#0C3773" stroke-width="3" stroke-linecap="round"/>
<path d="M201.357 116.093C201.357 121.833 198.798 127.024 197.399 132.514C196.78 134.94 196.079 137.322 196.079 139.846C196.079 141.605 196.079 143.365 196.079 145.124" stroke="#0C3773" stroke-width="3" stroke-linecap="round"/>
<path d="M196.559 150.401C196.559 156.919 198.774 162.506 201.064 168.556C202.849 173.271 204.5 177.853 204.956 182.925C205.211 185.758 205.196 188.588 205.196 191.429" stroke="#0C3773" stroke-width="3" stroke-linecap="round"/>
<path d="M160.809 22.7598C158.985 22.7598 157.279 22.8664 155.477 23.2396C149.688 24.4384 144.169 25.159 138.255 25.159C135.264 25.159 132.598 25.66 129.765 26.5853C127.907 27.1918 126.151 28.1543 124.34 28.758" stroke="#0C3773" stroke-width="3" stroke-linecap="round"/>
<path d="M120.021 33.7969C119.027 33.8963 117.956 35.2734 117.382 36.0095C116.615 36.9936 116.055 38.1434 115.343 39.1686C114.224 40.7792 112.941 42.262 111.917 43.9405C110.422 46.3903 109.525 49.1745 108.278 51.7515C107.579 53.1974 106.736 54.7894 106.346 56.3501" stroke="#0C3773" stroke-width="3" stroke-linecap="round"/>
<path d="M126.019 32.8369C123.346 33.4537 121.223 37.3251 119.78 39.3683C117.714 42.296 116.419 45.8047 114.742 48.9654C112.887 52.461 112.413 56.1178 111.81 60.0021C111.238 63.6804 110.903 67.2729 110.903 70.9854" stroke="#0C3773" stroke-width="3" stroke-linecap="round"/>
<path d="M110.184 78.1836C110.184 82.0021 110.136 85.7847 109.824 89.5935C109.635 91.8909 109.785 94.1838 109.464 96.4714C109.015 99.6648 108.55 102.858 108.131 106.055C107.742 109.027 106.722 111.826 106.225 114.773C105.676 118.022 105.385 121.085 105.385 124.383C105.385 127.212 105.438 129.99 106.118 132.754C106.504 134.32 107.076 135.85 107.304 137.446" stroke="#0C3773" stroke-width="3" stroke-linecap="round"/>
<path d="M108.264 118.972C108.264 125.359 113.343 130.385 114.502 136.513C115.388 141.197 115.462 145.7 115.462 150.456C115.462 152.661 115.363 154.892 115.489 157.094C115.626 159.5 116.664 161.699 117.195 164.025C118.296 168.855 119.301 174.307 119.301 179.3C119.301 182.51 118.445 185.465 117.141 188.391C116.408 190.037 115.944 191.772 115.222 193.416C114.934 194.073 114.435 194.577 114.262 195.269" stroke="#0C3773" stroke-width="3" stroke-linecap="round"/>
<path d="M114.264 174.634C114.264 176.553 114.264 178.473 114.264 180.392C114.264 182.778 113.446 184.661 112.637 186.87C111.874 188.954 111.197 191.006 110.185 193.002C109.739 193.881 108.812 194.589 108.505 195.508" stroke="#0C3773" stroke-width="3" stroke-linecap="round"/>
<path d="M108.744 142.724C108.744 146.891 110.617 151.414 111.623 155.44" stroke="#0C3773" stroke-width="3" stroke-linecap="round"/>
<path d="M190.801 145.352C189.908 146.082 188.633 146.918 187.628 147.511C186.072 148.43 184.839 149.627 183.363 150.63C179.81 153.044 175.723 153.96 171.966 155.908C168.183 157.87 163.206 159.747 158.89 159.747" stroke="#0C3773" stroke-width="3" stroke-linecap="round"/>
<path d="M153.853 160.708C145.955 160.708 138.439 158.714 131.659 154.697C130.045 153.74 128.161 152.96 126.794 151.644C125.314 150.219 124.025 148.77 122.315 147.539C119.512 145.521 118.658 142.458 117.623 139.354" stroke="#0C3773" stroke-width="3" stroke-linecap="round"/>
<path d="M155.77 106.975C156.393 106.906 156.719 106.495 157.449 106.495C158.224 106.495 158.169 107.325 158.169 107.935" stroke="#0C3773" stroke-width="3" stroke-linecap="round"/>
<path d="M146.653 107.935C145.472 106.99 144.671 107.101 144.014 108.415" stroke="#0C3773" stroke-width="3" stroke-linecap="round"/>
<path d="M155.051 100.018C154.876 100.802 153.637 101.381 153.078 101.884C152.552 102.357 151.622 102.177 150.972 102.177" stroke="#0C3773" stroke-width="3" stroke-linecap="round"/>
<path d="M163.687 100.737C163.734 101.157 164.303 101.653 164.527 102.057C164.797 102.543 164.647 103.315 164.647 103.856C164.647 104.795 164.651 106.973 163.687 107.455" stroke="#0C3773" stroke-width="3" stroke-linecap="round"/>
<path d="M141.614 110.574C140.59 109.652 139.695 108.716 139.695 107.229C139.695 105.738 139.24 103.423 140.175 102.177" stroke="#0C3773" stroke-width="3" stroke-linecap="round"/>
<path d="M155.291 88.501C155.291 83.267 155.291 78.033 155.291 72.799C155.291 71.0572 155.506 69.1039 156.544 67.6272C157.216 66.6714 158.104 64.5411 159.13 64.0283" stroke="#0C3773" stroke-width="3" stroke-linecap="round"/>
<path d="M190.56 65.2275C188.96 64.9609 187.658 63.43 186.241 62.7216C185.346 62.2743 184.544 61.7869 183.708 61.2553C182.186 60.2866 180.558 60.1287 178.75 60.189C174.747 60.3224 170.649 63.7089 166.567 62.3483" stroke="#0C3773" stroke-width="3" stroke-linecap="round"/>
<path d="M138.016 64.0277C135.441 64.0277 132.873 64.2677 130.285 64.2677C128.158 64.2677 125.919 63.592 123.86 63.1213C122.609 62.8353 120.512 62.475 119.248 62.8814C117.699 63.3794 116.529 64.7118 114.983 65.2274" stroke="#0C3773" stroke-width="3" stroke-linecap="round"/>
<path d="M164.649 76.7442C166.509 74.8839 168.359 73.0282 170.887 72.1855" stroke="#0C3773" stroke-width="3" stroke-linecap="round"/>
<path d="M174.484 71.7058C174.484 71.2175 174.82 71.1788 174.964 70.7461" stroke="#0C3773" stroke-width="3" stroke-linecap="round"/>
<path d="M178.324 71.9454C178.614 71.6882 178.823 71.5572 179.044 71.2256" stroke="#0C3773" stroke-width="3" stroke-linecap="round"/>
<path d="M181.442 73.3851C181.801 73.3851 182.257 73.1943 182.401 72.9053" stroke="#0C3773" stroke-width="3" stroke-linecap="round"/>
<path d="M185.28 75.7845C185.981 75.7845 186.373 75.6958 186.96 75.3047" stroke="#0C3773" stroke-width="3" stroke-linecap="round"/>
<path d="M178.187 73.6543C178.258 74.2924 178.531 74.7881 178.494 75.4945C178.465 76.0414 177.762 77.0457 177.19 77.1729C175.72 77.4996 174.652 76.8524 174.2 75.4945" stroke="#0C3773" stroke-width="3" stroke-linecap="round"/>
<path d="M136.863 79.5C136.068 79.4116 135.142 78.3363 134.563 77.8216C133.923 77.2524 132.739 76.7479 131.956 76.3562C130.688 75.7223 128.796 75.2061 127.355 75.2061" stroke="#0C3773" stroke-width="3" stroke-linecap="round"/>
<path d="M124.289 74.8996C124.289 74.4813 123.865 74.1507 123.522 73.9795" stroke="#0C3773" stroke-width="3" stroke-linecap="round"/>
<path d="M121.375 76.7394C120.796 76.6867 120.024 76.3704 119.535 76.126" stroke="#0C3773" stroke-width="3" stroke-linecap="round"/>
<path d="M119.688 78.8868C118.905 78.8868 118.258 78.9386 117.542 78.5801" stroke="#0C3773" stroke-width="3" stroke-linecap="round"/>
<path d="M118.001 81.0332H115.854" stroke="#0C3773" stroke-width="3" stroke-linecap="round"/>
<path d="M130.217 77.7178C130.217 78.9573 130.291 79.7477 128.914 80.1714C127.459 80.6191 125.463 80.2758 125.463 78.3312" stroke="#0C3773" stroke-width="3" stroke-linecap="round"/>
<path d="M164.673 17.9066C164.347 14.6442 160.882 11.0442 158.656 8.88158C156.379 6.66952 153.247 5.08829 149.965 5.0137C146.487 4.93465 143.427 5.19061 140.081 5.96873C138.754 6.27729 133.914 7.22432 133.3 8.45182" stroke="#0C3773" stroke-width="3" stroke-linecap="round"/>
<path d="M127.713 11.8896C126.06 11.8896 124.552 13.6456 123.2 14.4682C119.757 16.5642 117.598 19.4331 114.605 21.9653C113.046 23.2843 111.292 24.6546 109.567 25.7376C107.081 27.2985 105.457 29.9329 103.646 32.1841C99.2072 37.7027 94.7914 42.0466 91.8275 48.6584C90.5456 51.5181 89.5169 54.6168 87.5537 57.1105C86.1078 58.9472 83.8501 60.9497 83.0173 63.0317" stroke="#0C3773" stroke-width="3" stroke-linecap="round"/>
<path d="M82.1582 69.9082C82.1582 72.9637 80.0094 75.9449 80.0094 79.172C80.0094 83.5122 80.6159 88.2814 79.3409 92.4709C77.4763 98.5974 72.3292 102.613 70.1248 108.492C67.1775 116.351 68.3995 125.759 70.9843 133.513" stroke="#0C3773" stroke-width="3" stroke-linecap="round"/>
<path d="M70.9836 138.241C70.9836 143.678 71.1304 149.138 70.9836 154.572C70.8131 160.88 64.8641 166.067 59.3799 167.895" stroke="#0C3773" stroke-width="3" stroke-linecap="round"/>
<path d="M95.4811 122.77C95.4811 130.602 95.1937 137.812 98.2507 145.213C101.413 152.868 102.787 159.643 102.787 167.895" stroke="#0C3773" stroke-width="3" stroke-linecap="round"/>
<path d="M102.787 176.06C102.787 179.014 102.364 181.249 101.283 184.01C100.615 185.718 99.448 190.672 97.2002 190.672" stroke="#0C3773" stroke-width="3" stroke-linecap="round"/>
<path d="M95.9111 150.704C95.5338 152.402 93.0749 154.176 92.3059 155.885C91.1906 158.364 90.8991 161.764 90.7778 164.433C90.5038 170.462 90.8566 175.599 94.1921 180.788" stroke="#0C3773" stroke-width="3" stroke-linecap="round"/>
<path d="M87.3154 130.936C87.122 131.806 85.8347 133.1 85.3576 133.968C84.4216 135.67 83.4753 137.373 82.588 139.101C81.6672 140.894 80.4392 143.038 80.4392 145.118" stroke="#0C3773" stroke-width="3" stroke-linecap="round"/>
<path d="M83.0166 164.456C83.0166 170.094 80.9247 175.047 74.8511 176.06" stroke="#0C3773" stroke-width="3" stroke-linecap="round"/>
<path d="M91.6128 115.034C91.6128 104.784 91.2027 95.0993 93.7377 85.1178C95.0392 79.9933 96.4831 74.829 97.6295 69.6701C98.2818 66.7345 99.7783 63.9411 99.7783 60.8838" stroke="#0C3773" stroke-width="3" stroke-linecap="round"/>
<path d="M105.364 60.4531C105.364 66.7835 102.426 72.9365 100.47 78.9091C99.1369 82.9777 99.2481 87.2868 98.8223 91.4917C98.5858 93.8265 98.0583 96.406 98.0583 98.7022" stroke="#0C3773" stroke-width="3" stroke-linecap="round"/>
<path d="M163.813 6.73235C165.181 6.73235 166.809 6.41918 168.135 6.0877C170.733 5.43825 173.832 5.87282 176.491 5.87282C182.864 5.87282 188.701 8.63582 193.945 11.9134C197.398 14.0716 200.571 16.5389 203.256 19.6253C207.183 24.1383 209.877 29.1138 212.998 34.094C216.9 40.3237 220.69 46.996 223.98 53.5767" stroke="#0C3773" stroke-width="3" stroke-linecap="round"/>
<path d="M227.419 60.0244C227.419 64.6459 231.117 68.6055 231.287 73.3471C231.38 75.951 231.857 78.4527 231.692 81.0829C231.601 82.5394 230.857 86.8399 230.857 85.3805" stroke="#0C3773" stroke-width="3" stroke-linecap="round"/>
<path d="M226.129 70.3379C226.129 78.0442 227.767 84.3203 231.071 91.1815C234.775 98.8736 243.749 105.515 243.749 114.604" stroke="#0C3773" stroke-width="3" stroke-linecap="round"/>
<path d="M236.873 110.735C237.284 113.409 239.679 116.522 241.218 118.686C243.545 121.958 246.357 124.95 248.476 128.356C251.782 133.668 252.774 138.275 252.774 144.496C252.774 148.067 253.129 151.682 251.915 155.097C251.225 157.036 250.862 162.619 248.906 163.596" stroke="#0C3773" stroke-width="3" stroke-linecap="round"/>
<path d="M191.748 32.9482C191.748 35.0557 193.284 37.282 194.327 39.0605C196.159 42.1859 197.416 45.8408 199.245 49.0644C201.678 53.3504 202.408 57.9201 203.591 62.6498C204.749 67.282 205.672 72.436 205.931 77.214C206.224 82.6382 207.634 87.4903 208.939 92.7094C209.96 96.7917 211.088 105.149 211.088 105.149" stroke="#0C3773" stroke-width="3" stroke-linecap="round"/>
<path d="M211.087 115.894C211.087 120.016 210.074 123.46 208.938 127.402C207.814 131.303 207.237 135.438 206.455 139.435C205.53 144.164 205.374 149.163 207.553 153.522C208.562 155.539 209.6 157.627 210.418 159.73C210.904 160.978 210.965 162.186 211.946 163.168" stroke="#0C3773" stroke-width="3" stroke-linecap="round"/>
<path d="M213.237 171.333C213.568 174.978 215.753 178.402 215.815 182.173C215.849 184.256 215.815 186.344 215.815 188.428C215.815 188.804 215.958 191.388 215.385 190.243" stroke="#0C3773" stroke-width="3" stroke-linecap="round"/>
<path d="M233.436 183.366C232.985 181.113 229.004 178.82 227.443 177.35C224.877 174.935 222.883 172.475 220.972 169.518C217.318 163.864 214.526 156.64 214.526 149.845" stroke="#0C3773" stroke-width="3" stroke-linecap="round"/>
<path d="M238.593 176.49C236.569 176.288 232.814 173.337 232.146 171.333" stroke="#0C3773" stroke-width="3" stroke-linecap="round"/>
<path d="M246.328 172.193C241.785 172.193 237.647 167.35 235.154 164.027" stroke="#0C3773" stroke-width="3" stroke-linecap="round"/>
<path d="M233.436 157.15C233.436 155.166 232.257 153.449 231.287 151.778C229.158 148.112 227.778 144.148 226.368 140.175C224.627 135.266 224.84 129.638 224.84 124.488" stroke="#0C3773" stroke-width="3" stroke-linecap="round"/>
<path d="M241.601 144.687C241.601 138.113 235.507 131.558 232.671 125.778C230.457 121.264 227.564 117.328 223.98 113.744" stroke="#0C3773" stroke-width="3" stroke-linecap="round"/>
<path d="M208.509 42.8335C208.202 41.2995 206.177 39.3275 205.262 38.0822C203.853 36.1661 202.32 34.3859 200.869 32.5191C198.481 29.4492 196.179 26.6362 193.467 23.9238" stroke="#0C3773" stroke-width="3" stroke-linecap="round"/>
<path d="M186.59 17.9067C183.711 17.6189 181.448 15.3281 178.424 15.3281" stroke="#0C3773" stroke-width="3" stroke-linecap="round"/>
<path d="M187.45 28.2215C186.213 27.1076 182.926 25.1889 182.293 23.9238" stroke="#0C3773" stroke-width="3" stroke-linecap="round"/>
<path d="M153.069 16.1881C148.107 16.1881 142.336 15.4683 137.598 17.0476" stroke="#0C3773" stroke-width="3" stroke-linecap="round"/>
<path d="M144.044 10.1706C142.689 10.1706 140.897 9.83319 139.746 10.6003" stroke="#0C3773" stroke-width="3" stroke-linecap="round"/>
<path d="M197.334 181.647C193.086 181.647 189.325 184.338 185.73 186.375C181.885 188.554 178.406 190.883 174.986 193.681C172.364 195.826 168.923 197.866 165.937 199.483C162.871 201.144 159.409 201.967 156.411 203.756C153.455 205.52 149.516 208.919 146.001 209.558C143.783 209.962 141.639 210.012 139.316 210.012" stroke="#0C3773" stroke-width="3" stroke-linecap="round"/>
<path d="M136.308 208.293C136.021 206.858 133.567 205.342 132.631 204.281C131.551 203.059 130.484 201.882 129.527 200.557C128.275 198.823 127.367 196.598 126.853 194.54" stroke="#0C3773" stroke-width="3" stroke-linecap="round"/>
<path d="M143.185 212.591C143.185 214.947 144.001 216.519 145.119 218.584C146.262 220.693 146.833 222.428 147.483 224.72C148.581 228.595 149.506 232.432 150.037 236.419C150.284 238.268 150.852 240.056 150.921 241.91C150.957 242.897 151.059 248.459 151.995 248.667C155.221 249.384 156.723 247.401 158.012 244.823C159.76 241.326 160.985 239.126 164.339 236.992C166.623 235.538 168.304 233.316 170.284 231.5C173.078 228.939 176.634 227.111 179.691 224.863C182.878 222.519 186.838 220.08 189.6 217.318" stroke="#0C3773" stroke-width="3" stroke-linecap="round"/>
<path d="M196.045 213.449C199.597 210.221 203.711 207.603 207.243 204.424C208.835 202.992 210.427 201.646 211.946 200.127C213.12 198.954 214.716 196.338 216.244 195.829" stroke="#0C3773" stroke-width="3" stroke-linecap="round"/>
<path d="M136.738 211.301C136.738 213.986 134.917 216.099 133.491 218.177C131.733 220.738 130.178 223.412 128.597 226.08C126.423 229.747 124.389 233.542 123.081 237.612C122.476 239.494 122.225 244.822 119.763 244.822C117.473 244.822 115.68 240.746 115.68 238.806" stroke="#0C3773" stroke-width="3" stroke-linecap="round"/>
<path d="M115.25 234.938C115.25 231.963 115.756 228.654 114.486 225.913C113.224 223.186 111.831 219.785 111.048 216.888C109.956 212.848 109.663 209.435 109.663 205.284" stroke="#0C3773" stroke-width="3" stroke-linecap="round"/>
<path d="M141.035 218.177C140.483 218.246 140.02 218.866 139.507 219.012C138.62 219.266 138.198 218.048 137.597 217.747" stroke="#0C3773" stroke-width="3" stroke-linecap="round"/>
<path d="M143.614 244.393C143.614 246.454 143.614 248.515 143.614 250.576C143.614 253.414 142.563 255.114 141.465 257.668C139.359 262.568 138.547 267.74 137.168 272.853C135.075 280.61 134.27 288.554 133.204 296.49C131.883 306.326 127.43 314.958 124.705 324.424C122.564 331.859 122.556 339.018 122.556 346.677" stroke="#0C3773" stroke-width="3" stroke-linecap="round"/>
<path d="M125.134 249.55C125.134 252.942 123.239 255.798 122.149 258.957C120.476 263.811 119.745 268.718 118.687 273.712C116.939 281.967 116.861 290.56 115.01 298.758C114.069 302.929 113.253 307.064 111.811 311.102C110.465 314.87 108.991 318.656 108.182 322.586C106.943 328.603 107.084 335.368 107.084 341.52" stroke="#0C3773" stroke-width="3" stroke-linecap="round"/>
<path d="M113.101 330.776C120.104 331.477 115.116 339.283 112.671 337.653" stroke="#0C3773" stroke-width="3" stroke-linecap="round"/>
<path d="M125.993 271.039C128.411 271.039 129.861 272.759 129.861 275.146C129.861 277.467 126.104 280.285 124.704 277.486" stroke="#0C3773" stroke-width="3" stroke-linecap="round"/>
<path d="M222.26 191.961C227.39 191.961 232.333 195.014 236.872 197.142C241.732 199.42 246.603 201.465 251.079 204.448C253.758 206.234 255.851 208.689 258.552 210.417C261.582 212.356 264.645 213.776 268.03 214.977C270.964 216.018 273.353 216.721 276.411 217.222C279.555 217.736 282.742 218.37 285.531 219.991C288.864 221.929 291.323 225.54 294.461 227.631" stroke="#0C3773" stroke-width="3" stroke-linecap="round"/>
<path d="M298.331 235.798C298.331 239.018 300.021 241.692 301.554 244.417C304.117 248.973 306.291 253.903 308.215 258.766C310.251 263.912 312.211 269.248 313.993 274.477C315.01 277.46 316.811 286.653 316.811 283.502" stroke="#0C3773" stroke-width="3" stroke-linecap="round"/>
<path d="M318.528 289.519C316.295 292.031 320.562 300.254 321.346 302.865C323.319 309.441 325.424 315.952 327.124 322.61C328.966 329.827 330.159 337 331.612 344.266C332.075 346.578 331.876 348.973 332.281 351.309C332.785 354.218 333.382 357.115 334 360" stroke="#0C3773" stroke-width="3" stroke-linecap="round"/>
<path d="M294.892 268.03C294.892 271.355 294.507 273.143 292.074 275.575C288.309 279.341 284.616 283.103 281.378 287.346C277.967 291.815 274.922 296.344 272.974 301.647C271.447 305.804 269.535 309.964 269.535 314.445" stroke="#0C3773" stroke-width="3" stroke-linecap="round"/>
<path d="M276.411 268.46C269.451 276.194 263.088 285.466 263.088 296.395" stroke="#0C3773" stroke-width="3" stroke-linecap="round"/>
<path d="M261.37 262.873C261.37 268.333 258.035 273.817 256.977 279.204C255.119 288.663 254.064 297.724 254.064 307.401C254.064 316.848 254.064 326.295 254.064 335.742C254.064 338.479 254.03 341.219 254.064 343.955C254.1 346.897 254.924 349.783 254.924 352.694" stroke="#0C3773" stroke-width="3" stroke-linecap="round"/>
<path d="M289.304 299.833C288.96 301.095 287.496 302.248 286.725 303.271C284.883 305.716 283.482 308.388 281.807 310.935C279.607 314.279 277.23 317.494 275.121 320.891C270.408 328.486 270.394 339.33 270.394 347.967" stroke="#0C3773" stroke-width="3" stroke-linecap="round"/>
<path d="M101.497 206.574C95.2805 206.574 89.2638 210.652 83.4469 212.591C79.8691 213.784 75.9785 214.388 72.6789 216.244C70.1911 217.643 68.2153 219.322 65.8505 220.947C63.6534 222.458 61.7997 224.241 59.3801 225.484C55.9437 227.249 52.8464 229.59 50.5699 232.742C48.2745 235.92 46.2065 238.696 45.1979 242.674C44.068 247.131 44.3383 251.872 44.3383 256.427" stroke="#0C3773" stroke-width="3" stroke-linecap="round"/>
<path d="M42.1895 251.27C41.9141 254.023 38.8967 256.533 37.462 258.671C35.521 261.564 34.8663 264.765 33.1644 267.696C31.3898 270.752 31.8751 274.951 31.8751 278.345C31.8751 283.571 31.8028 288.703 31.3498 293.912C30.8332 299.853 29.678 305.724 28.8667 311.628C27.7981 319.405 28.0256 327.286 27.0522 335.074C26.1182 342.545 24.9989 349.866 24.9989 357.421" stroke="#0C3773" stroke-width="3" stroke-linecap="round"/>
<path d="M38.3219 272.757C38.3219 274.265 39.2292 275.322 39.826 276.649C40.752 278.706 41.4652 280.936 42.1897 283.071C42.9054 285.18 43.8498 287.192 44.5535 289.303C45.5308 292.235 45.7835 295.478 46.4874 298.495C47.9746 304.869 48.2065 310.891 48.2065 317.429C48.2065 320.875 48.2065 324.321 48.2065 327.767C48.2065 328.869 48.8129 332.836 47.7767 333.354" stroke="#0C3773" stroke-width="3" stroke-linecap="round"/>
<path d="M43.0489 328.627C43.0489 330.716 44.53 332.914 45.1978 334.882C45.847 336.796 46.212 338.725 46.7019 340.684C47.5643 344.134 47.3466 348.258 47.3466 351.834" stroke="#0C3773" stroke-width="3" stroke-linecap="round"/>
<path d="M216.674 248.69C216.448 250.946 213.236 253.584 211.946 255.376C210.003 258.074 207.639 260.97 206.359 264.066C205.037 267.267 204.253 270.817 203.781 274.238C203.554 275.882 203.653 279.332 202.492 280.493" stroke="#0C3773" stroke-width="3" stroke-linecap="round"/>
<path d="M199.054 250.41C197.143 252.129 195.331 253.94 193.897 256.093C192.822 257.704 192.273 259.34 190.888 260.725" stroke="#0C3773" stroke-width="3" stroke-linecap="round"/>
<path d="M181.862 270.179C181.524 273.227 178.939 275.939 177.994 278.774" stroke="#0C3773" stroke-width="3" stroke-linecap="round"/>
<path d="M278.99 232.789C276.512 233.037 273.138 236.954 271.254 238.472C269.752 239.682 268.396 241.722 267.792 243.533C267.568 244.206 266.391 246.835 266.097 246.542" stroke="#0C3773" stroke-width="3" stroke-linecap="round"/>
<path d="M93.7619 238.807C93.7619 243.083 94.8002 246.35 95.8152 250.41C96.3671 252.618 98.0596 259.132 98.0596 256.857" stroke="#0C3773" stroke-width="3" stroke-linecap="round"/>
<path d="M99.3477 265.881V268.03" stroke="#0C3773" stroke-width="3" stroke-linecap="round"/>
<path d="M126.395 156.177C126.395 162.669 127.803 168.594 129.127 174.917C130.072 179.434 130.815 184.031 130.969 188.638C131.068 191.624 132.112 194.348 132.112 197.341" stroke="#0C3773" stroke-width="3" stroke-linecap="round"/>
<path d="M173.097 123.786C171.207 123.975 169.308 125.403 167.464 125.891C165.882 126.31 164.513 126.347 162.855 126.347" stroke="#0C3773" stroke-width="3" stroke-linecap="round"/>
<path d="M142.883 127.115C140.499 127.115 137.074 127.667 134.945 126.603" stroke="#0C3773" stroke-width="3" stroke-linecap="round"/>
<path d="M160.294 127.115C157.937 127.115 155.681 128.311 153.324 128.395C151.28 128.468 149.244 128.395 147.235 128.395" stroke="#0C3773" stroke-width="3" stroke-linecap="round"/>
<path d="M168.231 129.895C167.051 129.895 165.576 131.269 164.775 132.071C163.76 133.086 162.946 134.011 161.56 134.617C159.004 135.736 155.942 136.552 153.125 136.552" stroke="#0C3773" stroke-width="3" stroke-linecap="round"/>
<path d="M149.539 136.04C147.923 136.04 145.537 135.152 144.276 134.12C142.848 132.951 139.864 132.31 139.041 130.663" stroke="#0C3773" stroke-width="3" stroke-linecap="round"/>
<path d="M167.975 122.158C166.132 122.158 164.228 122.184 162.429 121.727C161.774 121.56 161.11 121.382 160.463 121.188C159.908 121.021 159.274 120.812 158.695 120.771C157.6 120.692 156.571 120.903 155.599 121.422C155.131 121.672 154.699 121.905 154.158 121.905C153.742 121.905 152.641 122.172 152.228 122.172C151.678 122.172 151.107 122.047 150.601 121.835C150.231 121.68 149.852 121.482 149.457 121.399C149.019 121.307 148.437 121.333 147.999 121.422C146.43 121.743 145.798 122.269 144.342 122.876C143.507 123.223 142.657 123.459 141.789 123.701C141.519 123.776 141.294 123.804 141.016 123.804" stroke="#0C3773" stroke-width="3" stroke-linecap="round"/>
</g>
<defs>
<clipPath id="clip0_1222_62107">
<rect width="360" height="360" fill="white"/>
</clipPath>
</defs>
</svg>
