<svg xmlns="http://www.w3.org/2000/svg" viewBox="0 0 183 182">
  <path d="M84 11c2.5 0 4.5 1.4 6.3 2.7 5.1 3.6 8.2 9.8 8.2 16.6v25c0 12.1.5 24.2.5 36.3v18.7c0 6.3 2.6 12 4 18.2 1 4.4 1.4 8.9 1.4 13.4v21.5c0 8.5-2 16.6-6 24.2-2.8 5.4-6.8 10.2-11.4 14.3-8.6 7.7-19.6 12.8-31.2 15.4-6.8 1.5-14 1.9-21 1.9H17c-3.4 0-6.8-.4-10.1-1.2-5.8-1.4-11.2-4.2-15.9-8C-15.2 202.8-20 195.6-20 187v-15c0-7.4 2.1-14.5 5.8-20.8 3.2-5.4 7.8-10 13.2-13.4 9.8-6.2 21.8-8.9 33.2-8.9h16.8c8.9 0 17.6-2.3 25.2-7.2 4.3-2.8 8-6.5 10.8-10.8 2.5-3.9 4.2-8.3 4.2-12.9v-8c0-5.1-1.8-9.9-4.8-14-2.7-3.7-6.2-6.8-10.2-9-7.2-4-15.6-5.4-24-5.4H45c-6.8 0-13.4 1.2-19.8 3.6-5.4 2-10.4 5.1-14.6 9.2-3.8 3.7-6.8 8.2-8.6 13.2-1.6 4.4-2 9.1-2 13.8v12c0 4.9 1 9.7 3 14.2 1.8 4 4.4 7.6 7.6 10.6C16.8 156.4 24 160 32 160h8c4.2 0 8.3-.8 12.2-2.4 3.5-1.4 6.6-3.6 9.2-6.4 2.3-2.5 4-5.4 5-8.6.9-2.8 1.1-5.8 1.1-8.8v-6c0-3.1-1.1-6-3.1-8.4-1.8-2.1-4.2-3.6-6.9-4.4-2.4-.7-4.9-.8-7.4-.8h-4c-1.8 0-3.5.3-5.2.9z" />
</svg>