<svg viewBox="0 0 388 284" fill="none" xmlns="http://www.w3.org/2000/svg">
<path d="M133.122 59.5366C132.96 61.7661 132.644 63.9154 133.212 66.1088C133.639 67.7611 133.629 69.5079 133.506 71.209M131.864 82.3194C131.807 83.1052 131.624 83.4498 131.168 84.0941C130.603 84.8915 130.265 85.7832 129.79 86.6327C128.392 89.1355 127.258 91.8222 125.633 94.1871C124.869 95.2994 124.191 96.4757 123.44 97.5988C122.936 98.3522 122.381 99.3815 121.739 100.015C120.794 100.947 120.401 102.412 119.591 103.469C118.374 105.058 117.257 106.615 116.208 108.322C115.065 110.181 113.541 111.873 111.373 112.434M108.845 112.908C106.512 112.738 104.127 112.738 101.76 112.566C100.279 112.458 98.9479 112.011 97.5871 111.395C96.4865 110.898 95.0392 110.646 94.0895 109.928M90.9304 107.618C89.8261 107.538 88.8596 106.822 88.029 106.107C86.7669 105.021 85.3044 104.28 84.0627 103.139C81.9928 101.236 79.53 99.8191 77.3364 98.0688C75.768 96.8173 74.2744 95.5632 72.7736 94.2366M117.933 93.4503C118.379 93.4828 117.039 93.4556 116.598 93.4995C115.881 93.5708 115.09 93.741 114.361 93.7448C113.624 93.7487 113.006 93.9235 112.222 93.8664L110.102 93.7121M108.037 93.5481C106.118 93.4084 104.103 93.3599 102.245 92.8848C100.153 92.3496 97.9151 91.7711 95.8066 91.3777C94.5372 91.1408 93.2408 91.0208 91.9424 90.9263C91.2939 90.8791 89.9846 90.1642 89.9164 91.1012M92.7291 92.4471C94.0356 92.5421 95.274 93.6157 96.3319 94.3728M100.288 97.1556C101.641 97.2541 102.719 97.4366 103.948 97.9337C105.253 98.4617 107.078 98.4627 108.503 98.5664M111.015 98.3536C113.211 98.5135 113.971 96.889 115.746 96.2028M116.49 91.6815C114.81 91.5592 113.409 90.6254 111.754 90.505L107.036 90.1616M104.967 90.0109L102.485 89.8302M117.657 77.5421C117.583 78.5556 117.505 78.9937 117.019 79.7641C116.369 80.7961 115.087 80.5815 114.46 81.4681M114.611 79.3987C114.498 79.9738 112.953 81.0273 112.392 81.3166M107.841 80.9862C107.934 79.6984 104.635 79.5055 103.83 79.4469C102.544 79.3533 101.282 80.0592 100.045 79.5278M113.505 66.0116C113.52 67.4817 114.226 68.9398 114.241 70.447C114.252 71.5114 114.694 72.5314 114.618 73.5783M128.407 61.2729C128.35 62.0554 127.767 62.6565 127.429 63.2811M131.401 60.1196C131.344 60.4059 130.114 60.9821 129.795 60.9588C128.912 60.8945 128.265 60.8534 127.64 60.2708C126.483 59.1929 124.683 59.3916 123.144 59.2796M131.453 59.416C131.137 59.4391 130.489 59.8091 130.18 59.9801C129.715 60.2371 128.998 60.0255 128.5 59.9892M125.947 60.6783C125.878 61.6221 125.972 62.7595 124.714 62.668C123.385 62.5713 123.366 61.9721 123.451 60.7938M100.658 59.6692C99.7817 58.7474 98.3569 56.6201 96.9955 56.521C96.4358 56.4803 95.7753 56.0932 95.199 56.0512C94.7116 56.0158 93.0756 55.634 92.689 55.9062C92.1788 56.2655 91.2031 56.5699 90.5916 56.7606L90.5657 56.7687C90.1814 56.8886 89.6881 57.0492 89.3352 57.2442C89.0923 57.3783 88.664 57.8746 88.4394 57.923C87.538 58.1169 86.8908 58.1587 85.8795 58.0851C84.7373 58.0019 84.0257 57.3802 82.9669 57.0255M91.3265 56.4946C90.7656 56.5098 90.0503 57.034 89.4775 57.0194C88.7997 57.002 88.1339 57.0534 87.421 57.0015C86.1039 56.9057 84.5298 56.9843 83.4281 56.4472M97.4311 57.6219C97.4038 57.9971 97.5148 59.0776 97.1337 59.2708C96.7251 59.478 96.0629 59.8362 95.5948 59.6998C94.7952 59.4668 94.0833 57.1286 95.0105 56.7623M103.45 49.8918L103.359 51.1328M102.148 50.6289L102.238 49.3879M100.524 50.0944C99.4891 49.8953 98.7947 48.6018 97.6352 48.4677C96.1093 48.2913 94.305 47.0695 92.8833 46.3907C91.5087 45.7343 89.731 45.4259 88.1781 45.5648C86.2257 45.7395 84.4464 47.1031 82.4535 46.958M131.826 51.5024C131.015 51.3143 130.678 50.6506 129.918 50.4742C129.098 50.2841 128.319 50.1642 127.495 50.4002C126.645 50.6441 125.993 50.8381 125.097 51.015C123.978 51.2359 123.029 51.6914 121.964 51.9472M120.54 52.2023C120.631 51.812 120.705 51.6035 120.94 51.3193M131.976 52.1762C130.705 51.6903 128.898 52.1351 127.724 52.6356L122.712 54.7717M98.3661 51.1844C96.4203 51.0428 94.8319 49.7872 92.982 49.5449C91.279 49.3218 89.5889 48.6741 87.8359 48.5465C86.1693 48.4252 84.6118 48.1039 82.9428 47.9824C82.258 47.9326 81.5887 48.1672 80.921 48.2396C80.4543 48.2902 79.2471 48.2794 78.9977 48.735M106.571 58.4355C106.537 57.8065 105.642 57.5678 105.42 57.1041M119.753 61.1378C119.787 60.5088 120.682 60.2701 120.904 59.8065M131.447 19.4897C131.206 18.9345 130.796 18.5343 130.415 18.0747C130.044 17.628 129.895 17.0699 129.531 16.628C128.745 15.6723 127.946 14.6075 126.933 13.8973C125.127 12.6323 123.477 11.3255 121.566 10.1784C120.355 9.45092 118.989 8.85576 117.902 7.93377C116.001 6.32207 113.487 5.98984 111.202 5.1918C109.37 4.55168 106.665 3.88865 105.031 5.31681M123.788 23.6379C120.472 21.9442 117.262 20.5342 113.508 20.2609M111.176 18.0139C111.316 16.0864 110.498 14.313 109.68 12.5923C109.474 12.1581 108.075 10.7183 107.551 10.6801M104.84 117.092C104.84 121.611 103.502 125.91 103.502 130.469M105.175 129.451C107.618 129.451 109.421 130.905 111.53 131.96C113.894 133.142 116.756 134.065 119.297 134.802C125.364 136.564 131.59 137.217 137.618 139.15C140.259 139.998 142.662 141.047 145.124 142.327C149.153 144.422 152.165 147.129 155.53 150.113C157.817 152.141 158.096 154.882 158.688 157.693C159.046 159.394 158.744 162.144 159.692 163.565M161.118 170.248C161.118 174.036 160.822 177.933 161.47 181.658C162.443 187.255 162.874 192.985 162.874 198.685V228.527M176.565 254.156C176.565 252.618 173.627 249.814 172.527 248.715C171.023 247.21 168.747 245.74 167.612 243.975C166.691 242.542 165.606 241.161 164.355 240.035C163.892 239.619 163.162 239.135 162.521 239.06C162.315 239.036 160.988 238.746 160.844 238.631C159.986 237.945 157.345 238.436 156.358 238.885C154.977 239.512 152.108 239.762 150.584 239.762C149.07 239.762 146.83 240.187 145.318 240.542C143.283 241.021 141.096 240.815 138.998 240.815M134.785 241.165C133.415 241.337 131.194 241.309 129.889 242.043C128.697 242.714 127.486 243.074 126.359 243.896C124.86 244.99 123.603 246.282 122.146 247.407C119.189 249.688 116.613 252.429 113.72 254.701C112.723 255.485 109.156 257.845 109.156 259.07M171.648 256.263C171.832 256.263 170.299 255.548 169.912 255.209C168.831 254.264 167.499 253.017 166.206 252.42C165.047 251.885 163.756 250.97 163.222 249.768C162.26 247.605 155.788 249.221 153.742 248.539M146.876 245.534C152.105 245.534 153.904 249.423 156.706 252.926C158.015 254.562 159.119 256.292 160.568 257.821C161.182 258.469 161.985 259.081 162.323 259.928C163.063 261.776 163.494 262.697 161.27 263.438M135.488 254.857C136.846 256.385 137.618 258.373 138.843 259.948C139.816 261.199 140.949 262.346 141.808 263.634M136.892 264.688C135.502 264.533 134.457 262.435 133.206 261.879C132.328 261.489 131.396 260.833 130.573 260.397C128.363 259.227 125.497 260.124 122.849 260.124M205.377 258.583L197.622 259.531M207.746 253.421C207.613 249.634 208.809 245.636 209.391 241.922C210.366 235.705 212.348 229.892 214.09 223.871C218.206 209.641 220.821 195.111 224.507 180.757C227.451 169.298 229.402 157.415 231.715 145.932M234.352 142.986C234.472 141.805 237.194 140.672 238.103 140.299C239.646 139.666 240.948 139.231 242.596 139.029C246.273 138.58 249.956 137.831 253.639 138.27M385.676 139.825L385.509 138.451C385.325 136.95 386.091 135.329 386.17 133.797C386.282 131.614 387.059 128.258 385.001 126.749C381.978 124.532 378.545 125.396 375.047 125.823M368.332 126.087L344.373 129.015C338.02 129.791 331.082 131.36 324.642 130.454M319.472 131.086C299.891 133.479 280.288 135.499 260.713 137.891M384.397 147.138C384.232 147.18 383.687 150.908 383.543 151.299C382.8 153.32 381.982 155.365 381.417 157.433C380.948 159.151 380.089 160.835 379.321 162.435C378.26 164.647 377.796 167.158 376.828 169.422C374.337 175.248 372.864 181.613 370.74 187.586C369.347 191.503 368.047 195.774 367.225 199.831M364.803 207.622C365.066 209.772 364.687 211.549 363.955 213.604C363.076 216.072 362.601 218.539 361.908 221.043C360.171 227.312 357.944 233.437 356.174 239.697C354.949 244.03 354.585 247.569 351.018 250.707C349.145 252.355 346.625 255.19 344.045 255.506M334.163 257.461L300.929 261.522M286.159 263.328L238.893 269.103M227.446 270.502L148.792 280.112M142.51 280.851C135.94 281.654 129.347 282.625 122.773 282.966C120.938 283.061 115.289 281.98 114.999 279.607C114.86 278.469 115.343 274.146 116.567 273.637C117.669 273.179 119.087 273.13 120.248 272.808C122.598 272.155 124.91 271.413 127.337 271.116M151.454 268.169L134.468 270.245M193.37 261.549L182.292 262.903M171.956 264.166L163.093 265.249M146.808 263.865C146.708 265.13 145.124 266.18 144.361 267.141C143.844 267.793 142.448 268.68 142.224 269.297M156.554 261.879C156.554 262.058 154.284 259.74 153.824 259.421C152.976 258.834 152.542 257.768 151.639 257.237C150.733 256.704 148.612 254.07 148.128 253.102M146.02 250.995C144.446 250.995 141.749 249.913 140.403 249.24M149.532 263.284C148.078 263.122 147.743 261.564 146.723 260.904C145.895 260.368 145.172 259.797 144.265 259.344C142.915 258.669 141.158 258.017 139.701 258.017M104.24 260.826C97.7679 260.826 91.3931 261.88 84.9306 261.88H70.7701C67.8072 261.88 64.2186 262.465 61.4077 261.529M55.7915 260.826H51.6564C48.2742 260.826 44.8812 259.727 41.7285 258.544C36.9412 256.749 32.5079 255.56 27.3534 255.56M37.1822 251.699C37.1822 245.828 36.8221 239.856 37.9624 234.067C39.1698 227.938 40.4513 221.823 41.4733 215.655C42.3579 210.316 43.7755 205.076 44.6331 199.74C44.9349 197.862 44.8981 195.012 45.9594 193.42M64.967 104.634C64.4469 111.78 62.7294 120.754 54.5375 122.18M52.6315 129.524C49.4982 129.524 46.3913 130.369 43.4253 131.357C38.7813 132.905 33.8244 134.318 29.1282 135.492C24.1143 136.746 19.4843 139.995 17.1717 144.62M12.2559 160.769C12.2559 164.796 12.2099 168.431 11.2026 172.354C9.99392 177.062 9.69723 181.952 8.90104 186.729C7.76691 193.534 8.50869 200.511 7.49669 207.306C6.76419 212.224 5.85675 216.988 4.88304 221.856M4.53209 226.772C4.53209 235.17 2.65436 243.265 1.45032 251.542C0.855502 255.632 1.02122 259.85 1.02122 263.986C1.02122 267.122 1.08331 270.141 2.07448 273.114M104.536 123.281C102.758 123.281 101.334 123.511 99.6171 123.797C97.1486 124.208 94.5877 124.105 92.0877 124.055C89.6203 124.006 86.7842 123.556 84.4005 122.893C83.2982 122.587 82.204 122.248 81.0445 122.248M79.2383 121.473C77.4597 121.473 76.165 120.93 74.6059 120.054C73.0771 119.194 71.8594 117.859 69.9448 117.859M139.13 141.593C139.13 148.213 141.008 155.283 142.601 161.7C144.137 167.89 146.795 173.69 149.255 179.54C151.717 185.394 153.831 191.072 154.877 197.352M155.91 205.871C155.91 211.321 156.281 216.908 154.361 222.12C152.873 226.159 151.005 230.138 149.972 234.267M38.5307 134.72C39.3737 135.656 39.8487 136.872 40.4209 137.977C41.4747 140.012 42.8374 141.829 43.779 143.929C45.8158 148.473 48.123 152.891 50.3143 157.361C54.9109 166.738 57.2628 176.956 58.8806 187.201C59.6787 192.256 60.5163 199.067 57.7143 203.67C55.6822 207.008 54.1974 209.643 51.3599 212.377C49.7193 213.958 47.5314 217.243 45.0458 217.243M102.142 5.4168C100.972 5.33163 100.441 4.06178 99.4491 3.59506C98.6394 3.21403 98.1161 2.67932 97.2728 2.37059C93.8273 1.10917 89.3859 1.11723 85.8294 1.95079C84.1558 2.34305 82.5166 2.87074 80.8306 3.25269C79.6898 3.51111 78.6138 4.11417 77.5129 4.3438C75.7313 4.71541 74.1889 6.40827 72.5149 7.09829M45.716 34.2063C45.2806 35.8281 44.1305 37.3323 43.3417 38.7992C42.1006 41.1072 42.704 45.5549 41.3867 47.8144C39.8586 50.4354 36.9559 51.3035 35.7153 54.0823C34.6175 56.541 33.3743 59.1834 32.9118 61.8516M29.6173 66.7625C25.4063 68.3665 23.8007 76.4213 24.2749 80.3738C24.5978 83.0653 24.6931 87.0817 22.6276 89.1845C17.953 93.9432 15.4379 100.11 16.1659 107.676C16.6007 112.194 20.5829 114.265 22.6973 117.913M138.43 82.6815C137.633 85.7574 136.915 90.427 139.107 93.3084C144.07 99.8295 146.199 107.549 144.179 116.231C142.972 121.418 137.825 123.013 134.71 126.835M55.2354 59.804C55.3783 63.4141 53.2905 67.1574 52.8137 70.7424C52.1916 75.4204 53.5176 80.2866 50.8214 84.5749C49.2614 87.0561 45.9135 88.1861 44.8558 90.9096C43.6343 94.055 44.9885 98.2491 45.4246 101.482M134.619 22.856C134.813 25.3778 137.314 30.3723 137.844 32.4637C138.844 36.4141 139.313 37.2129 138.304 41.1106C137.556 44.0005 139.318 46.7777 138.925 50.1564C138.534 53.5203 138.905 55.4161 139.566 58.1752C140.342 61.4091 140.786 65.9657 140.529 69.7376C140.38 71.9348 139.745 73.805 139.32 75.7019M60.7855 76.2739C67.0786 72.3827 71.2638 67.8908 71.0122 58.7357C70.9032 54.7705 69.3078 50.1782 69.7917 46.3597C70.2094 43.0641 72.0433 41.1325 71.1036 37.4333M64.4138 100.599C64.175 98.6594 65.0852 96.563 65.1684 94.6132C65.277 92.069 64.3681 89.4976 65.5686 87.0845C66.2631 85.6882 67.9452 84.9519 68.3686 83.4442C68.8575 81.7029 67.9648 79.4947 67.5913 77.7693M43.8804 31.5297C46.2577 28.4303 48.2982 28.4163 50.7086 27.3382C53.2304 26.2101 57.7879 22.3412 58.9894 18.8728C59.7985 16.5373 59.6835 14.3411 62.0105 11.9592C63.1612 10.7814 66.2093 9.93432 67.6045 9.07923M134.797 48.6485C134.171 46.1607 134.056 43.5831 133.201 41.1572C132.667 39.6439 132.258 39.0071 130.834 38.4881C130.096 38.219 129.553 37.7328 129.189 37.0425C128.072 34.9245 129.717 31.6923 129.167 29.2375C128.794 27.5752 127.534 27.3393 126.537 26.1801M124.369 103.72C123.79 106.219 122.716 108.565 122.369 111.114C122.153 112.704 122.226 113.457 123.256 114.569C123.79 115.145 124.051 115.826 124.059 116.606C124.086 119 121.148 121.126 120.516 123.561C120.088 125.21 121.102 125.995 121.46 127.481M62.8014 33.7893C63.8312 32.5589 64.1705 31.8823 63.8911 30.3929C63.7463 29.6207 63.8877 28.9057 64.296 28.2407C65.5487 26.2001 69.1676 25.9665 70.9991 24.242C72.2394 23.0742 71.7998 21.8698 72.2888 20.4213M106.118 19.213C102.601 20.8179 98.9217 21.9282 95.5095 23.7461C93.381 24.8801 92.4978 25.5484 91.8521 27.2214C91.5174 28.0888 90.8587 28.8377 89.896 29.4798C86.9419 31.45 82.2061 30.9915 78.7318 32.5044C76.379 33.5289 76.1272 34.9238 74.5368 36.4013" stroke="#030500" stroke-width="1.5" stroke-linecap="round"/>
</svg>