<svg viewBox="0 0 232 241" fill="none" xmlns="http://www.w3.org/2000/svg">
<path d="M78.2047 19.5224C75.8299 20.0501 73.0153 25.4558 72.0305 27.4545C70.1697 31.2308 69.1581 35.4057 67.4856 39.2883C66.4283 41.7427 65.2577 44.2699 64.7844 46.9202C64.4203 48.959 64.3564 51.0848 63.8411 53.0944C63.4915 54.4578 62.7692 55.5186 62.7692 56.9533V56.964C62.7692 58.1959 62.7692 59.2686 62.3833 60.4262M61.9999 68.1447C61.9999 73.3787 61.8924 77.644 64.3152 82.4225C67.6496 88.9986 72.6928 95.2743 78.1214 100.173C80.4186 102.246 82.3837 104.778 84.9602 106.519C87.4633 108.21 90.095 109.724 92.5707 111.45C96.3235 114.065 100.603 117.004 104.833 118.696M110.848 121.754C112.435 121.754 113.757 122.781 115.114 123.491C117.695 124.84 120.309 126.151 122.853 127.564C128.15 130.507 134.17 131.892 140.004 133.331C146.298 134.883 152.78 135.646 159.255 135.646C164.898 135.646 170.444 134.874 176.063 134.874M182.394 132.587C190.21 132.587 194.128 125.028 199.48 120.667C202.723 118.025 204.971 114.684 206.898 110.999C209.124 106.74 211.745 102.416 213.265 97.8573M214.808 88.2088V69.2559C214.808 63.2613 214.808 58.1075 212.686 52.3858C211.325 48.7172 209.103 45.3438 207.047 42.0312C205.774 39.9796 204.358 38.4093 202.481 36.9075C201.6 36.2028 200.511 35.6704 200.144 34.5707M98.6554 4.86046C95.4659 4.86046 92.4548 8.97506 89.8015 10.4344C87.6857 11.5981 85.7624 13.0434 83.6059 14.1217M102.9 2.54354C111.727 2.54354 120.307 1 129.141 1C134.27 1 139.701 2.33475 144.576 3.78695C150.115 5.43687 155.743 7.38299 161.126 9.48949C166.087 11.4307 170.687 14.003 175.576 16.0495C178.343 17.2081 181.448 18.7988 183.936 20.4872C187.544 22.9353 190.962 25.3504 194.741 27.2402M133.066 17.6152C132.916 18.2924 131.559 19.1136 131.1 19.5969C129.448 21.3352 128.076 23.2441 126.755 25.2373C124.215 29.0699 121.98 33.027 120.856 37.5241C118.336 47.6012 118.249 58.063 118.249 68.3934C118.249 71.5612 118.619 74.1853 120.368 76.9149C122.781 80.6811 126.127 84.568 129.499 87.5248C136.025 93.2466 144.205 96.2284 151.451 100.757M155.566 102.951C155.621 103.394 158.386 104.796 158.92 105.146C160.477 106.167 162.284 107.022 163.935 107.875C166.49 109.193 169.243 110.589 171.938 111.579C174.436 112.497 176.87 113.985 179.576 114.186C182.694 114.417 186.722 115.571 189.804 114.475C193.858 113.034 197.498 110.409 200.567 107.341M136.631 15.4208C139.342 15.4208 142.542 14.8781 145.138 15.6952C149.512 17.0724 153.928 18.5442 158.187 20.238C163.665 22.4169 168.686 25.6246 173.949 28.2564C175.828 29.196 177.563 30.3833 179.437 31.3205C180.517 31.8603 181.65 32.8967 182.73 33.2565M185.2 34.6248C186.801 34.9158 188.574 36.6033 189.896 37.5212C192.117 39.0639 194.252 40.5166 196.329 42.2469C198.214 43.8176 200.318 45.2287 201.832 47.186C203.627 49.5071 205.979 52.0682 207.365 54.6556C209.463 58.5715 209.621 62.9186 209.621 67.2777C209.621 69.4991 210.339 73.2517 209.347 75.2352M208.797 79.6268C208.797 84.7216 207.632 89.7175 206.053 94.566C204.851 98.2594 203.972 102.06 202.761 105.694M138.55 17.6152C140.573 17.6152 142.513 18.3079 144.328 19.1244C147.058 20.3529 150.027 21.1366 152.804 22.2799C155.638 23.4472 158.708 23.9406 161.477 25.2983C163.038 26.0634 164.634 27.2243 166.264 27.7678M171.478 30.2371C173.925 30.2371 175.881 32.4172 177.804 33.667C179.496 34.7666 180.997 36.043 182.606 37.2494C184.191 38.438 186.032 39.1762 187.606 40.3897C190.741 42.8061 194.189 44.692 197.118 47.3867C198.524 48.6803 200.199 49.9331 201.387 51.4264C202.176 52.419 202.62 53.6275 203.308 54.6582M204.682 59.8672C204.682 62.9808 204.901 66.0826 204.957 69.1966C204.998 71.5289 205.231 73.8495 205.231 76.1936C205.231 78.0823 204.844 79.8577 204.621 81.7273C204.245 84.8911 203.312 87.977 203.036 91.1481C202.834 93.4652 202.591 95.8452 201.877 98.069C201.262 99.986 200.018 101.776 200.018 103.77M69.3679 151.423C67.2506 156.565 61.2591 159.546 56.4381 161.568C48.9673 164.701 40.7135 166.08 32.7223 167.138C22.4897 168.492 12.0532 169.084 3.19373 163.446C-2.45875 159.849 4.21307 151.421 7.52577 149.036C14.7591 143.828 22.3311 141.346 30.3795 137.896M34.3582 136.303C36.3314 136.303 37.3304 134.195 39.3533 133.916C41.7352 133.588 44.3948 133.391 46.6913 132.723C50.5128 131.611 55.3992 131.529 59.3559 131.529C62.0462 131.529 65.1639 131.003 67.6 132.347C69.7996 133.56 72.0038 134.861 74.0539 136.303C75.7019 137.463 75.3358 139.743 75.3358 141.475C75.3358 144.013 74.094 148.122 71.3574 149.034M168.828 170.52C169.178 168.768 171.811 166.44 173.072 165.326C175.992 162.745 179.485 161.268 182.841 159.381C186.051 157.575 190.878 155.004 194.688 155.004M211.397 181.259C209.576 181.259 208.16 182.364 206.512 183.093C203.412 184.465 200.099 185.623 196.854 186.63C192.05 188.121 184.823 189.621 179.747 188.199C172.939 186.293 167.635 182.41 167.635 174.893M198.324 153.057C202.352 153.057 206.227 151.222 210.222 150.637C214.832 149.963 219.396 150.13 223.891 151.444C225.975 152.053 228.464 152.975 229.896 154.715C231.084 156.16 231.009 158.839 230.994 160.564C230.938 166.782 226.266 171.543 221.672 175.038C220.262 176.112 218.431 176.69 216.922 177.66C215.93 178.297 214.794 179.189 213.651 179.475M64.6229 127.851C65.2587 127.279 66.2696 127.159 67.0428 126.842C68.5355 126.232 69.9286 125.364 71.4121 124.714C76.1741 122.625 81.0441 121.801 86.2231 121.801C91.1785 121.801 96.5564 122.827 101.202 124.523C103.042 125.195 104.993 125.702 106.759 126.551C108.196 127.242 109.472 127.984 111.005 128.456M114.027 129.868C115.431 129.976 116.734 130.505 117.993 131.101C120.549 132.309 123.201 133.402 125.6 134.91C130.682 138.104 135.654 141.456 140.658 144.791C143.732 146.841 147.197 148.535 150.08 150.841C151.268 151.792 153.056 152.981 153.553 154.471M155.773 157.088C155.909 158.994 157.744 161.231 158.596 162.936C160.175 166.093 161.419 169.68 161.419 173.232C161.419 177.076 161.138 180.331 159.851 184.021C158.741 187.202 157.829 190.466 156.58 193.589M153.553 198.024C153.553 199.49 152.927 200.922 152.343 202.237C150.754 205.811 148.811 209.054 146.36 212.118C142.301 217.192 137.296 221.636 132.423 225.921C130.934 227.23 129.724 228.782 128.188 230.043C126.149 231.718 123.988 232.94 121.578 234.032C118.337 235.5 115.397 237.505 112.022 238.648C109.66 239.448 106.637 239.365 104.135 239.365C102.044 239.365 99.9537 239.566 97.8495 239.566C95.4081 239.566 92.9861 239.681 90.5785 239.264C88.6144 238.924 86.877 238.39 84.988 237.796C83.9448 237.468 82.9945 236.799 81.963 236.541M77.1255 235.131C72.6327 235.131 68.1996 232.23 64.488 230.011C59.418 226.98 55.6873 222.839 52.4668 217.945C49.4224 213.32 46.7921 208.271 45.2181 202.933C44.1778 199.405 44.053 196.199 44.053 192.581M44.6594 186.331C44.6594 184.872 44.627 183.409 44.6706 181.951C44.7575 179.039 45.7745 176.297 46.5752 173.526C46.8689 172.509 47.4747 168.488 48.491 167.98M136.144 64.7472C135.387 64.9994 135.08 67.0501 134.998 67.6966L134.995 67.7184C134.762 69.5552 134.608 70.7731 136.046 72.0962C137.385 73.3284 139.341 74.3997 141.189 74.3997C142.677 74.3997 143.928 73.7415 145.406 73.7415C147.73 73.7415 149.619 75.677 150.72 77.6781C151.841 79.7161 153.27 79.884 155.449 79.884M138.557 62.1144C139.954 62.1144 141.163 61.2765 142.457 60.7981C143.614 60.3707 144.833 60.2189 146.04 60.0303C149.644 59.4672 153.038 60.3137 155.449 63.26C157.326 65.5541 158.074 68.7845 158.289 71.6815C158.428 73.5633 158.725 76.403 157.862 78.1287M176.51 81.4197C174.918 84.4438 172.542 87.1136 175.279 90.2557C176.104 91.2026 177.038 92.0902 178.314 92.3397C179.637 92.5985 181.137 92.0612 182.421 92.5103C184.124 93.1065 185.301 94.781 185.943 96.3859C186.77 98.4538 187.224 99.1891 189.453 99.1891M191.864 97.6541C191.864 96.8682 191.961 96.1924 192.193 95.4481C192.618 94.0896 192.522 92.6837 192.522 91.28C192.522 86.6299 191.053 83.5982 187.586 80.6647C186.101 79.4083 184.823 79.0072 182.87 79.0072H180.676C179.705 79.0072 179.168 80.1041 178.263 80.1041" stroke="#030500" stroke-width="2" stroke-linecap="round"/>
</svg>
