<svg viewBox="0 0 148 277" fill="none" xmlns="http://www.w3.org/2000/svg">
<path d="M25.3623 14.8999C25.3623 17.3605 25.336 19.8251 25.3623 22.2853C25.3821 24.1426 25.9231 25.6887 26.1849 27.4379" stroke-linecap="round"/>
<path d="M32.8589 38.3037C33.1482 38.3675 33.7265 40.502 33.8631 40.7671C34.4335 41.8743 35.2246 43.0059 35.5957 44.1847C36.1171 45.841 36.5588 47.5059 37.0303 49.17" stroke-linecap="round"/>
<path d="M31.1905 44.9907C30.2529 45.0873 29.5222 46.9711 29.0372 47.6376C28.1474 48.8602 27.3259 49.9164 27.2122 51.5284C27.0163 54.3031 27.019 57.2559 27.019 60.0363" stroke-linecap="round"/>
<path d="M30.3564 67.5591C30.3564 70.542 30.3564 73.5249 30.3564 76.5078C30.3564 79.4442 31.9223 81.9877 34.1158 83.8694C35.9712 85.4612 38.5418 85.9558 40.2863 87.7127C41.6055 89.0413 42.3454 90.9761 43.0679 92.6842C43.6134 93.9742 43.7001 95.6875 44.5393 96.8144" stroke-linecap="round"/>
<path d="M46.2075 100.158C46.7446 100.089 47.3402 99.5479 47.7896 99.193C49.2302 98.0551 50.8353 97.3364 52.3545 96.3933C54.5814 95.0109 57.1473 94.8175 59.5561 94.3066" stroke-linecap="round"/>
<path d="M64.562 93.4712H68.7334" stroke-linecap="round"/>
<path d="M46.2075 103.501C46.2075 105.268 46.7562 106.49 47.3384 108.148C48.2697 110.8 49.0413 113.485 50.0823 116.102C50.913 118.191 51.643 120.395 52.5852 122.431C53.2469 123.861 54.1789 125.373 54.5504 126.906" stroke-linecap="round"/>
<path d="M57.8879 120.219C57.8879 126.448 55.5144 132.039 54.3331 138.069C52.5287 147.281 52.0479 156.825 52.0479 166.192" stroke-linecap="round"/>
<path d="M50.9453 173.714C49.9463 173.802 50.5684 183.445 50.59 184.694C50.6346 187.282 51.6868 189.852 51.9324 192.445C52.1319 194.552 52.0114 196.68 52.0114 198.79" stroke-linecap="round"/>
<path d="M51.2132 207.149C51.2132 213.932 51.1709 220.79 50.8269 227.544C50.6214 231.581 50.3789 235.693 50.3789 239.748" stroke-linecap="round"/>
<path d="M51.2134 244.763C53.5379 244.763 55.3178 246.434 57.5793 246.434C59.0726 246.434 60.5658 246.434 62.0591 246.434" stroke-linecap="round"/>
<path d="M64.562 243.091C64.562 238.847 65.7395 235.182 66.9988 231.114C68.4387 226.462 69.679 222.009 70.4616 217.212C71.8104 208.943 71.123 200.4 70.4616 192.103" stroke-linecap="round"/>
<path d="M71.2363 184.58C71.2363 177.45 72.7471 171.261 75.5834 164.854C76.7728 162.167 78.111 159.488 78.8437 156.621C79.254 155.015 79.6972 153.469 80.4135 151.981" stroke-linecap="round"/>
<path d="M77.9106 100.158C78.0172 100.779 78.5082 101.282 78.9082 101.715C79.8291 102.711 80.4206 103.708 81.1002 104.897C82.3621 107.105 83.7641 109.2 84.8147 111.526C87.8256 118.192 87.636 127.552 85.471 134.429" stroke-linecap="round"/>
<path d="M73.7393 178.729C73.7393 184.639 78.1218 190.212 81.4119 194.766C83.5075 197.666 85.9833 200.207 88.1587 203.035C89.8213 205.197 91.2917 207.484 92.9278 209.657" stroke-linecap="round"/>
<path d="M97.0991 218.016C100.494 221.351 103.65 225.221 106.554 228.969C109.163 232.337 112.188 235.439 114.619 238.912" stroke-linecap="round"/>
<path d="M117.122 239.746C118.492 239.746 119.656 239.816 120.888 239.162C122.452 238.333 123.878 237.131 125.465 236.404" stroke-linecap="round"/>
<path d="M88.8211 158.669C88.8211 162.462 88.6058 166.33 88.9603 170.109C89.364 174.412 89.1136 179.262 90.9368 183.294C92.625 187.026 96.5749 190.155 99.483 192.947C102.263 195.616 104.58 198.42 107.111 201.298" stroke-linecap="round"/>
<path d="M109.614 206.313C109.614 209.794 113.586 212.823 115.404 215.535C116.342 216.936 116.905 218.571 117.7 220.049C118.45 221.442 119.406 222.698 120.253 224.033C121.252 225.609 121.991 227.3 122.962 228.881" stroke-linecap="round"/>
<path d="M50.3791 248.405C50.3791 246.917 50.0404 251.4 49.4745 252.784C49.1452 253.589 48.5896 254.26 47.8694 254.762C46.5726 255.666 45.7265 256.928 44.6593 258.067C42.3521 260.529 38.5582 260.866 36.1963 263.152" stroke-linecap="round"/>
<path d="M31.2739 265.659C29.0244 265.659 27.019 267.314 27.019 269.824C27.019 271.403 28.0763 272.96 28.8962 274.208C29.4286 275.02 31.2016 274.667 31.9691 274.795C35.8321 275.438 39.5994 275.69 43.5101 275.69C44.8644 275.69 45.6604 275.637 46.8472 274.898C49.405 273.304 51.8941 271.811 54.5505 270.41" stroke-linecap="round"/>
<path d="M55.3848 274.018C59.2728 274.018 63.2298 274.018 67.0648 274.018" stroke-linecap="round"/>
<path d="M67.5159 269.003C68.186 268.842 67.7727 264.96 67.7727 264.408C67.7727 262.396 67.6615 260.616 66.7169 258.794C65.1604 255.792 62.8931 252.438 62.8931 248.942" stroke-linecap="round"/>
<path d="M117.956 241.419C118.186 243.88 120.649 246.671 122.175 248.469C124.088 250.723 125.784 252.987 127.505 255.38C129.173 257.699 131.165 259.691 131.282 262.651C131.387 265.299 131.146 267.419 130.014 269.839" stroke-linecap="round"/>
<path d="M130.471 272.347H135.476" stroke-linecap="round"/>
<path d="M139.647 271.511C139.647 269.703 140.874 267.74 141.488 266.088C142.477 263.426 142.72 260.739 142.578 257.927C142.453 255.447 141.61 253.121 141.61 250.596C141.61 248.996 142.642 249.002 143.819 248.106" stroke-linecap="round"/>
<path d="M147.084 245.599C147.084 243.481 147.257 241.315 147.067 239.204C146.922 237.586 145.211 236.95 144.653 235.568" stroke-linecap="round"/>
<path d="M141.316 234.732C136.865 234.732 132.397 234.732 127.968 234.732" stroke-linecap="round"/>
<path d="M59.6853 62.5444C58.1414 63.6006 70.9272 80.3585 72.1221 82.316C73.7181 84.9307 75.8103 87.2137 77.4821 89.7755C78.2507 90.9534 79.0757 93.6669 80.4133 94.3074" stroke-linecap="round"/>
<path d="M84.585 100.158C84.8639 103.278 88.405 106.733 89.9976 109.303C92.0445 112.606 93.9031 115.97 95.4917 119.524C96.8728 122.613 96.2406 126.335 96.7533 129.579C97.1902 132.343 98.1842 135.369 99.6021 137.772" stroke-linecap="round"/>
<path d="M110.448 136.101C110.162 134.673 107.929 133.251 107.016 132.218C106.199 131.294 104.874 130.194 104.279 129.113C102.44 125.767 101.941 121.345 100.705 117.732C98.9445 112.584 96.0074 107.901 94.0873 102.816C93.2172 100.512 92.4054 98.0605 91.3299 95.849C90.4393 94.0176 89.2494 92.1007 88.7563 90.1279" stroke-linecap="round"/>
<path d="M84.5847 78.4256C84.2677 74.9211 81.5068 70.4937 79.8278 67.4739C78.085 64.3394 75.9145 61.4269 73.9935 58.4019C72.0765 55.3833 69.8255 52.455 68.0982 49.33C66.7681 46.9236 64.3917 44.3176 63.7275 41.6475" stroke-linecap="round"/>
<path d="M26.1846 71.7383C26.1846 74.0797 26.1846 77.0186 26.1846 79.2611" stroke-linecap="round"/>
<path d="M26.185 81.7693C23.7798 81.5746 21.752 79.0646 20.0004 77.7191C18.3336 76.4386 17.0367 75.3095 15.8028 73.696C15.0402 72.699 13.1664 71.7731 13.0883 70.4069C12.9963 68.7991 12.8364 67.2426 12.8364 65.6228C12.8364 63.9438 13.5127 63.028 14.5994 61.7085" stroke-linecap="round"/>
<path d="M10.3334 58.3649C10.3334 54.8287 8.90412 51.644 7.83057 48.3345" stroke-linecap="round"/>
<path d="M102.647 141.322C102.647 139.132 101.947 137.159 101.42 135.109" stroke-linecap="round"/>
<path d="M105.965 141.224C105.505 138.507 104.401 136.177 103.452 133.723" stroke-linecap="round"/>
<path d="M108.727 139.288C108.072 137.232 106.815 135.593 105.701 133.828" stroke-linecap="round"/>
<path d="M6.16185 55.8571C6.01712 54.471 3.81813 52.6291 2.82471 51.6777" stroke-linecap="round"/>
<path d="M3.65981 57.529C2.72699 57.529 2.00711 56.9297 1.15625 56.6929" stroke-linecap="round"/>
<path d="M1.99023 60.8726H2.82475" stroke-linecap="round"/>
<path d="M6.16211 66.7231C6.16211 68.1615 7.2957 69.0042 8.14482 70.0919C9.30025 71.5721 10.0283 73.2733 10.8923 74.9045C11.6206 76.2794 12.3662 77.5919 13.0591 78.9818C13.5851 80.0369 14.5073 81.8193 15.3393 82.6046" stroke-linecap="round"/>
<path d="M17.8423 88.5445C17.9317 87.844 21.5088 91.5278 21.7909 91.7992C22.7886 92.7587 24.0176 93.5103 25.1146 94.3584C26.0313 95.0671 26.6845 96.0324 27.5577 96.7925C30.3054 99.1842 32.1852 96.022 33.6937 94.0524" stroke-linecap="round"/>
<path d="M37.8647 50.8421C40.1686 50.8421 41.6764 49.4629 43.2367 47.8919C44.3211 46.8002 45.2614 45.5131 46.2212 44.3136C46.7401 43.665 47.6065 43.298 47.8762 42.4834" stroke-linecap="round"/>
<path d="M30.3562 4.39652C29.5917 4.30509 28.8803 3.52337 28.1871 3.28651C27.4414 3.03172 26.606 3.37167 25.9449 3.72303C24.5299 4.47518 22.8477 6.16997 22.8477 8.21295" stroke-linecap="round"/>
<path d="M32.8589 2.24289C33.3987 2.17565 33.742 1.58202 34.2546 1.45429C35.0556 1.25474 35.6715 0.862845 36.5186 0.862845C38.5757 0.862845 40.5891 0.278956 42.5521 1.25715C44.6735 2.31424 47.4927 3.50751 48.7724 5.59444C49.7494 7.18776 51.4637 8.97493 52.0475 10.7203" stroke-linecap="round"/>
<path d="M53.7382 14.0635C53.7382 15.2644 53.6155 16.485 53.9516 17.6623C54.3213 18.9571 55.3849 20.2492 55.3849 21.5863" stroke-linecap="round"/>
<path d="M34.5273 6.54102C35.1563 6.61745 35.7486 7.46359 36.2585 7.81844C37.1284 8.42392 37.8325 9.2268 38.2816 10.2364C39.2283 12.3647 39.9423 14.7595 40.1483 17.1254C40.3203 19.0998 40.7219 21.0614 40.7219 23.0563C40.7219 25.4362 42.0359 27.5794 42.0359 29.9453" stroke-linecap="round"/>
<path d="M43.7046 34.125C43.7046 35.0377 43.77 35.5094 44.3767 36.2486C45.7982 37.9807 48.7888 42.675 49.8833 44.6193" stroke-linecap="round"/>
<path d="M56.2192 24.0942C56.2192 28.6835 58.3156 32.8219 59.6517 37.0903C60.5146 39.8468 61.2551 42.7491 61.7388 45.6077" stroke-linecap="round"/>
<path d="M65.396 76.7534C65.396 80.3318 67.0646 83.3524 67.0646 86.7838" stroke-linecap="round"/>
<path d="M27.3281 30.3594C27.4701 30.3949 27.603 30.7865 27.6956 30.9083C28.0167 31.3306 28.4015 31.7083 28.7447 32.1134C29.3158 32.7873 30.0666 33.138 30.6959 33.7335C31.7344 34.7162 34.0415 36.0231 35.5069 36.0231" stroke-linecap="round"/>
<path d="M37.792 35.0598C38.7219 34.2834 39.814 33.7572 40.6794 32.8901" stroke-linecap="round"/>
<path d="M31.4741 29.0149C33.3866 30.4607 36.1253 28.4847 36.7098 28.1919" stroke-linecap="round"/>
<path d="M35.3848 18.4175C35.8947 17.9066 36.5214 17.9354 37.1894 17.9354" stroke-linecap="round"/>
<path d="M21.9964 12.5371C21.9964 15.4436 21.9295 18.2236 21.3082 21.069C20.4151 25.1597 20.7978 29.451 21.8028 33.4789" stroke-linecap="round"/>
<path d="M22.3838 37.1631C22.3838 40.1443 22.6072 43.0137 22.8139 45.975C23.1242 50.4205 22.6696 47.2669 22.8074 52.1386" stroke-linecap="round"/>
<path d="M27.5942 19.1846C27.9462 19.1846 28.4941 19.0736 28.7882 19.27" stroke-linecap="round"/>
</svg>
