<svg viewBox="0 0 148 277" fill="none" xmlns="http://www.w3.org/2000/svg">
<path d="M25.362 14.8999C25.362 17.3605 25.3357 19.8251 25.362 22.2853C25.3819 24.1426 25.9228 25.6887 26.1846 27.4379" stroke-linecap="round"/>
<path d="M32.8591 38.3042C33.1484 38.368 33.7268 40.5025 33.8634 40.7676C34.4337 41.8748 35.2248 43.0064 35.5959 44.1852C36.1174 45.8415 36.5591 47.5064 37.0306 49.1705" stroke-linecap="round"/>
<path d="M31.1905 44.9907C30.2529 45.0873 29.5222 46.9711 29.0372 47.6376C28.1474 48.8602 27.3259 49.9164 27.2122 51.5284C27.0163 54.3031 27.019 57.256 27.019 60.0363" stroke-linecap="round"/>
<path d="M30.3562 67.5591C30.3562 70.542 30.3562 73.5249 30.3562 76.5078C30.3562 79.4442 31.9221 81.9877 34.1155 83.8694C35.9709 85.4612 38.5416 85.9558 40.2861 87.7128C41.6053 89.0413 42.3452 90.9761 43.0676 92.6843C43.6131 93.9742 43.6999 95.6876 44.5391 96.8144" stroke-linecap="round"/>
<path d="M46.2078 100.158C46.7448 100.09 47.3405 99.5484 47.7898 99.1935C49.2305 98.0556 50.8355 97.3369 52.3547 96.3938C54.5816 95.0114 57.1476 94.818 59.5563 94.3071" stroke-linecap="round"/>
<path d="M64.562 93.4712H68.7334" stroke-linecap="round"/>
<path d="M46.2078 103.501C46.2078 105.268 46.7564 106.49 47.3387 108.148C48.27 110.8 49.0415 113.485 50.0826 116.102C50.9133 118.191 51.6432 120.395 52.5854 122.431C53.2471 123.861 54.1791 125.373 54.5506 126.906" stroke-linecap="round"/>
<path d="M57.8876 120.219C57.8876 126.448 55.5142 132.039 54.3328 138.069C52.5284 147.281 52.0476 156.825 52.0476 166.192" stroke-linecap="round"/>
<path d="M50.9456 173.714C49.9465 173.802 50.5687 183.445 50.5902 184.694C50.6348 187.282 51.687 189.852 51.9327 192.445C52.1322 194.552 52.0116 196.68 52.0116 198.79" stroke-linecap="round"/>
<path d="M51.2134 207.149C51.2134 213.932 51.1711 220.79 50.8272 227.544C50.6216 231.581 50.3792 235.693 50.3792 239.748" stroke-linecap="round"/>
<path d="M51.2134 244.763C53.5379 244.763 55.3178 246.435 57.5793 246.435C59.0726 246.435 60.5658 246.435 62.0591 246.435" stroke-linecap="round"/>
<path d="M64.562 243.091C64.562 238.848 65.7395 235.183 66.9988 231.114C68.4387 226.463 69.679 222.01 70.4616 217.212C71.8104 208.944 71.123 200.4 70.4616 192.104" stroke-linecap="round"/>
<path d="M71.2363 184.581C71.2363 177.451 72.7471 171.261 75.5834 164.854C76.7728 162.168 78.111 159.489 78.8437 156.621C79.254 155.015 79.6972 153.469 80.4135 151.982" stroke-linecap="round"/>
<path d="M77.9104 100.158C78.017 100.779 78.5079 101.282 78.9079 101.715C79.8289 102.711 80.4204 103.708 81.0999 104.897C82.3618 107.105 83.7638 109.2 84.8144 111.526C87.8254 118.192 87.6358 127.552 85.4707 134.429" stroke-linecap="round"/>
<path d="M73.739 178.729C73.739 184.639 78.1216 190.212 81.4116 194.766C83.5073 197.666 85.9831 200.207 88.1585 203.035C89.821 205.197 91.2915 207.484 92.9276 209.657" stroke-linecap="round"/>
<path d="M97.0989 218.016C100.494 221.351 103.65 225.221 106.554 228.969C109.163 232.337 112.188 235.439 114.619 238.912" stroke-linecap="round"/>
<path d="M117.122 239.747C118.492 239.747 119.656 239.817 120.888 239.163C122.452 238.333 123.878 237.131 125.465 236.404" stroke-linecap="round"/>
<path d="M88.8211 158.669C88.8211 162.462 88.6058 166.33 88.9603 170.109C89.364 174.412 89.1136 179.262 90.9368 183.294C92.625 187.026 96.5749 190.155 99.483 192.947C102.263 195.616 104.58 198.42 107.111 201.298" stroke-linecap="round"/>
<path d="M109.614 206.313C109.614 209.794 113.586 212.823 115.404 215.536C116.342 216.936 116.904 218.572 117.7 220.05C118.449 221.443 119.406 222.699 120.252 224.034C121.252 225.61 121.991 227.3 122.962 228.882" stroke-linecap="round"/>
<path d="M50.3791 248.406C50.3791 246.917 50.0404 251.401 49.4745 252.785C49.1452 253.59 48.5896 254.26 47.8694 254.762C46.5726 255.666 45.7265 256.928 44.6593 258.067C42.3521 260.53 38.5582 260.866 36.1963 263.153" stroke-linecap="round"/>
<path d="M31.2739 265.66C29.0244 265.66 27.019 267.314 27.019 269.824C27.019 271.404 28.0763 272.96 28.8962 274.209C29.4286 275.02 31.2016 274.668 31.9691 274.796C35.8321 275.439 39.5994 275.69 43.5101 275.69C44.8644 275.69 45.6604 275.638 46.8472 274.898C49.4051 273.304 51.8941 271.812 54.5505 270.411" stroke-linecap="round"/>
<path d="M55.3848 274.018C59.2728 274.018 63.2298 274.018 67.0648 274.018" stroke-linecap="round"/>
<path d="M67.5162 269.003C68.1862 268.842 67.773 264.96 67.773 264.408C67.773 262.396 67.6617 260.616 66.7171 258.794C65.1606 255.792 62.8933 252.438 62.8933 248.942" stroke-linecap="round"/>
<path d="M117.956 241.42C118.186 243.88 120.649 246.671 122.175 248.469C124.088 250.724 125.785 252.987 127.506 255.38C129.174 257.699 131.166 259.691 131.283 262.651C131.387 265.299 131.146 267.42 130.014 269.839" stroke-linecap="round"/>
<path d="M130.47 272.347H135.476" stroke-linecap="round"/>
<path d="M139.647 271.511C139.647 269.703 140.874 267.741 141.488 266.089C142.477 263.427 142.72 260.74 142.578 257.928C142.453 255.447 141.61 253.121 141.61 250.597C141.61 248.996 142.642 249.003 143.819 248.107" stroke-linecap="round"/>
<path d="M147.085 245.599C147.085 243.481 147.257 241.315 147.068 239.204C146.922 237.586 145.211 236.95 144.654 235.568" stroke-linecap="round"/>
<path d="M141.316 234.732C136.865 234.732 132.397 234.732 127.968 234.732" stroke-linecap="round"/>
<path d="M59.6853 62.5444C58.1414 63.6006 70.9272 80.3585 72.1221 82.3161C73.7181 84.9307 75.8103 87.2137 77.4821 89.7755C78.2507 90.9534 79.0757 93.6669 80.4133 94.3074" stroke-linecap="round"/>
<path d="M84.585 100.158C84.8639 103.278 88.405 106.733 89.9976 109.303C92.0445 112.606 93.9031 115.97 95.4917 119.524C96.8728 122.613 96.2406 126.335 96.7533 129.579C97.1902 132.343 98.1842 135.369 99.6021 137.772" stroke-linecap="round"/>
<path d="M110.448 136.101C110.162 134.673 107.929 133.251 107.016 132.218C106.199 131.294 104.874 130.194 104.279 129.113C102.44 125.767 101.941 121.345 100.705 117.732C98.9445 112.584 96.0074 107.901 94.0873 102.816C93.2172 100.512 92.4054 98.0605 91.3299 95.849C90.4393 94.0176 89.2494 92.1007 88.7563 90.1279" stroke-linecap="round"/>
<path d="M84.5849 78.4256C84.268 74.9212 81.507 70.4937 79.828 67.4739C78.0853 64.3394 75.9147 61.4269 73.9937 58.4019C72.0767 55.3833 69.8257 52.455 68.0984 49.33C66.7683 46.9236 64.3919 44.3176 63.7278 41.6475" stroke-linecap="round"/>
<path d="M26.1848 71.7383C26.1848 74.0797 26.1848 77.0186 26.1848 79.2611" stroke-linecap="round"/>
<path d="M26.1848 81.7693C23.7796 81.5746 21.7518 79.0646 20.0002 77.7191C18.3333 76.4386 17.0365 75.3095 15.8025 73.696C15.04 72.699 13.1662 71.7731 13.088 70.4069C12.9961 68.7991 12.8362 67.2426 12.8362 65.6228C12.8362 63.9438 13.5124 63.028 14.5992 61.7085" stroke-linecap="round"/>
<path d="M10.3334 58.3649C10.3334 54.8287 8.90412 51.644 7.83057 48.3345" stroke-linecap="round"/>
<path d="M102.647 141.322C102.647 139.132 101.947 137.159 101.42 135.109" stroke-linecap="round"/>
<path d="M105.964 141.224C105.505 138.507 104.4 136.177 103.451 133.723" stroke-linecap="round"/>
<path d="M108.727 139.288C108.072 137.232 106.815 135.593 105.701 133.828" stroke-linecap="round"/>
<path d="M6.16185 55.8571C6.01712 54.471 3.81813 52.6291 2.82471 51.6777" stroke-linecap="round"/>
<path d="M3.65911 57.529C2.72655 57.529 2.00688 56.9297 1.15625 56.6929" stroke-linecap="round"/>
<path d="M1.99048 60.8726H2.82476" stroke-linecap="round"/>
<path d="M6.16187 66.7231C6.16187 68.1615 7.29546 69.0042 8.14458 70.0919C9.3 71.5721 10.028 73.2733 10.8921 74.9045C11.6203 76.2794 12.3659 77.5919 13.0589 78.9818C13.5849 80.0369 14.507 81.8193 15.339 82.6046" stroke-linecap="round"/>
<path d="M17.842 88.5445C17.9315 87.844 21.5085 91.5278 21.7907 91.7992C22.7884 92.7587 24.0174 93.5103 25.1144 94.3584C26.0311 95.0671 26.6842 96.0324 27.5574 96.7925C30.3051 99.1842 32.185 96.022 33.6935 94.0524" stroke-linecap="round"/>
<path d="M37.8647 50.8421C40.1686 50.8421 41.6764 49.4629 43.2367 47.8919C44.3211 46.8002 45.2614 45.5131 46.2212 44.3136C46.7401 43.665 47.6065 43.298 47.8762 42.4834" stroke-linecap="round"/>
<path d="M30.3562 4.39652C29.5917 4.30509 28.8803 3.52337 28.1871 3.28651C27.4414 3.03172 26.606 3.37167 25.9449 3.72303C24.5299 4.47518 22.8477 6.16998 22.8477 8.21295" stroke-linecap="round"/>
<path d="M32.8591 2.2429C33.3989 2.17565 33.7422 1.58202 34.2549 1.4543C35.0558 1.25474 35.6717 0.862845 36.5188 0.862845C38.576 0.862845 40.5893 0.278956 42.5523 1.25715C44.6737 2.31424 47.493 3.50751 48.7727 5.59444C49.7497 7.18776 51.4639 8.97493 52.0477 10.7203" stroke-linecap="round"/>
<path d="M53.7382 14.0635C53.7382 15.2644 53.6155 16.485 53.9516 17.6623C54.3213 18.9571 55.3849 20.2492 55.3849 21.5863" stroke-linecap="round"/>
<path d="M34.5276 6.54102C35.1566 6.61745 35.7489 7.46359 36.2587 7.81844C37.1287 8.42392 37.8328 9.2268 38.2819 10.2364C39.2286 12.3647 39.9426 14.7596 40.1486 17.1254C40.3205 19.0998 40.7222 21.0614 40.7222 23.0563C40.7222 25.4362 42.0362 27.5795 42.0362 29.9453" stroke-linecap="round"/>
<path d="M43.7048 34.125C43.7048 35.0377 43.7703 35.5094 44.3769 36.2486C45.7984 37.9807 48.7891 42.6751 49.8836 44.6193" stroke-linecap="round"/>
<path d="M56.2192 24.0942C56.2192 28.6835 58.3156 32.8219 59.6517 37.0903C60.5146 39.8468 61.2551 42.7491 61.7388 45.6077" stroke-linecap="round"/>
<path d="M65.3962 76.7539C65.3962 80.3323 67.0648 83.3529 67.0648 86.7843" stroke-linecap="round"/>
</svg>

