<svg viewBox="0 0 52 54" fill="none" xmlns="http://www.w3.org/2000/svg">
<path d="M3.92745 39.1695C4.6358 39.258 5.01164 40.1237 5.54203 40.4552C6.07225 40.7866 6.77241 40.9073 7.21642 41.2625C7.63935 41.6008 9.31673 41.3518 9.84759 41.3223C10.6062 41.2801 11.7199 40.0696 12.3891 40.2608C12.8959 40.4056 10.9759 42.8285 10.7894 43.0564C10.1035 43.8948 9.57849 44.7136 9.57849 45.8371C9.57849 46.9334 9.57849 48.0298 9.57849 49.1261C9.57849 50.2971 10.2761 51.0885 9.05524 49.6643C7.60837 47.9762 6.57608 47.7806 4.3311 47.7806C3.47059 47.7806 2.69742 47.6994 1.90923 48.0497C0.646523 48.6109 0.812204 48.6235 1.71488 47.7208C3.12002 46.3156 3.38926 45.3549 3.38926 43.3405C3.38926 42.5332 3.38926 41.7259 3.38926 40.9186C3.38926 40.2655 2.52862 39.5476 2.31287 38.9004" stroke-linecap="round"/>
<path d="M32.5 5.2124C31.6507 7.61879 27.3616 12.4316 17 12.4316" stroke-linecap="round"/>
<path d="M32.499 44.0674C33.3483 35.8573 37.6374 19.4372 47.999 19.4372" stroke-linecap="round"/>
<path d="M32.499 5C33.3483 9.81278 37.6374 19.4384 47.999 19.4384" stroke-linecap="round"/>
<path d="M32.5 44.0674C31.6507 33.5217 27.3616 12.4304 17 12.4304" stroke-linecap="round"/>
</svg>