<svg viewBox="0 0 100 114" fill="none" xmlns="http://www.w3.org/2000/svg">
<path d="M45.8709 7.20898C47.2059 7.20898 48.3284 8.1071 49.3077 8.92475C50.6934 10.0816 51.8985 11.7451 52.677 13.374C53.2854 14.647 53.5344 15.9295 53.9368 17.2597C54.0973 17.7906 54.2744 18.3342 54.313 18.8913C54.3214 19.0123 54.2442 19.3944 54.3933 19.3203" stroke-width="0.8" stroke-linecap="round" pathLength="1"/>
<path d="M55.3064 21.7423C55.3064 22.5797 55.2193 23.4588 55.3487 24.2865C55.5214 25.3909 55.9411 26.4004 56.2026 27.4783C56.7727 29.8277 56.9805 32.1145 56.9805 34.5349" stroke-width="0.8" stroke-linecap="round" pathLength="1"/>
<path d="M56.7524 36.0489C56.7524 37.8598 55.9408 39.4975 55.4969 41.2298C55.3008 41.9952 55.0784 42.7466 55.0784 43.5427C55.0784 44.0978 55.0784 44.6529 55.0784 45.208" stroke-width="0.8" stroke-linecap="round" pathLength="1"/>
<path d="M55.2303 46.8732C55.2303 48.9295 55.9329 50.692 56.6592 52.6009C57.2252 54.0885 57.7487 55.5341 57.8936 57.1342C57.9745 58.0281 57.9697 58.9209 57.9697 59.8172" stroke-width="0.8" stroke-linecap="round" pathLength="1"/>
<path d="M43.8923 6.60309C43.3139 6.60309 42.7729 6.63674 42.2014 6.75448C40.3655 7.1327 38.6149 7.36004 36.7396 7.36004C35.7908 7.36004 34.9454 7.5181 34.0467 7.81001C33.4576 8.00136 32.9005 8.30502 32.3261 8.49548" stroke-width="0.8" stroke-linecap="round" pathLength="1"/>
<path d="M30.9563 10.0853C30.6409 10.1167 30.3014 10.5511 30.1193 10.7834C29.8758 11.0939 29.6984 11.4566 29.4725 11.7801C29.1175 12.2882 28.7108 12.756 28.386 13.2856C27.912 14.0585 27.6274 14.9369 27.232 15.7499C27.0101 16.206 26.7427 16.7083 26.619 17.2007" stroke-width="0.8" stroke-linecap="round" pathLength="1"/>
<path d="M32.8586 9.78241C32.011 9.97699 31.3376 11.1984 30.8802 11.843C30.2248 12.7667 29.8142 13.8736 29.2823 14.8708C28.694 15.9737 28.5435 17.1274 28.3522 18.3528C28.1711 19.5133 28.0648 20.6467 28.0648 21.818" stroke-width="0.8" stroke-linecap="round" pathLength="1"/>
<path d="M27.8367 24.0889C27.8367 25.2936 27.8215 26.487 27.7225 27.6886C27.6628 28.4134 27.7103 29.1368 27.6084 29.8585C27.4661 30.866 27.3184 31.8735 27.1856 32.8822C27.0622 33.8198 26.7389 34.7028 26.5811 35.6324C26.4071 36.6576 26.3148 37.6238 26.3148 38.6645C26.3148 39.5569 26.3315 40.4333 26.5473 41.3054C26.6696 41.7997 26.8512 42.2821 26.9236 42.7857" stroke-width="0.8" stroke-linecap="round" pathLength="1"/>
<path d="M27.228 36.9572C27.228 38.9724 28.8387 40.5579 29.2064 42.4913C29.4875 43.9692 29.5108 45.3896 29.5108 46.8901C29.5108 47.5859 29.4793 48.2896 29.5192 48.9843C29.5628 49.7436 29.8922 50.4373 30.0603 51.1711C30.4096 52.6949 30.7283 54.415 30.7283 55.9904C30.7283 57.0032 30.4568 57.9352 30.0434 58.8584C29.8109 59.3778 29.6635 59.9252 29.4347 60.4438C29.3432 60.651 29.1851 60.8102 29.1303 61.0283" stroke-width="0.8" stroke-linecap="round" pathLength="1"/>
<path d="M29.1301 54.5184C29.1301 55.1239 29.1301 55.7295 29.1301 56.3351C29.1301 57.0878 28.8709 57.6819 28.6144 58.3788C28.3724 59.0363 28.1574 59.6838 27.8365 60.3133C27.6951 60.5909 27.401 60.814 27.3039 61.1039" stroke-width="0.8" stroke-linecap="round" pathLength="1"/>
<path d="M27.3801 44.4509C27.3801 45.7658 27.974 47.1928 28.2932 48.4628" stroke-width="0.8" stroke-linecap="round" pathLength="1"/>
<path d="M53.4043 45.2801C53.1211 45.5106 52.7167 45.7743 52.3982 45.9614C51.9044 46.2512 51.5136 46.629 51.0454 46.9454C49.9185 47.7069 48.6225 47.9961 47.431 48.6107C46.2312 49.2296 44.6526 49.8218 43.2839 49.8218" stroke-width="0.8" stroke-linecap="round" pathLength="1"/>
<path d="M41.6858 50.1247C39.181 50.1247 36.7975 49.4957 34.6472 48.2281C34.1353 47.9264 33.5376 47.6803 33.1042 47.2651C32.6349 46.8156 32.2259 46.3582 31.6837 45.9699C30.7948 45.3332 30.5238 44.367 30.1957 43.3878" stroke-width="0.8" stroke-linecap="round" pathLength="1"/>
<path d="M42.2942 33.1723C42.4917 33.1504 42.5953 33.0209 42.8269 33.0209C43.0725 33.0209 43.0552 33.2826 43.0552 33.475" stroke-width="0.8" stroke-linecap="round" pathLength="1"/>
<path d="M39.4031 33.4753C39.0285 33.1772 38.7743 33.2123 38.566 33.6267" stroke-width="0.8" stroke-linecap="round" pathLength="1"/>
<path d="M42.0662 30.9772C42.0109 31.2248 41.6177 31.4073 41.4405 31.566C41.2737 31.7153 40.9787 31.6585 40.7726 31.6585" stroke-width="0.8" stroke-linecap="round" pathLength="1"/>
<path d="M44.8052 31.2045C44.82 31.3369 45.0005 31.4935 45.0715 31.6208C45.1572 31.7742 45.1096 32.0176 45.1096 32.1885C45.1096 32.4846 45.1109 33.1719 44.8052 33.3239" stroke-width="0.8" stroke-linecap="round" pathLength="1"/>
<path d="M37.8049 34.3079C37.4801 34.0171 37.1962 33.7217 37.1962 33.2524C37.1962 32.7822 37.0519 32.0518 37.3484 31.6586" stroke-width="0.8" stroke-linecap="round" pathLength="1"/>
<path d="M42.1424 27.3439C42.1424 25.6926 42.1424 24.0414 42.1424 22.3901C42.1424 21.8406 42.2106 21.2243 42.5397 20.7584C42.7528 20.4569 43.0346 19.7848 43.3599 19.623" stroke-width="0.8" stroke-linecap="round" pathLength="1"/>
<path d="M53.3276 20.0014C52.8204 19.9173 52.4073 19.4343 51.958 19.2108C51.6743 19.0697 51.4197 18.9159 51.1548 18.7482C50.672 18.4426 50.1557 18.3927 49.5822 18.4118C48.3127 18.4538 47.0129 19.5223 45.7183 19.093" stroke-width="0.8" stroke-linecap="round" pathLength="1"/>
<path d="M36.6638 19.6229C35.8473 19.6229 35.0329 19.6986 34.2119 19.6986C33.5374 19.6986 32.8274 19.4854 32.1743 19.3369C31.7775 19.2467 31.1127 19.133 30.7116 19.2612C30.2203 19.4183 29.8494 19.8387 29.3589 20.0014" stroke-width="0.8" stroke-linecap="round" pathLength="1"/>
<path d="M45.1097 23.6349C45.6997 23.048 46.2864 22.4625 47.0881 22.1967" stroke-width="0.8" stroke-linecap="round" pathLength="1"/>
<path d="M48.2292 22.0451C48.2292 21.891 48.3356 21.8788 48.3813 21.7423" stroke-width="0.8" stroke-linecap="round" pathLength="1"/>
<path d="M49.4477 22.1208C49.5395 22.0397 49.6059 21.9984 49.676 21.8937" stroke-width="0.8" stroke-linecap="round" pathLength="1"/>
<path d="M50.4361 22.575C50.55 22.575 50.6946 22.5148 50.7405 22.4236" stroke-width="0.8" stroke-linecap="round" pathLength="1"/>
<path d="M51.6539 23.332C51.8759 23.332 52.0004 23.304 52.1865 23.1806" stroke-width="0.8" stroke-linecap="round" pathLength="1"/>
<path d="M49.4041 22.66C49.4266 22.8613 49.5131 23.0177 49.5013 23.2406C49.4922 23.4131 49.2694 23.73 49.0879 23.7701C48.6218 23.8731 48.2831 23.669 48.1395 23.2406" stroke-width="0.8" stroke-linecap="round" pathLength="1"/>
<path d="M36.2983 24.5042C36.046 24.4763 35.7524 24.1371 35.5688 23.9747C35.3657 23.7951 34.9904 23.636 34.742 23.5124C34.3399 23.3124 33.7397 23.1495 33.2829 23.1495" stroke-width="0.8" stroke-linecap="round" pathLength="1"/>
<path d="M32.3105 23.0529C32.3105 22.9209 32.176 22.8166 32.0674 22.7626" stroke-width="0.8" stroke-linecap="round" pathLength="1"/>
<path d="M31.3862 23.6333C31.2025 23.6167 30.9576 23.5169 30.8026 23.4398" stroke-width="0.8" stroke-linecap="round" pathLength="1"/>
<path d="M30.8513 24.3106C30.6028 24.3106 30.3978 24.327 30.1704 24.2139" stroke-width="0.8" stroke-linecap="round" pathLength="1"/>
<path d="M30.3159 24.9881H29.635" stroke-width="0.8" stroke-linecap="round" pathLength="1"/>
<path d="M34.1902 23.9419C34.1902 24.333 34.2136 24.5823 33.7768 24.716C33.3154 24.8572 32.6825 24.7489 32.6825 24.1354" stroke-width="0.8" stroke-linecap="round" pathLength="1"/>
<path d="M45.1182 5.07196C45.0147 4.04267 43.916 2.9069 43.21 2.22461C42.4878 1.52672 41.4945 1.02785 40.4537 1.00432C39.3505 0.979381 38.3799 1.06013 37.3188 1.30563C36.898 1.40298 35.3629 1.70176 35.1682 2.08902" stroke-width="0.8" stroke-linecap="round" pathLength="1"/>
<path d="M33.3962 3.17371C32.8721 3.17371 32.3937 3.72769 31.9651 3.98723C30.873 4.64849 30.1882 5.55362 29.2391 6.35249C28.7447 6.76863 28.1884 7.20095 27.6413 7.54265C26.8529 8.0351 26.3377 8.86623 25.7634 9.57646C24.3556 11.3175 22.9552 12.688 22.0152 14.774C21.6086 15.6762 21.2823 16.6538 20.6597 17.4406C20.2011 18.02 19.4851 18.6518 19.221 19.3087" stroke-width="0.8" stroke-linecap="round" pathLength="1"/>
<path d="M18.948 21.4781C18.948 22.4421 18.2665 23.3827 18.2665 24.4008C18.2665 25.7701 18.4589 27.2748 18.0545 28.5965C17.4631 30.5294 15.8307 31.7963 15.1316 33.6509C14.1968 36.1306 14.5844 39.0987 15.4042 41.5451" stroke-width="0.8" stroke-linecap="round" pathLength="1"/>
<path d="M15.4041 43.0365C15.4041 44.7517 15.4507 46.4744 15.4041 48.1888C15.35 50.179 13.4633 51.8153 11.724 52.3921" stroke-width="0.8" stroke-linecap="round" pathLength="1"/>
<path d="M23.1736 38.1555C23.1736 40.6265 23.0825 42.9011 24.052 45.2362C25.0549 47.6514 25.4907 49.7889 25.4907 52.3922" stroke-width="0.8" stroke-linecap="round" pathLength="1"/>
<path d="M25.4907 54.9682C25.4907 55.9002 25.3564 56.6053 25.0137 57.4766C24.8018 58.0153 24.4317 59.5782 23.7188 59.5782" stroke-width="0.8" stroke-linecap="round" pathLength="1"/>
<path d="M23.3101 46.9686C23.1904 47.5043 22.4105 48.064 22.1666 48.6032C21.8129 49.3851 21.7205 50.458 21.682 51.2998C21.5951 53.2021 21.707 54.8228 22.7649 56.4597" stroke-width="0.8" stroke-linecap="round" pathLength="1"/>
<path d="M20.584 40.7317C20.5226 41.0063 20.1144 41.4146 19.9631 41.6883C19.6662 42.2252 19.3661 42.7628 19.0847 43.3079C18.7927 43.8736 18.4032 44.5498 18.4032 45.2061" stroke-width="0.8" stroke-linecap="round" pathLength="1"/>
<path d="M19.2207 51.3074C19.2207 53.086 18.5572 54.6489 16.631 54.9682" stroke-width="0.8" stroke-linecap="round" pathLength="1"/>
<path d="M21.9469 35.7149C21.9469 32.4809 21.8169 29.4256 22.6208 26.2765C23.0336 24.6598 23.4915 23.0305 23.8551 21.4029C24.062 20.4767 24.5366 19.5954 24.5366 18.6309" stroke-width="0.8" stroke-linecap="round" pathLength="1"/>
<path d="M26.3083 18.4952C26.3083 20.4924 25.3766 22.4336 24.756 24.3179C24.3333 25.6015 24.3686 26.961 24.2336 28.2876C24.1586 29.0242 23.9912 29.8381 23.9912 30.5625" stroke-width="0.8" stroke-linecap="round" pathLength="1"/>
<path d="M44.8452 1.54661C45.2791 1.54661 45.7953 1.44781 46.2158 1.34323C47.0397 1.13834 48.0227 1.27544 48.8661 1.27544C50.8872 1.27544 52.7382 2.14715 54.4014 3.1812C55.4965 3.86211 56.5028 4.64052 57.3545 5.61425C58.6 7.03806 59.4545 8.60781 60.444 10.179C61.6818 12.1444 62.8837 14.2495 63.9272 16.3257" stroke-width="0.8" stroke-linecap="round" pathLength="1"/>
<path d="M65.0173 18.3597C65.0173 19.8177 66.1903 21.0669 66.244 22.5629C66.2735 23.3844 66.4248 24.1737 66.3727 25.0035C66.3438 25.463 66.1077 26.8198 66.1077 26.3594" stroke-width="0.8" stroke-linecap="round" pathLength="1"/>
<path d="M64.6087 21.6136C64.6087 24.0449 65.1284 26.0249 66.1762 28.1896C67.3508 30.6164 70.197 32.7118 70.197 35.5791" stroke-width="0.8" stroke-linecap="round" pathLength="1"/>
<path d="M68.0161 34.3589C68.1465 35.2024 68.9062 36.1847 69.3942 36.8673C70.1321 37.8996 71.0241 38.8435 71.6962 39.918C72.7445 41.5941 73.0592 43.0474 73.0592 45.0101C73.0592 46.1368 73.1716 47.2774 72.7866 48.3546C72.5678 48.9666 72.4527 50.7278 71.8325 51.0363" stroke-width="0.8" stroke-linecap="round" pathLength="1"/>
<path d="M53.7046 9.81757C53.7046 10.4825 54.1918 11.1848 54.5224 11.7459C55.1035 12.732 55.502 13.8851 56.0823 14.9021C56.8538 16.2543 57.0854 17.696 57.4605 19.1882C57.8277 20.6496 58.1206 22.2757 58.2025 23.7831C58.2955 25.4944 58.7428 27.0252 59.1566 28.6718C59.4803 29.9597 59.8381 32.5963 59.8381 32.5963" stroke-width="0.8" stroke-linecap="round" pathLength="1"/>
<path d="M59.8387 35.9861C59.8387 37.2866 59.5174 38.3733 59.1572 39.6168C58.8008 40.8475 58.6177 42.1522 58.3697 43.4133C58.0763 44.9053 58.0268 46.4822 58.718 47.8576C59.0379 48.4939 59.3673 49.1526 59.6267 49.816C59.7807 50.2099 59.8 50.591 60.1113 50.9007" stroke-width="0.8" stroke-linecap="round" pathLength="1"/>
<path d="M60.5202 53.4769C60.6253 54.6268 61.3184 55.7073 61.338 56.8968C61.3488 57.5542 61.338 58.2127 61.338 58.8703C61.338 58.9888 61.3833 59.8042 61.2017 59.4428" stroke-width="0.8" stroke-linecap="round" pathLength="1"/>
<path d="M66.9258 57.2732C66.7828 56.5623 65.5205 55.8387 65.0251 55.375C64.2115 54.6133 63.5791 53.837 62.9731 52.9043C61.814 51.1203 60.9286 48.8413 60.9286 46.6974" stroke-width="0.8" stroke-linecap="round" pathLength="1"/>
<path d="M68.5618 55.104C67.9199 55.0401 66.7291 54.109 66.5173 53.4769" stroke-width="0.8" stroke-linecap="round" pathLength="1"/>
<path d="M71.0149 53.748C69.5741 53.748 68.2615 52.2203 67.4711 51.1719" stroke-width="0.8" stroke-linecap="round" pathLength="1"/>
<path d="M66.9258 49.0024C66.9258 48.3764 66.5519 47.8345 66.2443 47.3076C65.5691 46.1509 65.1316 44.9004 64.6844 43.6467C64.132 42.0981 64.1998 40.3226 64.1998 38.6978" stroke-width="0.8" stroke-linecap="round" pathLength="1"/>
<path d="M69.5154 45.0702C69.5154 42.9961 67.5826 40.928 66.6834 39.1044C65.9811 37.6803 65.0638 36.4387 63.9271 35.3079" stroke-width="0.8" stroke-linecap="round" pathLength="1"/>
<path d="M59.0208 12.9361C58.9234 12.4522 58.2813 11.83 57.9909 11.4371C57.5441 10.8326 57.0581 10.271 56.5976 9.68203C55.8404 8.71348 55.1105 7.82601 54.2502 6.97028" stroke-width="0.8" stroke-linecap="round" pathLength="1"/>
<path d="M52.0691 5.07189C51.1562 4.98107 50.4383 4.25836 49.4794 4.25836" stroke-width="0.8" stroke-linecap="round" pathLength="1"/>
<path d="M52.3418 8.32615C51.9493 7.97472 50.9068 7.36939 50.7062 6.97028" stroke-width="0.8" stroke-linecap="round" pathLength="1"/>
<path d="M41.4377 4.52979C39.864 4.52979 38.0336 4.30269 36.5309 4.80097" stroke-width="0.8" stroke-linecap="round" pathLength="1"/>
<path d="M38.5754 2.63134C38.1456 2.63134 37.5774 2.5249 37.2124 2.76693" stroke-width="0.8" stroke-linecap="round" pathLength="1"/>
<path d="M55.4766 56.7311C54.1292 56.7311 52.9364 57.5799 51.7965 58.2225C50.577 58.91 49.4735 59.6448 48.3889 60.5275C47.5573 61.2045 46.4659 61.8478 45.5191 62.358C44.5466 62.882 43.4487 63.1418 42.4977 63.7063C41.5603 64.2628 40.311 65.3351 39.1962 65.5368C38.4928 65.664 37.813 65.6799 37.076 65.6799" stroke-width="0.8" stroke-linecap="round" pathLength="1"/>
<path d="M36.1218 65.1373C36.0308 64.6847 35.2528 64.2064 34.9557 63.8718C34.6133 63.4862 34.2748 63.1147 33.9713 62.6968C33.5743 62.1499 33.2864 61.4479 33.1232 60.7985" stroke-width="0.8" stroke-linecap="round" pathLength="1"/>
<path d="M38.3025 66.4934C38.3025 67.2369 38.5612 67.7327 38.9159 68.3841C39.2783 69.0497 39.4595 69.5968 39.6655 70.32C40.0138 71.5427 40.3072 72.7533 40.4757 74.011C40.5539 74.5943 40.7341 75.1584 40.7559 75.7435C40.7675 76.0547 40.7999 77.8096 41.0967 77.8753C42.1196 78.1014 42.5961 77.4758 43.0049 76.6625C43.5594 75.5592 43.9477 74.8652 45.0115 74.1918C45.736 73.7332 46.2689 73.032 46.897 72.4593C47.7831 71.6512 48.911 71.0743 49.8805 70.3652C50.8913 69.6258 52.147 68.8562 53.0229 67.9849" stroke-width="0.8" stroke-linecap="round" pathLength="1"/>
<path d="M55.0675 66.7644C56.1939 65.7458 57.4986 64.9201 58.6189 63.9171C59.1238 63.465 59.6287 63.0406 60.1106 62.5612C60.4827 62.1911 60.9891 61.366 61.4736 61.2053" stroke-width="0.8" stroke-linecap="round" pathLength="1"/>
<path d="M36.2585 66.0865C36.2585 66.9337 35.681 67.6004 35.2287 68.256C34.6713 69.064 34.1778 69.9075 33.6764 70.7493C32.9872 71.9063 32.3421 73.1036 31.9272 74.3875C31.7354 74.9813 31.6557 76.6624 30.8747 76.6624C30.1485 76.6624 29.5798 75.3763 29.5798 74.7642" stroke-width="0.8" stroke-linecap="round" pathLength="1"/>
<path d="M29.4434 73.5439C29.4434 72.6054 29.6036 71.5615 29.2011 70.6966C28.8006 69.8361 28.359 68.7632 28.1107 67.8492C27.7644 66.5746 27.6715 65.4978 27.6715 64.1884" stroke-width="0.8" stroke-linecap="round" pathLength="1"/>
<path d="M37.6213 68.2559C37.4461 68.2777 37.2994 68.4734 37.1367 68.5196C36.8553 68.5996 36.7216 68.2152 36.5309 68.1204" stroke-width="0.8" stroke-linecap="round" pathLength="1"/>
<path d="M38.4392 76.5268C38.4392 77.1771 38.4392 77.8274 38.4392 78.4778C38.4392 79.373 38.1057 79.9094 37.7577 80.715C37.0898 82.261 36.8323 83.8926 36.3947 85.5057C35.7308 87.953 35.4758 90.4595 35.1377 92.963C34.7187 96.0664 33.3063 98.7897 32.442 101.776C31.7632 104.122 31.7605 106.38 31.7605 108.797" stroke-width="0.8" stroke-linecap="round" pathLength="1"/>
<path d="M32.5776 78.1537C32.5776 79.2239 31.9766 80.125 31.6311 81.1216C31.1003 82.653 30.8686 84.2011 30.5331 85.7768C29.9787 88.3812 29.9541 91.0923 29.367 93.6786C29.0683 94.9945 28.8097 96.299 28.3523 97.5729C27.9254 98.762 27.458 99.9563 27.2013 101.196C26.8084 103.095 26.853 105.229 26.853 107.17" stroke-width="0.8" stroke-linecap="round" pathLength="1"/>
<path d="M28.7619 103.78C30.983 104.001 29.401 106.464 28.6256 105.949" stroke-width="0.8" stroke-linecap="round" pathLength="1"/>
<path d="M32.8507 84.9333C33.6174 84.9333 34.0774 85.4759 34.0774 86.2289C34.0774 86.9613 32.8856 87.8502 32.4418 86.9671" stroke-width="0.8" stroke-linecap="round" pathLength="1"/>
<path d="M63.3821 59.985C65.0088 59.985 66.5766 60.9483 68.0163 61.6196C69.5575 62.3383 71.1025 62.9833 72.5218 63.9246C73.3715 64.4881 74.0355 65.2625 74.8919 65.8077C75.8529 66.4196 76.8244 66.8675 77.898 67.2465C78.8286 67.5749 79.5861 67.7967 80.5559 67.9545C81.5532 68.1169 82.5639 68.3167 83.4485 68.8283C84.5056 69.4397 85.2853 70.5788 86.2805 71.2388" stroke-width="0.8" stroke-linecap="round" pathLength="1"/>
<path d="M87.5075 73.8149C87.5075 74.8307 88.0436 75.6745 88.5297 76.5342C89.3425 77.9716 90.0322 79.527 90.6424 81.0614C91.288 82.6847 91.9095 84.3681 92.4749 86.0178C92.7974 86.959 93.3684 89.8595 93.3684 88.8652" stroke-width="0.8" stroke-linecap="round" pathLength="1"/>
<path d="M93.9133 90.7635C93.2049 91.5562 94.5583 94.1504 94.8068 94.9743C95.4324 97.0489 96.1001 99.1032 96.6393 101.204C97.2237 103.481 97.602 105.744 98.0628 108.036C98.2095 108.765 98.1463 109.521 98.2749 110.258C98.4349 111.176 98.624 112.09 98.8201 113" stroke-width="0.8" stroke-linecap="round" pathLength="1"/>
<path d="M86.4172 83.9841C86.4172 85.0329 86.2952 85.5969 85.5237 86.3644C84.3295 87.5524 83.1582 88.7395 82.1313 90.078C81.0497 91.4879 80.0838 92.9167 79.4659 94.5901C78.9817 95.9014 78.3755 97.214 78.3755 98.6276" stroke-width="0.8" stroke-linecap="round" pathLength="1"/>
<path d="M80.5557 84.1197C78.3482 86.5596 76.3304 89.4851 76.3304 92.9329" stroke-width="0.8" stroke-linecap="round" pathLength="1"/>
<path d="M75.7854 82.3571C75.7854 84.0796 74.7277 85.8099 74.3921 87.5095C73.8028 90.4937 73.4683 93.3525 73.4683 96.4055C73.4683 99.3859 73.4683 102.366 73.4683 105.347C73.4683 106.21 73.4576 107.075 73.4683 107.938C73.4798 108.866 73.7409 109.777 73.7409 110.695" stroke-width="0.8" stroke-linecap="round" pathLength="1"/>
<path d="M84.6445 94.0177C84.5354 94.4158 84.0712 94.7797 83.8267 95.1024C83.2426 95.8736 82.7983 96.7168 82.2668 97.5204C81.5693 98.5752 80.8154 99.5897 80.1466 100.662C78.6516 103.058 78.6473 106.479 78.6473 109.204" stroke-width="0.8" stroke-linecap="round" pathLength="1"/>
<path d="M25.0813 64.5951C23.1097 64.5951 21.2015 65.8816 19.3567 66.4933C18.222 66.8696 16.9881 67.0603 15.9416 67.6458C15.1526 68.0873 14.526 68.6168 13.7759 69.1298C13.0791 69.6063 12.4912 70.169 11.7239 70.561C10.634 71.1177 9.65168 71.8565 8.92971 72.8509C8.20172 73.8536 7.54585 74.7293 7.22595 75.9845C6.86763 77.3905 6.95335 78.8862 6.95335 80.3233" stroke-width="0.8" stroke-linecap="round" pathLength="1"/>
<path d="M6.27197 78.6962C6.18464 79.565 5.22768 80.3567 4.77267 81.0314C4.15707 81.9442 3.94942 82.954 3.40966 83.8787C2.84684 84.8429 3.00076 86.1676 3.00076 87.2383C3.00076 88.8871 2.97782 90.5062 2.83417 92.1496C2.67033 94.0239 2.30394 95.8761 2.04666 97.7388C1.70773 100.193 1.77989 102.679 1.47117 105.136C1.17497 107.493 0.819958 109.803 0.819958 112.186" stroke-width="0.8" stroke-linecap="round" pathLength="1"/>
<path d="M5.04573 85.4755C5.04573 85.9513 5.3335 86.2849 5.52278 86.7033C5.81645 87.3525 6.04263 88.0559 6.27244 88.7296C6.49939 89.3951 6.79892 90.0296 7.02209 90.6957C7.33207 91.6207 7.41221 92.644 7.63544 93.5957C8.10709 95.6065 8.18064 97.5067 8.18064 99.5691C8.18064 100.656 8.18064 101.744 8.18064 102.831C8.18064 103.178 8.37297 104.43 8.04434 104.593" stroke-width="0.8" stroke-linecap="round" pathLength="1"/>
<path d="M6.54499 103.102C6.54499 103.761 7.01473 104.455 7.22649 105.075C7.4324 105.679 7.54817 106.288 7.70355 106.906C7.97706 107.994 7.908 109.295 7.908 110.424" stroke-width="0.8" stroke-linecap="round" pathLength="1"/>
<path d="M61.6106 77.8826C61.539 78.5944 60.5204 79.4265 60.1113 79.9918C59.495 80.8432 58.745 81.7567 58.3394 82.7337C57.9201 83.7436 57.6712 84.8635 57.5216 85.9426C57.4497 86.4613 57.4809 87.5499 57.1127 87.9161" stroke-width="0.8" stroke-linecap="round" pathLength="1"/>
<path d="M56.0222 78.4251C55.4163 78.9675 54.8417 79.5388 54.3866 80.2179C54.0459 80.7262 53.8716 81.2424 53.4325 81.6792" stroke-width="0.8" stroke-linecap="round" pathLength="1"/>
<path d="M50.5698 84.6619C50.4624 85.6235 49.6428 86.4794 49.3431 87.3737" stroke-width="0.8" stroke-linecap="round" pathLength="1"/>
<path d="M81.3735 72.8659C80.5877 72.9441 79.5175 74.1799 78.9201 74.6587C78.4435 75.0406 78.0136 75.6843 77.8222 76.2556C77.751 76.4678 77.3777 77.2974 77.2845 77.2047" stroke-width="0.8" stroke-linecap="round" pathLength="1"/>
<path d="M22.6282 74.7642C22.6282 76.1133 22.9575 77.1442 23.2794 78.4251C23.4544 79.1215 23.9912 81.1768 23.9912 80.4589" stroke-width="0.8" stroke-linecap="round" pathLength="1"/>
<path d="M24.3999 83.3061V83.984" stroke-width="0.8" stroke-linecap="round" pathLength="1"/>
<path d="M32.9778 48.6951C32.9778 50.7433 33.4244 52.6126 33.8441 54.6075C34.1439 56.0325 34.3797 57.4828 34.4284 58.9365C34.4599 59.8785 34.791 60.7378 34.791 61.6822" stroke-width="0.8" stroke-linecap="round" pathLength="1"/>
<path d="M47.7893 38.4761C47.1899 38.5358 46.5879 38.9863 46.0028 39.1403C45.5012 39.2724 45.0671 39.284 44.5411 39.284" stroke-width="0.8" stroke-linecap="round" pathLength="1"/>
<path d="M38.207 39.5264C37.4509 39.5264 36.3648 39.7006 35.6896 39.3648" stroke-width="0.8" stroke-linecap="round" pathLength="1"/>
<path d="M43.729 39.5264C42.9815 39.5264 42.2661 39.9038 41.5184 39.9303C40.8703 39.9534 40.2246 39.9303 39.5875 39.9303" stroke-width="0.8" stroke-linecap="round" pathLength="1"/>
<path d="M46.2466 40.4033C45.8721 40.4033 45.4045 40.8371 45.1503 41.09C44.8284 41.4102 44.5702 41.702 44.1307 41.8933C43.32 42.2461 42.3489 42.5036 41.4554 42.5036" stroke-width="0.8" stroke-linecap="round" pathLength="1"/>
<path d="M40.3184 42.3422C39.8058 42.3422 39.0491 42.0618 38.6491 41.7363C38.1961 41.3676 37.25 41.1652 36.9889 40.6458" stroke-width="0.8" stroke-linecap="round" pathLength="1"/>
<path d="M46.165 37.9628C45.5805 37.9628 44.9767 37.971 44.4063 37.8267C44.1984 37.7741 43.988 37.718 43.7826 37.6566C43.6066 37.6041 43.4057 37.5381 43.2221 37.525C42.8746 37.5003 42.5484 37.5668 42.2401 37.7306C42.0917 37.8094 41.9546 37.8829 41.783 37.8829C41.6513 37.8829 41.302 37.9672 41.1708 37.9672C40.9967 37.9672 40.8155 37.9276 40.655 37.8607C40.5375 37.8118 40.4175 37.7493 40.2922 37.7232C40.1532 37.6942 39.9688 37.7023 39.8298 37.7306C39.332 37.8319 39.1317 37.9976 38.6698 38.1891C38.4051 38.2988 38.1355 38.3733 37.8603 38.4494C37.7746 38.473 37.7031 38.4819 37.615 38.4819" stroke-width="0.8" stroke-linecap="round" pathLength="1"/>
</svg>