<svg viewBox="0 0 69 23" fill="none" xmlns="http://www.w3.org/2000/svg">
<path d="M1 13.3526C1 13.3526 5.55673 6.30316 13.1646 4.97993C20.8975 3.63497 31.6835 8.00113 30.8128 15.9048C30.3444 20.1564 28.1001 23.0167 23.8796 22.9963C19.6732 22.9759 16.962 20.0836 16.127 15.9048C14.3392 6.95792 25.6518 0.0774392 34.6576 0.0605615C43.6815 0.0436499 55.2575 6.94529 53.4403 15.9048C52.5903 20.0952 49.9695 23.121 45.7507 22.9963C41.6154 22.8741 38.7531 20.0278 37.9981 15.9048C36.3873 7.10834 47.1103 -0.772122 55.8984 0.0605615C61.6365 0.604255 65.5174 3.34968 68 8.62154" stroke-linecap="round"/>
</svg>