<svg viewBox="0 0 100 114" fill="none" xmlns="http://www.w3.org/2000/svg">
<path d="M78.823 1C78.823 6.43848 70.8282 13.7962 67.4511 18.11C63.1285 23.6315 54.9526 29.8604 48.3703 32.7214C37.0121 37.6584 23.332 37.0947 12.013 32.7214C9.15181 31.616 4.80664 28.4847 1.67988 28.4847C-1.59084 28.4847 7.89225 31.2161 9.93545 33.7535C11.4581 35.6444 15.2895 37.6062 17.3163 39.6198C20.0315 42.3173 23.0595 44.6392 25.1891 47.9304C28.3339 52.7905 34.1938 59.3454 35.4676 65.0404C36.4782 69.5587 38.4746 73.1265 38.4746 77.805C38.4746 81.3719 38.4746 84.9387 38.4746 88.5056C38.4746 94.3955 36.5064 100.36 36.5064 106.104C36.5064 108.28 34.5381 110.192 34.5381 112.46C34.5381 114.851 37.473 108.654 38.6933 106.593C42.9418 99.4177 49.4715 92.092 55.2044 86.0613C59.566 81.4731 64.7558 73.8962 70.7314 71.6128C77.571 68.9993 83.7811 69.4401 91.3977 69.4401C92.6702 69.4401 100.562 70.0713 98.7238 68.2451C97.1371 66.6686 94.1358 67.1406 92.3818 65.7465C90.0974 63.9309 85.3643 62.5232 82.5407 61.4011C79.2613 60.0978 76.5431 55.5387 74.1211 53.0362C63.7448 42.3149 69.1703 20.1799 74.8866 8.82173" stroke-width="2" stroke-linecap="round" pathLength="1"/>
</svg>