<svg viewBox="0 0 45 45" fill="none" xmlns="http://www.w3.org/2000/svg">
<path d="M26.792 8.16891C23.2556 8.3329 17.8049 8.16891 14.2632 8.16891C10.7218 8.16891 7.46187 7.4249 3.44702 8.94419C2.81533 9.34145 2.19219 9.81957 1.83136 10.5098C1.08416 11.9392 1.03811 14.6102 1.03811 16.1662C1.03811 19.099 0.966082 22.6747 1.03914 25.6562C1.10055 28.1624 0.927347 31.7333 1.0377 35.5314C1.13804 38.9873 6.65843 38.57 8.26484 38.57C15.236 38.8984 22.1258 39.3461 29.1421 38.57C31.7596 38.2805 33.9599 37.8104 34.0916 33.7664C34.0916 32.69 33.5367 24.3957 33.5728 24.3957M34.0916 5.07927C37.1593 5.63313 39.8235 5.14922 42.8511 5M43 5.21653C42.675 6.90343 42.049 10.8157 42.1446 12.9697M15.5992 23.7803C25.0384 18.2713 41.9108 6.09824 41.9108 6.09824" stroke-width="2" stroke-linecap="round"/>
</svg>